<?xml version="1.0" encoding="iso-8859-1"?>
<!-- Generator: Adobe Illustrator 19.0.0, SVG Export Plug-In . SVG Version: 6.00 Build 0)  -->
<svg version="1.1" id="Capa_1" xmlns="http://www.w3.org/2000/svg" xmlns:xlink="http://www.w3.org/1999/xlink" x="0px" y="0px"
	 viewBox="0 0 512 512" style="enable-background:new 0 0 512 512;" xml:space="preserve">
<path style="fill:#FC5B6F;" d="M242.629,272.588v-27.222l0,0c0-1.68,0.841-3.161,2.121-4.035c0.512-0.35,1.094-0.603,1.721-0.732
	c0.313-0.065,0.637-0.099,0.97-0.099l0,0h82.191v-81.506c0-2.747,3.328-4.114,5.259-2.161l18.342,18.551
	c2.652,2.682,6.984,2.682,9.636,0l69.241-70.03c2.747-2.778,2.747-7.282,0-10.06l-63.031-63.749
	c-15.216-15.389-35.958-24.051-57.601-24.051H167.426c-21.562,0-42.24,8.536-57.487,23.73L43.772,97.161
	c-1.664,1.658-1.664,4.353,0,6.011l73.865,73.61c1.764,1.758,4.624,1.758,6.388,0l21.952-21.876
	c1.348-1.344,3.648-0.389,3.648,1.515v167.484c0,4.748,3.849,8.597,8.597,8.597h84.405L242.629,272.588L242.629,272.588z"/>
<g>
	<path style="fill:#F74352;" d="M149.626,156.421v167.944c0,4.494,3.643,8.137,8.137,8.137h18.864v-160.96
		c0-9.517-7.715-17.232-17.232-17.232h-11.606C148.764,154.456,149.626,155.258,149.626,156.421z"/>
	<path style="fill:#F74352;" d="M54.316,113.679l82.622-82.457c15.246-15.193,35.925-23.73,57.487-23.73h-27.001
		c-21.562,0-42.24,8.536-57.487,23.73L43.772,97.161c-1.664,1.658-1.664,4.353,0,6.011L54.316,113.679z"/>
	<path style="fill:#F74352;" d="M239.658,67.396c33.083,0,59.903-26.82,59.903-59.903H179.755
		C179.755,40.576,206.574,67.396,239.658,67.396z"/>
</g>
<path style="fill:#E8364C;" d="M206.756,7.493h-27.001c0,33.083,26.82,59.903,59.903,59.903c4.645,0,9.159-0.546,13.5-1.547
	C226.579,59.724,206.756,35.931,206.756,7.493z"/>
<rect x="149.624" y="171.495" style="fill:#F991A2;" width="180.005" height="33.001"/>
<path style="fill:#FC5B6F;" d="M149.626,204.499h27.001v-32.497c0-0.17-0.021-0.335-0.025-0.504h-26.976V204.499z"/>
<path style="fill:#3997EE;" d="M420.082,237.5c-12.254,0-185.536,0-175.596,0c-2.683,0-4.857,2.175-4.857,4.857v91.725v165.569
	c0,2.683,2.175,4.857,4.857,4.857h89.289c2.682,0,4.857-2.175,4.857-4.857V374.827c0-9.339,7.612-16.91,17.003-16.91l0,0
	c8.283,0,14.998,6.679,14.998,14.917V499.65c0,2.683,2.175,4.857,4.857,4.857h89.289c2.682,0,4.857-2.175,4.857-4.857V242.357
	c0-2.683-2.175-4.857-4.857-4.857L420.082,237.5L420.082,237.5z"/>
<g>
	<path style="fill:#1E88D8;" d="M266.63,499.65c0-10.925,0-245.628,0-257.294c0-2.683,2.175-4.857,4.857-4.857h-27.001
		c-2.683,0-4.857,2.175-4.857,4.857v91.725V499.65c0,2.682,2.175,4.857,4.857,4.857h27.001
		C268.804,504.508,266.63,502.333,266.63,499.65z"/>
	<path style="fill:#1E88D8;" d="M397.633,499.65V372.834c0-8.238-6.715-14.917-14.998-14.917h-27.001
		c8.283,0,14.998,6.679,14.998,14.917V499.65c0,2.682,2.175,4.857,4.857,4.857h27.001
		C399.807,504.508,397.633,502.333,397.633,499.65z"/>
	<path style="fill:#1E88D8;" d="M354.632,357.967c0.333-0.019,0.664-0.05,1.002-0.05h-1.002V357.967z"/>
	<path style="fill:#1E88D8;" d="M469.635,267.501h-36.001v21.18c0,24.742,14.832,45.978,36.001,55.141V267.501z"/>
	<path style="fill:#1E88D8;" d="M239.629,267.501h36.001v21.18c0,24.742-14.832,45.978-36.001,55.141L239.629,267.501
		L239.629,267.501z"/>
</g>
<path style="fill:#107EC1;" d="M266.63,320.433v-52.933h-27.001v66.581v9.739C250.818,338.978,260.235,330.759,266.63,320.433z"/>
<path style="fill:#48AEF9;" d="M469.635,242.357c0-2.683-2.175-4.857-4.857-4.857h-44.696c-27.25,0-148.363,0-175.596,0
	c-2.683,0-4.857,2.175-4.857,4.857v27.144h230.007V242.357z"/>
<path style="fill:#3997EE;" d="M266.63,242.357c0-2.683,2.175-4.857,4.857-4.857h-27.001c-2.683,0-4.857,2.175-4.857,4.857v27.144
	h27.001V242.357z"/>
<circle style="fill:#FAC149;" cx="354.87" cy="253.497" r="16"/>
<path style="fill:#F8A748;" d="M354.874,253.5c-2.959-5.126-2.747-11.202,0.007-15.988c-2.722-0.004-5.48,0.672-8.007,2.131
	c-7.653,4.418-10.275,14.204-5.856,21.857c4.418,7.653,14.204,10.275,21.857,5.856c2.527-1.459,4.492-3.51,5.849-5.869
	C363.202,261.48,357.834,258.627,354.874,253.5z"/>
<path d="M469.327,420.668c4.143,0,7.5-3.357,7.5-7.5c0-29.193,0-133.148,0-171.229c0-6.795-5.524-12.357-12.356-12.357h-0.001
	h-127.05c0-11.289,0-44.339,0-60.22l11.096,11.095c5.566,5.565,14.622,5.565,20.19-0.001l69.972-69.973
	c5.706-5.704,5.709-14.942,0.001-20.65l-63.912-63.912C358.051,9.206,335.827,0,312.187,0C294.115,0,188.686,0,167.12,0
	c-46.584,0-68.073,33.163-74.975,38.314c-2.929,2.929-2.929,7.678,0,10.606c2.93,2.929,7.678,2.929,10.608,0
	C109.854,43.536,127.758,15,167.119,15h5.557c3.744,33.648,32.346,59.903,66.976,59.903S302.884,48.648,306.628,15
	c2.39,0.419,32.351-3.654,57.531,21.528l63.63,63.63l-69.178,69.179l-18.141-18.14c-6.648-6.649-18.051-1.932-18.051,7.476v5.209
	H156.884v-7.466c0-8.571-10.391-12.881-16.455-6.815l-19.735,19.736l-69.179-69.179L78,73.674c2.929-2.929,2.929-7.677,0-10.606
	c-2.929-2.929-7.677-2.929-10.607,0L38.605,91.855c-4.576,4.578-4.577,12.027,0,16.607l73.604,73.604
	c4.679,4.676,12.291,4.678,16.972-0.001l12.703-12.704c0,178.892,0,123.8,0,154.497c0,8.876,7.222,16.098,16.098,16.098h73.578
	c0,9.416,0,154.139,0,159.688c0,6.814,5.544,12.356,12.357,12.356h89.505c6.814,0,12.358-5.543,12.358-12.356V374.82
	c0-5.188,4.222-9.41,9.41-9.41c4.09,0,7.417,3.327,7.417,7.417v126.817c0,6.814,5.543,12.356,12.356,12.356h89.505
	c6.814,0,12.357-5.543,12.357-12.356v-51.474c0-4.143-3.357-7.5-7.5-7.5s-7.5,3.357-7.5,7.5V497h-84.218V372.827
	c0-10.099-6.715-18.658-15.914-21.453v-74.323h63.757v11.679c0,25.35,14.122,48.338,36.376,59.885v64.552
	C461.827,417.31,465.184,420.668,469.327,420.668z M239.653,59.903c-26.349,0-48.217-19.549-51.868-44.902h103.736
	C287.87,40.355,266.001,59.903,239.653,59.903z M354.124,244.813c4.692,0,8.51,3.817,8.51,8.51c0,4.692-3.817,8.51-8.51,8.51
	c-4.692,0-8.51-3.817-8.51-8.51C345.615,248.631,349.432,244.813,354.124,244.813z M375.943,244.582c8.894,0,17.583,0,25.808,0
	v17.47c-8.273,0-16.952,0-25.803,0C378.205,256.431,378.194,250.178,375.943,244.582z M332.306,244.582
	c-2.251,5.597-2.261,11.849-0.005,17.47c-8.907,0-17.59,0-25.803,0v-17.47C314.725,244.582,323.412,244.582,332.306,244.582z
	 M246.561,262.051v-17.47c2.955,0,20.744,0,44.936,0v17.47C266.655,262.051,248.685,262.051,246.561,262.051z M267.937,277.051
	v11.679c0,16.941-8.11,32.526-21.376,42.274v-53.954H267.937z M231.56,241.939c0,19.258,0,65.747,0,83.016h-73.578
	c-0.605,0-1.098-0.492-1.098-1.098V211.815h29.483c4.142,0,7.5-3.358,7.5-7.5s-3.358-7.5-7.5-7.5h-29.483v-17.931H322.42v17.931
	H221.367c-4.143,0-7.5,3.358-7.5,7.5s3.357,7.5,7.5,7.5H322.42v17.767h-78.502C236.921,229.582,231.56,235.34,231.56,241.939z
	 M346.694,351.937c-9.283,3.458-15.913,12.409-15.913,22.883V497h-84.219V348.616c22.254-11.547,36.376-34.535,36.376-59.885
	v-11.679h63.757V351.937z M416.751,262.051v-17.47c24.738,0,42.769,0,45.075,0v17.47
	C453.784,262.051,437.25,262.051,416.751,262.051z M440.452,288.73v-11.679h21.376v53.954
	C448.562,321.257,440.452,305.672,440.452,288.73z"/>
<g>
</g>
<g>
</g>
<g>
</g>
<g>
</g>
<g>
</g>
<g>
</g>
<g>
</g>
<g>
</g>
<g>
</g>
<g>
</g>
<g>
</g>
<g>
</g>
<g>
</g>
<g>
</g>
<g>
</g>
</svg>
