<svg height="511pt" viewBox="0 -3 511.99847 511" width="511pt" xmlns="http://www.w3.org/2000/svg"><path d="m348.109375 53.691406s54.605469 19.429688 89.46875 54.292969c0 0 59.558594 137.996094 66.820313 297.785156 0 0-21.789063 26.144531-61.007813 15.976563l-62.699219-226.605469v270.351563s-30.269531 31.957031-124.691406 31.957031c-94.417969 0-124.6875-31.957031-124.6875-31.957031v-270.351563l-62.699219 226.605469c-39.21875 10.167968-61.007812-15.976563-61.007812-15.976563 7.261719-159.785156 66.820312-297.785156 66.820312-297.785156 34.863281-34.863281 89.46875-54.292969 89.46875-54.292969" fill="#cce6f6"/><g fill="#9dcae0"><path d="m192.75 53.695312-5.605469 27.558594c-53.035156 18.359375-97.625 38.179688-110.511719 105.5625-12.875 67.382813-50.601562 232.011719-50.601562 232.011719-12.054688-5.414063-18.421875-13.058594-18.421875-13.058594 7.257813-159.785156 66.8125-297.78125 66.8125-297.78125 34.867187-34.867187 89.472656-54.292969 89.472656-54.292969zm0 0"/><path d="m166.804688 202.671875v282.035156c-25.730469-8.902343-35.496094-19.210937-35.496094-19.210937v-270.355469c0-24.03125-9.753906-46.496094-9.753906-46.496094s45.25 6.203125 45.25 54.027344zm0 0"/><path d="m472.140625 423.117188-.042969.019531c-8.148437 1.460937-17.75 1.449219-28.710937-1.386719l-62.695313-226.609375c0-24.027344 9.761719-46.496094 9.761719-46.496094zm0 0"/></g><path d="m287.480469 92.628906-12.621094 33.738282h-37.710937l-12.617188-33.738282v-48.507812h66.300781" fill="#fb6572"/><path d="m354.777344 36.804688c0 21.800781-55.195313 67.808593-55.195313 67.808593l-43.566406-43.101562-.007813-.007813-.011718.007813-43.574219 43.101562s-55.199219-46.007812-55.199219-67.808593c0-20.355469 36.785156-27.730469 87.84375-28.609376h.042969c3.558594-.0625 7.195313-.09375 10.898437-.09375 56.65625 0 98.769532 6.917969 98.769532 28.703126zm0 0" fill="#cce6f6"/><path d="m311.121094 37.667969c-11.191406 14.285156-31.671875 23.84375-55.105469 23.84375h-.019531l-43.574219 43.101562s-55.199219-46.007812-55.199219-67.808593c0-20.355469 36.785156-27.730469 87.84375-28.609376h.042969c45.59375 0 66.011719 29.472657 66.011719 29.472657zm0 0" fill="#9dcae0"/><path d="m287.480469 378.722656-12.621094-252.355468h-37.710937l-12.617188 252.355468 31.46875 30.386719zm0 0" fill="#fb6572"/><path d="m475.570312 194.839844c-15.75-54.308594-30.390624-88.441406-31.007812-89.867188-.378906-.882812-.925781-1.683594-1.605469-2.367187-10.359375-10.359375-23.335937-20.363281-38.570312-29.738281-3.574219-2.203126-8.257813-1.085938-10.460938 2.492187-2.199219 3.574219-1.085937 8.257813 2.492188 10.460937 13.707031 8.433594 25.386719 17.347657 34.742187 26.503907 5.414063 13.023437 48.300782 119.3125 62.089844 247.726562-14.757812 12.179688-38.960938 13.558594-55.246094 13.710938l-49.699218-179.628907c.269531-21.714843 9.03125-42.257812 9.117187-42.460937 1.671875-3.851563-.09375-8.328125-3.945313-10.003906-3.847656-1.671875-8.332031.09375-10.003906 3.945312-.421875.976563-10.386718 24.203125-10.386718 49.527344 0 .027344.003906.050781.003906.078125v266.816406c-7.914063 6.234375-38.863282 26.371094-109.484375 27.734375v-77.433593l29.15625-28.144532c1.578125-1.523437 2.421875-3.65625 2.3125-5.847656l-12.539063-250.785156 7.949219-21.253906 3.75 3.707031c1.472656 1.460937 3.40625 2.199219 5.347656 2.199219 1.722657 0 3.449219-.582032 4.867188-1.761719.574219-.480469 14.269531-11.925781 28.1875-26.277344 8.117187-8.363281 14.003906-15.375 18.292969-21.242187 4.449218 1.789062 11.359374 4.710937 19.578124 8.707031 1.070313.519531 2.203126.765625 3.316407.765625 2.820312 0 5.53125-1.578125 6.84375-4.285156 1.835937-3.777344.261719-8.324219-3.515625-10.160157-7.257813-3.527343-13.519532-6.25-18.132813-8.15625 3.351563-7.023437 3.363281-10.996093 3.363281-12.992187 0-14.152344-11.402343-24.210938-33.886718-29.894532-17.070313-4.316406-40.78125-6.414062-72.496094-6.414062-31.710938 0-55.425781 2.097656-72.496094 6.414062-22.484375 5.683594-33.882812 15.742188-33.882812 29.894532 0 1.996094.007812 5.964844 3.355468 12.976562-17.003906 6.992188-56.136718 25.027344-83.929687 52.824219-.679687.679687-1.222656 1.484375-1.601563 2.363281-.617187 1.429688-15.261718 35.5625-31.007812 89.867188-14.527344 50.09375-32.640625 127.292968-36.4296875 210.582031-.0859375 1.894531.5390625 3.753906 1.7539065 5.210937.847656 1.019532 17.996093 21.097657 48.941406 21.09375 6.078125 0 12.699219-.773437 19.820313-2.621093 2.632812-.683594 4.699218-2.714844 5.421874-5.332031l47.765626-172.636719v214.355469c0 1.945312.746093 3.816406 2.082031 5.230468.773437.816406 8.066406 8.210938 25.414062 15.992188 1.011719.453125 2.066407.667968 3.109375.667968 2.902344 0 5.675782-1.671874 6.941406-4.492187 1.71875-3.832031.003907-8.332031-3.824218-10.050781-9.742188-4.371094-15.660156-8.511719-18.515625-10.785156v-266.917969c0-.003907 0-.003907 0-.003907-.003907-25.324218-9.964844-48.542968-10.390625-49.519531-1.671875-3.851562-6.148438-5.621093-10.003906-3.945312-3.851563 1.675781-5.617188 6.152343-3.941407 10.003906.085938.207031 8.851563 20.644531 9.117188 42.476563l-49.695313 179.613281c-16.28125-.152344-40.492187-1.53125-55.25-13.714844 13.792969-128.410156 56.679688-234.699219 62.097656-247.722656 26.9375-26.386719 66.066407-43.679688 80.222657-49.390625 4.292969 5.867187 10.179687 12.875 18.292969 21.238281 13.917968 14.347656 27.613281 25.792969 28.1875 26.273437 3.011718 2.511719 7.433593 2.320313 10.214843-.433593l3.757813-3.714844 7.949218 21.261719-12.539062 250.78125c-.109375 2.191406.730469 4.328125 2.3125 5.851562l29.148438 28.144532v77.429687c-23.554688-.449219-44.871094-3.003906-63.441407-7.625-4.078125-1.011719-8.199219 1.46875-9.214843 5.546875-1.011719 4.074219 1.46875 8.199219 5.542968 9.214844 21.75 5.410156 46.886719 8.152344 74.710938 8.152344h.003906.007812c96.574219-.003907 128.878907-32.929688 130.207032-34.332032 1.335937-1.410156 2.082031-3.285156 2.082031-5.230468v-214.355469l47.765625 172.636719c.722656 2.617187 2.789062 4.648437 5.417969 5.332031 43.382812 11.25 67.742187-17.253907 68.757812-18.472657 1.214844-1.457031 1.839844-3.316406 1.753907-5.210937-3.785157-83.289063-21.894532-160.488281-36.421876-210.582031zm-405.757812 194.070312-7.3125 26.425782c-25.644531 4.972656-41.828125-7.457032-47.144531-12.476563.429687-8.585937 1.019531-17.109375 1.738281-25.558594 16.511719 9.460938 37.175781 11.269531 52.71875 11.609375zm186.191406 9.628906-13.78125-13.304687 36.960938-20.191406.53125 10.605469zm12.457032-247.898437-25.609376 13.992187 1.53125-30.660156h23.246094zm-26.5 31.808594 27.34375-14.941407 1.132812 22.640626-29.671875 16.214843zm-2.085938 41.730469 31.40625-17.160157 1.132812 22.640625-33.734374 18.425782zm-2.089844 41.71875 35.46875-19.371094 1.132813 22.632812-37.796875 20.65625zm-2.085937 41.734374 39.53125-21.601562 1.132812 22.640625-41.855469 22.867187zm-2.085938 41.722657 43.59375-23.816407 1.132813 22.632813-45.921875 25.089844zm-21.542969-255.097657c-5.195312-4.582031-13.578124-12.207031-21.871093-20.761718-23.539063-24.285156-25.371094-34.222656-25.371094-36.691406 0-6.34375 8.886719-21.097657 91.175781-21.097657 30.015625 0 53.152344 2 68.769532 5.949219 10.21875 2.582031 22.402343 7.308594 22.402343 15.148438 0 2.46875-1.828125 12.40625-25.371093 36.691406-8.292969 8.554687-16.671876 16.179687-21.871094 20.761718l-27.003906-26.710937c18.21875-3.414063 34.078124-12.304687 44.179687-25.195313 2.589844-3.304687 2.007813-8.085937-1.296875-10.675781-3.304688-2.589843-8.082031-2.011719-10.675781 1.292969-10.105469 12.902344-28.910157 20.917969-49.082031 20.929688-.015626 0-.035157 0-.050782 0s-.035156 0-.050781 0c-20.160156-.011719-38.972656-8.03125-49.09375-20.933594-2.597656-3.304688-7.375-3.878906-10.675781-1.285156-3.304688 2.589843-3.882813 7.371093-1.289063 10.675781 10.113281 12.886719 25.972657 21.773437 44.1875 25.191406zm43.929688-22.0625 22.632812 22.382813-9.046874 24.183594h-27.160157l-9.046875-24.1875zm193.507812 343.140626-7.3125-26.425782c15.542969-.339844 36.203126-2.148437 52.710938-11.605468.71875 8.445312 1.308594 16.964843 1.738281 25.550781-5.351562 5.046875-21.515625 17.449219-47.136719 12.480469zm0 0"/><path d="m492.332031 393.101562c-.582031-3.054687-3.109375-5.457031-6.152343-5.992187-3.058594-.539063-6.226563.917969-7.820313 3.578125-3.691406 6.15625 2.8125 13.65625 9.433594 10.933594 3.296875-1.359375 5.257812-5.019532 4.539062-8.519532zm0 0"/><path d="m19.660156 396.082031c.683594 3.191407 3.28125 5.636719 6.527344 6.054688 2.953125.375 5.929688-1.089844 7.449219-3.636719 3.574219-5.988281-2.488281-13.445312-9.078125-11.058594-3.53125 1.28125-5.570313 4.960938-4.898438 8.640625zm0 0"/><path d="m248.238281 38.382812h22.085938c4.199219 0 7.605469-3.40625 7.605469-7.605468 0-4.199219-3.40625-7.605469-7.605469-7.605469h-22.085938c-4.203125 0-7.605469 3.40625-7.605469 7.605469 0 4.199218 3.402344 7.605468 7.605469 7.605468zm0 0"/><path d="m310.148438 206.953125c-4.199219 0-7.605469 3.40625-7.605469 7.605469 0 4.199218 3.40625 7.601562 7.605469 7.601562h44.707031c4.199219 0 7.605469-3.402344 7.605469-7.601562 0-4.199219-3.40625-7.605469-7.605469-7.605469zm0 0"/></svg>