<svg height="511pt" viewBox="0 -68 511.99953 511" width="511pt" xmlns="http://www.w3.org/2000/svg"><path d="m487.777344 352.261719s-65.664063 26.789062-148.832032 10.863281c-13.003906-2.480469-26.441406-6.019531-40.117187-10.863281l-42.824219-90.609375-42.835937 90.609375c-39.09375 13.84375-76.191407 16.988281-107.007813 15.636719-48.894531-2.15625-81.9375-15.636719-81.9375-15.636719-31.605468-75.859375-12.640625-240.207031 12.636719-287.96875h438.277344c25.289062 47.761719 44.242187 212.109375 12.640625 287.96875zm0 0" fill="#fb6572"/><path d="m338.945312 363.125c-13.003906-2.480469-26.441406-6.019531-40.117187-10.863281l-42.824219-90.609375c36.933594-7.804688 79.425782 48.804687 82.941406 101.472656zm0 0" fill="#ea394e"/><path d="m106.152344 367.878906c0 .011719 0 .011719.007812.019532-48.894531-2.15625-81.9375-15.636719-81.9375-15.636719-31.605468-75.859375-12.640625-240.207031 12.636719-287.96875h87.058594c-35.667969 67.566406-43.453125 228.679687-17.765625 303.585937zm0 0" fill="#ea394e"/><path d="m63.09375 64.289062c-22.007812 48.980469-38.570312 216.164063-12.0625 295.996094-16.9375-4.003906-26.808594-8.027344-26.808594-8.027344-31.605468-75.859374-12.640625-240.207031 12.636719-287.96875zm0 0" fill="#eabe32"/><path d="m487.777344 352.257812s-9.875 4.023438-26.800782 8.027344c26.503907-79.832031 9.941407-247.019531-12.0625-295.996094h26.222657c25.277343 47.761719 44.242187 212.109376 12.640625 287.96875zm0 0" fill="#fee372"/><path d="m36.863281 8.101562h438.269531v56.1875h-438.269531zm0 0" fill="#ea394e"/><path d="m215.144531 8.101562h81.710938v56.1875h-81.710938zm0 0" fill="#fee372"/><path d="m510.375 197.207031c-3.949219-56.519531-14.742188-108.972656-27.636719-134.738281v-54.367188c0-4.199218-3.40625-7.601562-7.605469-7.601562h-299.011718c-4.199219 0-7.605469 3.402344-7.605469 7.601562 0 4.199219 3.40625 7.601563 7.605469 7.601563h31.417968v40.984375h-163.074218v-40.984375h101.246094c4.199218 0 7.601562-3.402344 7.601562-7.601563 0-4.199218-3.402344-7.601562-7.601562-7.601562h-108.847657c-4.199219 0-7.601562 3.402344-7.601562 7.601562v54.367188c-12.894531 25.765625-23.6875 78.21875-27.636719 134.738281-6.277344 89.851563 7.066406 137.542969 15.578125 157.972657.78125 1.871093 2.273437 3.351562 4.148437 4.117187.933594.378906 23.269532 9.378906 58.441407 13.933594 32.386719 4.191406 82.257812 5.199219 135.917969-13.808594 1.90625-.675781 3.46875-2.085937 4.335937-3.917969l35.953125-76.0625 35.957031 76.0625c.863281 1.832032 2.425781 3.242188 4.335938 3.917969 35.171875 12.460937 68.714843 16.320313 96.773437 16.316406 14.746094 0 27.984375-1.066406 39.140625-2.507812 35.171875-4.554688 57.507813-13.554688 58.445313-13.933594 1.875-.765625 3.367187-2.246094 4.144531-4.117187 8.511719-20.429688 21.855469-68.121094 15.578125-157.972657zm-205.917969-140.519531v-40.984375h163.078125v40.984375zm-81.710937-40.984375h66.507812v40.984375h-66.507812zm-205.953125 182.5625c3.632812-51.992187 13.453125-101.660156 24.808593-126.375h10.390626c-20.058594 58.632813-31.710938 199.074219-11.972657 277.621094-4.417969-1.292969-7.800781-2.429688-9.992187-3.207031-12.703125-32.96875-17.527344-86.609376-13.234375-148.039063zm465.179687 148.039063c-2.191406.777343-5.558594 1.90625-9.960937 3.199218 3.703125-14.644531 6.433593-31.796875 8.132812-51.207031.367188-4.179687-2.726562-7.867187-6.910156-8.234375-4.175781-.363281-7.871094 2.726562-8.234375 6.910156-1.960938 22.382813-5.308594 41.476563-9.960938 56.859375-7.34375 1.617188-15.847656 3.179688-25.296874 4.382813-30.023438 3.832031-75.910157 4.769531-125.402344-12.09375l-41.464844-87.71875c-1.257812-2.660156-3.933594-4.351563-6.875-4.351563s-5.617188 1.691407-6.871094 4.351563l-41.464844 87.71875c-49.492187 16.863281-95.382812 15.925781-125.402343 12.09375-9.449219-1.203125-17.949219-2.765625-25.292969-4.382813-22.566406-74.878906-9.652344-228.484375 11.191406-281.941406h375.679688c13.242187 34.359375 25.253906 117.84375 22.886718 195.277344-.128906 4.195312 3.167969 7.703125 7.367188 7.832031h.234375c4.09375 0 7.46875-3.25 7.597656-7.367188 2.140625-70.085937-7.460937-153.53125-21.910156-195.742187h10.382813c11.355468 24.714844 21.175781 74.378906 24.808593 126.375 4.292969 61.429687-.53125 115.070313-13.234375 148.039063zm0 0"/></svg>