<?xml version="1.0" encoding="iso-8859-1"?>
<!-- Generator: Adobe Illustrator 19.0.0, SVG Export Plug-In . SVG Version: 6.00 Build 0)  -->
<svg version="1.1" id="Capa_1" xmlns="http://www.w3.org/2000/svg" xmlns:xlink="http://www.w3.org/1999/xlink" x="0px" y="0px"
	 viewBox="0 0 512 512" style="enable-background:new 0 0 512 512;" xml:space="preserve">
<g>
	<circle style="fill:#A8503C;" cx="256.481" cy="33.975" r="26.475"/>
	<circle style="fill:#A8503C;" cx="80.721" cy="100.24" r="26.475"/>
	<circle style="fill:#A8503C;" cx="431.271" cy="100.24" r="26.475"/>
</g>
<g>
	<polygon style="fill:#EB98A3;" points="300.354,231.337 211.647,231.337 189.001,364.317 229.502,504.5 282.5,504.5 
		327.069,367.918 	"/>
	<path style="fill:#EB98A3;" d="M140.362,244.332L76.011,210.62l-24.51,56.772l54.772,204.809
		c5.094,19.049,22.352,32.299,42.071,32.299h25.452l15.205-140.183L140.362,244.332z"/>
	<path style="fill:#EB98A3;" d="M426.078,224.133l-54.439,20.198l-48.638,119.986l13.945,128.567l-1.621,11.616h28.333
		c19.719,0,36.977-13.249,42.071-32.299l54.772-204.809L426.078,224.133z"/>
</g>
<g>
	<path style="fill:#FA7578;" d="M371.639,244.332l-22.687,55.965c8.086-3.094,15.712-7.244,22.683-12.369
		c16.458,12.099,36.538,18.829,57.818,18.829c0.974,0,1.944-0.015,2.919-0.043c6.224-0.184,12.356-1.059,18.299-2.568l9.829-36.753
		l-34.423-43.259L371.639,244.332z"/>
	<path style="fill:#FA7578;" d="M313.817,306.757c0.43,0,0.855-0.02,1.284-0.025l-14.747-75.395h-88.708l-12.842,75.408
		c21.049-0.131,40.898-6.834,57.194-18.816C272.457,300.027,292.537,306.757,313.817,306.757z"/>
	<path style="fill:#FA7578;" d="M163.049,300.298l-22.687-55.966L76.011,210.62l-24.51,56.772l9.829,36.754
		c5.942,1.509,12.073,2.383,18.295,2.567c0.97,0.029,1.943,0.043,2.921,0.043c21.281,0,41.36-6.728,57.818-18.829
		C147.335,293.053,154.962,297.203,163.049,300.298z"/>
</g>
<g>
	<polygon style="fill:#80E2FF;" points="371.639,244.332 335.325,504.5 282.5,504.5 300.354,231.337 326.68,231.337 	"/>
	<polygon style="fill:#80E2FF;" points="229.502,504.5 173.795,504.5 140.362,244.332 185.494,231.337 211.647,231.337 	"/>
</g>
<g>
	<path style="fill:#45B6D9;" d="M295.536,305.051c5.953,1.115,12.063,1.706,18.281,1.706c18.47,0,36.031-5.074,51.108-14.324
		l6.714-48.101l-44.959-12.995h-26.326L295.536,305.051z"/>
	<path style="fill:#45B6D9;" d="M146.498,292.08c15.205,9.474,32.98,14.677,51.684,14.677c6.219,0,12.33-0.591,18.283-1.706
		l-4.818-73.714h-26.153l-45.132,12.995L146.498,292.08z"/>
</g>
<path style="fill:#FB8D4B;" d="M484.655,211.975c-9.159-58.99-49.799-178-228.654-178c-178.853,0-219.494,119.009-228.654,178
	c-5.138,33.09,19.695,63.765,53.167,64.751c0.675,0.02,1.352,0.03,2.032,0.03c24.472,0,45.914-12.976,57.819-32.424v0.003
	c11.906,19.445,33.346,32.42,57.817,32.42c24.472,0,45.914-12.976,57.819-32.424v0.003c11.906,19.445,33.346,32.42,57.817,32.42
	c24.472,0,45.914-12.976,57.819-32.424v0.003c11.906,19.445,33.346,32.42,57.817,32.42c0.681,0,1.359-0.01,2.035-0.03
	C464.959,275.739,489.792,245.065,484.655,211.975z"/>
<path style="fill:#E86D24;" d="M61.347,211.975c8.861-57.074,47.199-170.32,211.654-177.623c-5.526-0.246-11.186-0.377-17-0.377
	c-178.853,0-219.494,119.009-228.654,178c-5.138,33.09,19.695,63.765,53.167,64.751c0.675,0.02,1.352,0.03,2.032,0.03
	c6.139,0,12.086-0.817,17.741-2.348C74.35,266.587,56.97,240.164,61.347,211.975z"/>
<g>
	<ellipse style="fill:#A8503C;" cx="173.791" cy="100.24" rx="21.253" ry="17.863"/>
	<ellipse style="fill:#A8503C;" cx="101.981" cy="183.52" rx="21.253" ry="17.863"/>
	<ellipse style="fill:#A8503C;" cx="338.201" cy="100.24" rx="21.253" ry="17.863"/>
	<ellipse style="fill:#A8503C;" cx="410.021" cy="183.52" rx="21.253" ry="17.863"/>
</g>
<path d="M174.692,143.437c-4.142,0-7.5,3.358-7.5,7.5v14.716c0,4.142,3.358,7.5,7.5,7.5s7.5-3.358,7.5-7.5v-14.716
	C182.192,146.795,178.834,143.437,174.692,143.437z"/>
<path d="M337.31,143.437c-4.142,0-7.5,3.358-7.5,7.5v14.716c0,4.142,3.358,7.5,7.5,7.5s7.5-3.358,7.5-7.5v-14.716
	C344.81,146.795,341.452,143.437,337.31,143.437z"/>
<path d="M285.593,159.972c-3.119-2.726-7.856-2.408-10.583,0.711c-4.635,5.304-11.564,8.345-19.01,8.345
	c-7.445,0-14.375-3.042-19.011-8.345c-2.727-3.119-7.465-3.437-10.583-0.711c-3.119,2.727-3.437,7.464-0.71,10.583
	c7.485,8.563,18.53,13.473,30.304,13.473c11.774,0,22.819-4.91,30.304-13.473C289.031,167.436,288.712,162.698,285.593,159.972z"/>
<path d="M173.796,74.88c-15.854,0-28.753,11.378-28.753,25.363s12.899,25.363,28.753,25.363s28.753-11.378,28.753-25.363
	S189.65,74.88,173.796,74.88z M173.796,110.606c-7.455,0-13.753-4.746-13.753-10.363s6.298-10.363,13.753-10.363
	s13.753,4.746,13.753,10.363S181.251,110.606,173.796,110.606z"/>
<path d="M101.978,158.153c-15.854,0-28.753,11.378-28.753,25.363s12.898,25.363,28.753,25.363s28.753-11.378,28.753-25.363
	S117.833,158.153,101.978,158.153z M101.978,193.879c-7.455,0-13.753-4.746-13.753-10.363c0-5.618,6.298-10.363,13.753-10.363
	s13.753,4.746,13.753,10.363C115.731,189.133,109.433,193.879,101.978,193.879z"/>
<path d="M338.206,74.88c-15.854,0-28.753,11.378-28.753,25.363s12.898,25.363,28.753,25.363s28.753-11.378,28.753-25.363
	S354.061,74.88,338.206,74.88z M338.206,110.606c-7.455,0-13.753-4.746-13.753-10.363s6.298-10.363,13.753-10.363
	s13.753,4.746,13.753,10.363S345.661,110.606,338.206,110.606z"/>
<path d="M410.023,158.153c-15.854,0-28.753,11.378-28.753,25.363s12.898,25.363,28.753,25.363s28.753-11.378,28.753-25.363
	S425.878,158.153,410.023,158.153z M410.023,193.879c-7.455,0-13.753-4.746-13.753-10.363c0-5.618,6.298-10.363,13.753-10.363
	s13.753,4.746,13.753,10.363C423.777,189.133,417.478,193.879,410.023,193.879z"/>
<path d="M458.516,120.525c4.328-5.82,6.735-12.932,6.735-20.282c0-18.734-15.241-33.975-33.975-33.975
	c-6.562,0-12.872,1.869-18.294,5.347c-32.611-24.537-73.799-39.14-123.066-43.631C287.077,12.099,273.17,0,256.481,0
	c-16.659,0-30.546,12.055-33.42,27.898c-49.698,4.387-91.216,19.019-124.042,43.717c-5.422-3.478-11.733-5.347-18.294-5.347
	c-18.734,0-33.975,15.241-33.975,33.975c0,7.351,2.408,14.462,6.735,20.283c-20.699,31.848-29.694,65.463-33.55,90.299
	c-2.813,18.115,2.309,36.605,14.052,50.728c3.255,3.914,6.946,7.363,10.952,10.336l54.087,202.25
	C104.989,496.431,125.268,512,148.344,512h215.314c23.076,0,43.355-15.569,49.317-37.861l54.087-202.25
	c4.006-2.974,7.698-6.423,10.952-10.337c11.742-14.123,16.864-32.612,14.052-50.727C488.21,185.988,479.216,152.374,458.516,120.525
	z M425.718,82.097c1.782-0.545,3.652-0.829,5.559-0.829c10.463,0,18.975,8.512,18.975,18.975c0,2.361-0.444,4.68-1.281,6.842
	c-2.958-3.812-6.101-7.575-9.45-11.27c-4.323-4.768-8.91-9.317-13.695-13.62C425.789,82.163,425.754,82.129,425.718,82.097z
	 M238.892,26.855C241.714,19.91,248.535,15,256.481,15c7.964,0,14.798,4.932,17.608,11.902c-0.039-0.002-0.078-0.002-0.117-0.004
	c-5.982-0.301-11.982-0.423-17.972-0.423c-5.637,0-11.279,0.123-16.91,0.373C239.025,26.851,238.958,26.852,238.892,26.855z
	 M61.75,100.243c0-10.463,8.512-18.975,18.975-18.975c1.907,0,3.777,0.283,5.559,0.829c-0.048,0.043-0.094,0.087-0.142,0.13
	c-8.427,7.567-16.167,15.913-23.11,24.859C62.195,104.923,61.75,102.605,61.75,100.243z M113.518,470.264L62.965,281.229
	c2.382,0.771,4.813,1.39,7.277,1.868c0.09,0.018,0.179,0.035,0.268,0.052c23.033,4.405,47.84-3.915,64.524-20.171
	c0.048-0.046,0.098-0.089,0.145-0.136L165.27,497h-16.927C132.049,497,117.728,486.005,113.518,470.264z M180.394,497
	l-29.475-229.365c0.089,0.072,0.182,0.139,0.272,0.211c15.693,12.537,36.365,18.292,56.362,15.832L221.495,497H180.394z
	 M236.528,497l-14.163-216.68c13.058-4.395,24.685-12.331,33.635-23.121c8.951,10.79,20.578,18.727,33.637,23.122L275.474,497
	H236.528z M304.449,283.679c0.046,0.368,6.234,0.509,6.761,0.529c0.106,0.004,0.211,0.01,0.317,0.013
	c17.476,0.567,35.266-5.246,48.97-16.126c0.093-0.074,0.19-0.143,0.283-0.217L328.799,497h-38.293
	C290.506,497,304.447,283.714,304.449,283.679z M449.037,281.229l-50.553,189.035C394.274,486.005,379.953,497,363.658,497h-19.713
	l32.707-234.325c0.056,0.055,0.115,0.106,0.171,0.161C395.308,280.995,424.062,289.315,449.037,281.229z M466.48,251.961
	c-7.129,8.573-16.917,14.332-27.606,16.417c-0.048,0.01-0.097,0.019-0.145,0.028c-22.932,4.401-47.615-7.553-60.033-26.942
	c-1.48-2.312-3.191-4.173-6.079-4.556c-2.835-0.38-5.758,0.984-7.295,3.396c-0.025,0.039-0.057,0.072-0.082,0.111
	c-2.073,3.386-4.433,6.516-7.039,9.367c-12.098,13.24-30.111,20.43-47.998,19.363c-0.022-0.001-0.044-0.002-0.066-0.003
	c-18.383-1.225-35.493-10.826-45.975-26.017c-0.055-0.08-1.195-1.782-1.682-2.573c-2.785-4.52-9.973-4.878-12.876-0.137
	c-0.482,0.787-1.621,2.497-1.681,2.584c-8.272,12.052-20.882,20.886-35.102,24.454l-0.148,0.039
	c-13.301,3.552-28.198,1.805-40.557-4.106c-9.708-4.643-18.183-12.071-24.162-21.098c-0.682-1.03-1.256-2.15-2.103-3.06
	c-3.319-3.56-9.336-2.966-11.886,1.19c-17.964,29.28-64.497,40.345-88.443,11.544c-8.993-10.816-12.917-24.971-10.764-38.836
	c3.795-24.444,12.874-57.937,34.302-88.892c0.022-0.031,0.048-0.059,0.069-0.089c9.669-13.962,21.348-26.565,34.603-37.188
	c32.505-26.044,74.974-40.984,126.784-44.602c0.011-0.001,0.023,0,0.034,0c17.338-0.728,34.5-1.189,51.837,0.071
	c0.125,0.009,0.249,0.011,0.373,0.013c51.233,3.772,93.266,18.686,125.505,44.516c0.008,0.006,0.014,0.013,0.022,0.02
	c13.051,10.607,24.924,23.222,34.583,37.17c0.022,0.032,0.048,0.06,0.071,0.091c21.427,30.954,30.505,64.446,34.301,88.89
	C479.396,226.991,475.473,241.146,466.48,251.961z"/>
<g>
</g>
<g>
</g>
<g>
</g>
<g>
</g>
<g>
</g>
<g>
</g>
<g>
</g>
<g>
</g>
<g>
</g>
<g>
</g>
<g>
</g>
<g>
</g>
<g>
</g>
<g>
</g>
<g>
</g>
</svg>
