<svg height="512" viewBox="0 0 60 60" width="512" xmlns="http://www.w3.org/2000/svg"><g id="Page-1" fill="none" fill-rule="evenodd"><g id="012---Soda-and-Burger" fill-rule="nonzero"><path id="Shape" d="m52.78 59h-17.59c-1.3390794-.0689334-2.5643347-.7744303-3.2961957-1.8979359s-.8819624-2.5293669-.4038043-3.7820641l.5-1.45c.1-.29.2-.58.29-.87.4944575-1.6019193.7669943-3.2640573.81-4.94h21.79c.056718 1.9835864.4314856 3.9452077 1.11 5.81l.49 1.45c.4781581 1.2526972.3280567 2.6585585-.4038043 3.7820641s-1.9571163 1.8290025-3.2961957 1.8979359z" fill="#a0522d"/><path id="Shape" d="m56.48 53.32-.49-1.45c-.6785144-1.8647923-1.053282-3.8264136-1.11-5.81h-3c.056718 1.9835864.4314856 3.9452077 1.11 5.81l.49 1.45c.4781581 1.2526972.3280567 2.6585585-.4038043 3.7820641s-1.9571163 1.8290025-3.2961957 1.8979359h3c1.3390794-.0689334 2.5643347-.7744303 3.2961957-1.8979359s.8819624-2.5293669.4038043-3.7820641z" fill="#783e22"/><path id="Shape" d="m56.16 37.95c-.8811112 2.61177-1.3138879 5.3538159-1.28 8.11h-21.79c.01-.35.01-.71 0-1.06-.0370206-1.3452301-.1976974-2.6842037-.48-4-.2080769-1.031139-.475183-2.0494813-.8-3.05-1.1311632-3.6150165-1.0996851-7.4938181.09-11.09.1-.29.21-.58.32-.86h23.53c1.4953059 3.8200474 1.6399691 8.0364495.41 11.95z" fill="#f44335"/><path id="Shape" d="m55.75 26h-3c1.4953059 3.8200474 1.6399691 8.0364495.41 11.95-.8811112 2.61177-1.3138879 5.3538159-1.28 8.11h3c-.0338879-2.7561841.3988888-5.49823 1.28-8.11 1.2299691-3.9135505 1.0853059-8.1299526-.41-11.95z" fill="#c81e1e"/><path id="Shape" d="m55.75 26h-23.53c.7393483-1.904466 1.8471676-3.6443539 3.26-5.12.544208-.5722951 1.0237629-1.2027589 1.43-1.88h14.15l.01-.01c.3996398.6821366.8760765 1.3162671 1.42 1.89 1.4128324 1.4756461 2.5206517 3.215534 3.26 5.12z" fill="#a0522d"/><path id="Shape" d="m52.49 20.88c-.5439235-.5737329-1.0203602-1.2078634-1.42-1.89l-.01.01h-2.983c.3978013.6784768.8718806 1.3092405 1.413 1.88 1.4128324 1.4756461 2.5206517 3.215534 3.26 5.12h3c-.7393483-1.904466-1.8471676-3.6443539-3.26-5.12z" fill="#783e22"/><path id="Shape" d="m51.07 18.99-.01.01h-14.15c1.8101303-3.0397118 2.8662307-6.468609 3.08-10v-4h8v4c.2090827 3.5291008 1.2655748 6.9558397 3.08 9.99z" fill="#00bcd4"/><path id="Shape" d="m47.99 9v-4h-3v4c.2090827 3.5291008 1.2655748 6.9558397 3.08 9.99l-.01.01h3l.01-.01c-1.8144252-3.0341603-2.8709173-6.4608992-3.08-9.99z" fill="#00838f"/><path id="Shape" d="m48.99 3v1c0 .55228475-.4477153 1-1 1h-8c-.5522847 0-1-.44771525-1-1v-1c.0032948-1.10320187.8967981-1.9967052 2-2h6c.530433 0 1.0391408.21071368 1.4142136.58578644.3750727.37507275.5857864.88378058.5857864 1.41421356z" fill="#f44335"/><path id="Shape" d="m46.99 1h-3c1.1045695 0 2 .8954305 2 2v1c0 .55228475-.4477153 1-1 1h3c.5522847 0 1-.44771525 1-1v-1c0-1.1045695-.8954305-2-2-2z" fill="#c81e1e"/><circle id="Oval" cx="43.991" cy="36" fill="#f5f5f5" r="6"/><path id="Shape" d="m43.991 30c-.5064496.0029108-1.0104803.0701149-1.5.2 2.6479943.6813094 4.498931 3.0687622 4.498931 5.803s-1.8509367 5.1216906-4.498931 5.803c2.2562168.5974295 4.6541441-.167743 6.1473104-1.961591s1.8105762-4.2908052.8137097-6.4011828-3.1270873-3.4511621-5.4610201-3.4372262z" fill="#cfd8dc"/><path id="Shape" d="m35.19 59h-26.19c-2.76142375 0-5-2.2385763-5-5v-3h9.25l1.05 1.2c.1834794.2072306.4446427.3291464.7213226.3367267.2766798.0075803.5441267-.0998531.7386774-.2967267l1.24-1.24h15.28c-.09.29-.19.58-.29.87l-.5 1.45c-.4781581 1.2526972-.3280567 2.6585585.4038043 3.7820641s1.9571163 1.8290025 3.2961957 1.8979359z" fill="#ff9801"/><path id="Shape" d="m31.49 53.32.5-1.45c.1-.29.2-.58.29-.87h-3c-.09.29-.19.58-.29.87l-.5 1.45c-.4781581 1.2526972-.3280567 2.6585585.4038043 3.7820641s1.9571163 1.8290025 3.2961957 1.8979359h3c-1.3390794-.0689334-2.5643347-.7744303-3.2961957-1.8979359s-.8819624-2.5293669-.4038043-3.7820641z" fill="#f57c00"/><path id="Shape" d="m33.09 45c.01.35.01.71 0 1.06-.0430057 1.6759427-.3155425 3.3380807-.81 4.94h-15.28l6-6z" fill="#825a2c"/><path id="Shape" d="m30.09 45c.01.35.01.71 0 1.06-.0430057 1.6759427-.3155425 3.3380807-.81 4.94h3c.4944575-1.6019193.7669943-3.2640573.81-4.94.01-.35.01-.71 0-1.06z" fill="#624421"/><path id="Shape" d="m33.09 45h-10.09l-7.24 7.24c-.1945507.1968736-.4619976.304307-.7386774.2967267-.2766799-.0075803-.5378432-.1294961-.7213226-.3367267l-1.05-1.2-5.25-6h-3v-4h27.61c.2823026 1.3157963.4429794 2.6547699.48 4z" fill="#ffdc00"/><path id="Shape" d="m32.61 41h-3c.2823026 1.3157963.4429794 2.6547699.48 4h3c-.0370206-1.3452301-.1976974-2.6842037-.48-4z" fill="#fec108"/><path id="Shape" d="m13.6 51.4.7.8c.1834794.2072306.4446427.3291464.7213226.3367267.2766798.0075803.5441267-.0998531.7386774-.2967267l7.24-7.24h-3z" fill="#fec108"/><path id="Shape" d="m32.61 41.0000003-27.55-.0000003c-1.0236784.0005403-1.8825139-.7719801-1.99-1.79-.04851538-.4014814-.07189428-.8056023-.07-1.21 0-7.73 8.06-14 18-14 3.8232823-.0350686 7.5864625.9523346 10.9 2.86-1.1896851 3.5961819-1.2211632 7.4749835-.09 11.09.324817 1.0005187.5919231 2.018861.8 3.0500003z" fill="#ff9801"/><path id="Shape" d="m31.81 37.95c-1.1311632-3.6150165-1.0996851-7.4938181.09-11.09-3.3135375-1.9076654-7.0767177-2.8950686-10.9-2.86-.478 0-.947.027-1.416.056 3.280849.196024 6.4707227 1.1547666 9.316 2.8-1.1896851 3.5961819-1.2211632 7.4749835-.09 11.09.324817 1.0005187.5919231 2.018861.8 3.05h3c-.2082256-1.02979-.4753307-2.0467927-.8-3.046z" fill="#f57c00"/><path id="Shape" d="m13.25 51h-9.25c-1.65685425 0-3-1.3431458-3-3s1.34314575-3 3-3h4z" fill="#825a2c"/><path id="Shape" d="m8 45h-3l5.25 6h3z" fill="#624421"/><ellipse id="Oval" cx="10.761" cy="17.357" fill="#a4c400" rx="5" ry="3.5" transform="matrix(.792 -.61 .61 .792 -8.356 10.174)"/><path id="Shape" d="m14.722 14.306c-.828-1.076-2.422-1.317-4.054-.792.4138594.1685031.7769942.441371 1.054.792 1.18 1.531.363 4.138-1.825 5.824-.61373174.4719702-1.30462357.8339948-2.042 1.07 1.75327701.5457367 3.6641943.140448 5.045-1.07 2.185-1.686 3-4.293 1.822-5.824z" fill="#90ac00"/><g fill="#000"><path id="Shape" d="m59 58h-2.332c.018-.025.04-.047.058-.073 1.0132691-1.4329749 1.2738635-3.2664428.7-4.925l-.5-1.469c-1.476-4.131-1.419-8.226.188-13.278 1.2805762-4.1100114 1.1314775-8.5325674-.423-12.547-.0165385-.0564187-.0379526-.1112921-.064-.164-.7822548-1.9934488-1.9463876-3.8148905-3.427-5.362-2.33-2.392-4.209-8.073-4.209-11.182v-3.278c.6167513-.35441258.997855-1.01067322 1-1.722v-1c0-1.65685425-1.3431458-3-3-3h-6c-1.6568542 0-3 1.34314575-3 3v1c.002145.71132678.3832487 1.36758742 1 1.722v3.278c0 3.1-1.884 8.783-4.224 11.183-1.4543171 1.5195836-2.6028389 3.3046641-3.383 5.258-3.216975-1.6305756-6.7774782-2.4675544-10.384-2.441-1.4483853.0030853-2.8934362.1389877-4.317.406l-2.426-3.15c.8082439-.7758728 1.4154004-1.7368894 1.769-2.8.4592614-1.2624611.2677892-2.6700814-.512-3.764-.8586772-1.03269-2.170486-1.5767841-3.508-1.455-1.1178251.0725544-2.20126106.4157397-3.157 1l-.649-.847c-.21434231-.2933078-.57089135-.4473039-.93136819-.4022646-.36047685.0450393-.66817472.2820288-.80376043.6190579-.13558572.3370291-.07773022.7210796.15112862 1.0032067l.652.848c-.8082439.7758728-1.41540043 1.7368894-1.769 2.8-.45873006 1.262518-.26729232 2.6698846.512 3.764.79889631.9684569 2.00454372 1.5078352 3.259 1.458.082 0 .164 0 .247-.006 1.1174818-.0727142 2.2005562-.4158937 3.156-1l1.874 2.433c-7.305 2.093-12.547 7.613-12.547 14.093-.00237043.440161.02301325.8800335.076 1.317.12036245 1.1259898.86449671 2.088259 1.924 2.488v2.195c-2.01176888-.0025048-3.7110655 1.4923684-3.96503286 3.4880439-.25396737 1.9956756 1.01675863 3.8685104 2.96503286 4.3699561v2.142c.00039988 1.4780119.54914148 2.9033147 1.54 4h-3.54c-.55228475 0-1 .4477153-1 1s.44771525 1 1 1h58c.5522847 0 1-.4477153 1-1s-.4477153-1-1-1zm-49.575-37.523c-.6835283.0756523-1.36274441-.1752093-1.833-.677-.36875466-.5819615-.43997896-1.3042204-.192-1.947.23181639-.6705949.6072212-1.2825047 1.1-1.793l.554.719c.21434231.2933078.57089135.4473039.93136819.4022646.36047681-.0450393.66817471-.2820288.80376041-.6190579s.0777302-.7210796-.1511286-1.0032067l-.554-.719c.6190253-.3448577 1.3061857-.5496745 2.013-.6h.155c.6341952-.0412269 1.2523871.2100287 1.678.682.3673902.581894.4371405 1.3035133.188 1.945-.3505848.989022-.9880676 1.8510687-1.831 2.476-.819841.6544785-1.8163839 1.0493351-2.862 1.134zm45.784 17.171c-.7947791 2.3942813-1.2403589 4.8906061-1.323 7.412h-19.8v-.026c0-.012.007-.022.007-.034s-.011-.038-.012-.059c-.0926102-2.4808892-.5356652-4.9362087-1.316-7.293-1.0883565-3.4744611-1.0347349-7.2062439.153-10.648h22.135c1.1887141 3.4414346 1.2433871 7.173219.156 10.648zm-23.688 12.352h-12.107l4-4h8.668c-.0316171 1.3505471-.2198767 2.6928611-.561 4zm8.47-47c0-.55228475.4477153-1 1-1h6c.5522847 0 1 .44771525 1 1v1h-8zm1 6v-3h6v3c.1680074 3.1325143.9813374 6.1965453 2.389 9h-10.78c1.4091142-2.8030164 2.2231698-5.8672158 2.391-9zm-4.791 12.579c.4627275-.4873963.8801171-1.0159113 1.247-1.579h13.077c.3669282.5627453.7843168 1.0909243 1.247 1.578.9756531 1.0132638 1.7943658 2.1666746 2.429 3.422h-20.431c.6352164-1.2551725 1.4546163-2.4082647 2.431-3.421zm-20.342 4.032 2.35 3.051c.3381723.434136.9635634.5134562 1.3994099.1774912.4358464-.335965.5183391-.9609455.1845901-1.3984912l-1.721-2.234c.9706704-.1338026 1.9491593-.202955 2.929-.207 3.383063-.028127 6.7206548.7801638 9.716 2.353-1.014843 3.5695675-.9661884 7.3576751.14 10.9.189.595.353 1.175.5 1.745h-26.296c-.51908482-.0013901-.95206238-.3971316-1-.914-.04204038-.3597757-.06207765-.7217824-.06-1.084 0-5.8 4.991-10.718 11.858-12.389zm-9.858 16.389h25.788c.118.682.2 1.345.246 2h-9.034c-.2523594-.0006407-.4954957.094826-.68.267l-.023.022-7.245 7.244-1.03-1.177-.031-.036-5.239-5.979c-.007-.008-.018-.011-.025-.019-.06927919-.0693235-.14847793-.1279643-.235-.174-.032-.018-.057-.046-.091-.061-.12601075-.0570298-.26268514-.0866823-.401-.087h-2zm-4 6c0-1.1045695.8954305-2 2-2h3.546l3.5 4h-7.046c-1.1045695 0-2-.8954305-2-2zm3 6v-2h7.8l.748.855c.3652016.4157676.8859345.662202 1.439.681h.065c.5306052-.0005056 1.0393972-.2112138 1.415-.586l.947-.95h13.471l-.342 1c-.5740448 1.6591985-.3134597 3.4933451.7 4.927.018.026.04.048.059.073h-22.302c-2.209139 0-4-1.790861-4-4zm34 4h-3.812c-.9271976-.0083157-1.7917301-.4695242-2.315-1.235-.6401794-.9079607-.8029082-2.0690322-.437-3.118l.492-1.441c.09-.253.156-.508.236-.761.0352397-.0774781.0604434-.1591382.075-.243.4150865-1.3478193.6833102-2.7365473.8-4.142h19.9c.1370678 1.7524001.5087189 3.4784757 1.105 5.132l.5 1.457c.3647096 1.0484262.2020383 2.2083433-.437 3.116-.5254338.7676813-1.3937417 1.22911-2.324 1.235z"/><circle id="Oval" cx="35.991" cy="54" r="1"/><circle id="Oval" cx="37.991" cy="50" r="1"/><circle id="Oval" cx="39.991" cy="54" r="1"/><path id="Shape" d="m43.991 29c-3.8659932 0-7 3.1340068-7 7s3.1340068 7 7 7 7-3.1340068 7-7c-.0044086-3.8641657-3.1358343-6.9955914-7-7zm0 12c-2.7614237 0-5-2.2385763-5-5s2.2385763-5 5-5 5 2.2385763 5 5c-.0033061 2.7600532-2.2399468 4.9966939-5 5z"/><path id="Shape" d="m19.607 17.766-.444.687c-.2018671.2990627-.2269735.6836811-.065697 1.0064483.1612764.3227673.483923.5336247.8442838.5517602.3603608.0181354.7025466-.1592638.8954132-.4642085l.453-.7c.292-.455.582-.907.887-1.348.9188418-1.2451534 1.1467848-2.8700935.606-4.32-.1814933-.4258959-.4167369-.8268182-.7-1.193-.2087689-.2541634-.3773895-.538795-.5-.844-.319-1.038.122-1.874 1.049-3.055l1.154-1.471c.2204329-.28116802.2741199-.65857752.1408377-.99006199-.1332822-.33148448-.4332849-.56668355-.787-.617-.3537151-.05031646-.7074048.09189397-.9278377.37306199l-1.152 1.471c-1 1.279-2.022 2.817-1.388 4.878.179912.514535.4449284.9952154.784 1.422.1836695.2339191.3397036.4882715.465.758.289179.8310396.1427459 1.7516907-.39 2.452-.317.459-.619.929-.924 1.403z"/><path id="Shape" d="m28.607 17.766-.444.687c-.2018671.2990627-.2269735.6836811-.065697 1.0064483.1612764.3227673.483923.5336247.8442838.5517602.3603608.0181354.7025466-.1592638.8954132-.4642085l.453-.7c.292-.455.582-.907.887-1.348.9188418-1.2451534 1.1467848-2.8700935.606-4.32-.1814933-.4258959-.4167369-.8268182-.7-1.193-.2087689-.2541634-.3773895-.538795-.5-.844-.319-1.038.122-1.874 1.049-3.055l1.154-1.471c.2204329-.28116802.2741199-.65857752.1408377-.99006199-.1332822-.33148448-.4332849-.56668355-.787-.617-.3537151-.05031646-.7074048.09189397-.9278377.37306199l-1.152 1.471c-1 1.279-2.022 2.817-1.388 4.878.179912.514535.4449284.9952154.784 1.422.1836695.2339191.3397036.4882715.465.758.289179.8310396.1427459 1.7516907-.39 2.452-.317.459-.619.929-.924 1.403z"/><circle id="Oval" cx="10" cy="32" r="1"/><circle id="Oval" cx="14" cy="29" r="1"/><circle id="Oval" cx="24" cy="28" r="1"/><circle id="Oval" cx="7" cy="37" r="1"/><circle id="Oval" cx="12" cy="36" r="1"/><circle id="Oval" cx="16" cy="33" r="1"/></g></g></g></svg>