<?xml version="1.0" encoding="iso-8859-1"?>
<!-- Generator: Adobe Illustrator 19.0.0, SVG Export Plug-In . SVG Version: 6.00 Build 0)  -->
<svg version="1.1" id="Capa_1" xmlns="http://www.w3.org/2000/svg" xmlns:xlink="http://www.w3.org/1999/xlink" x="0px" y="0px"
	 viewBox="0 0 512 512" style="enable-background:new 0 0 512 512;" xml:space="preserve">
<path style="fill:#A8503C;" d="M462.426,348.889L256,329.758L49.574,348.889c-14.642,0-26.512,11.87-26.512,26.512l0,0
	c0,14.642,11.87,26.512,26.512,26.512L256,426.666l206.426-24.753c14.642,0,26.512-11.87,26.512-26.512l0,0
	C488.938,360.759,477.068,348.889,462.426,348.889z"/>
<path style="fill:#993E29;" d="M89.574,401.913c-14.642,0-26.512-11.87-26.512-26.512l0,0c0-14.643,11.87-26.513,26.512-26.513
	L276,331.611l-20-1.854L49.574,348.888c-14.642,0-26.512,11.87-26.512,26.513l0,0c0,14.642,11.87,26.512,26.512,26.512L256,426.666
	l20-2.398L89.574,401.913z"/>
<path style="fill:#EB98A3;" d="M470.404,311.82L256,292.224L41.596,311.82c-10.236,0-18.534,8.298-18.534,18.534l0,0
	c0,10.236,8.298,18.534,18.534,18.534h428.808c10.236,0,18.534-8.298,18.534-18.534l0,0
	C488.938,320.118,480.64,311.82,470.404,311.82z"/>
<path style="fill:#FA7578;" d="M63.061,330.354L63.061,330.354c0-10.236,8.298-18.534,18.534-18.534L276,294.052l-20-1.828
	L41.596,311.82c-10.236,0-18.534,8.298-18.534,18.534l0,0c0,10.236,8.298,18.534,18.534,18.534h40
	C71.359,348.888,63.061,340.591,63.061,330.354z"/>
<path style="fill:#4CC7B3;" d="M470.404,274.751L256,258.249L41.596,274.751c-10.236,0-18.534,8.298-18.534,18.534l0,0
	c0,10.236,8.298,18.534,18.534,18.534h428.808c10.236,0,18.534-8.298,18.534-18.534l0,0
	C488.938,283.049,480.64,274.751,470.404,274.751z"/>
<path style="fill:#42AD9C;" d="M63.061,293.285L63.061,293.285c0-10.236,8.298-18.534,18.534-18.534L276,259.788l-20-1.539
	L41.596,274.751c-10.236,0-18.534,8.298-18.534,18.534l0,0c0,10.236,8.298,18.535,18.534,18.535h40
	C71.359,311.82,63.061,303.522,63.061,293.285z"/>
<g>
	<polygon style="fill:#F9545B;" points="194.198,274.751 256,329.758 317.801,274.751 256,245.63 	"/>
	<polygon style="fill:#F9545B;" points="51.875,274.751 113.676,329.758 175.478,274.751 113.676,245.63 	"/>
	<polygon style="fill:#F9545B;" points="460.125,274.751 398.323,329.758 336.522,274.751 398.323,245.63 	"/>
</g>
<path style="fill:#FEDD00;" d="M388.015,171.556h13.289c28.49,0,54.291,11.551,72.968,30.228
	c18.676,18.676,30.228,44.468,30.228,72.968H7.5c0-56.99,46.205-103.195,103.195-103.195h13.289l17.958,17.774l17.958-17.774h78.142
	L256,191.271l17.958-19.715H352.1l17.958,20.686L388.015,171.556z"/>
<g>
	<path style="fill:#E6BB00;" d="M126.8,174.343l-2.816-2.787h-13.289C53.705,171.556,7.5,217.761,7.5,274.751h40
		C47.5,225.987,81.331,185.125,126.8,174.343z"/>
	<path style="fill:#E6BB00;" d="M159.9,171.556v56.116c0,9.921-8.037,17.958-17.958,17.958s-17.958-8.037-17.958-17.958v-56.116
		H159.9z"/>
	<path style="fill:#E6BB00;" d="M388.015,171.556v56.116c0,9.921-8.037,17.958-17.958,17.958c-9.921,0-17.958-8.037-17.958-17.958
		v-56.116H388.015z"/>
	<path style="fill:#E6BB00;" d="M273.958,171.556v56.116c0,9.921-8.037,17.958-17.958,17.958c-9.921,0-17.958-8.037-17.958-17.958
		v-56.116H273.958z"/>
</g>
<path style="fill:#FEDD00;" d="M7.5,401.913L7.5,401.913c0,27.341,22.164,49.506,49.506,49.506h397.988
	c27.341,0,49.506-22.165,49.506-49.506l0,0H7.5z"/>
<path style="fill:#E6BB00;" d="M47.5,401.913L47.5,401.913h-40l0,0c0,27.341,22.164,49.506,49.506,49.506h40
	C69.664,451.419,47.5,429.255,47.5,401.913z"/>
<ellipse transform="matrix(0.5374 -0.8433 0.8433 0.5374 72.5734 353.6034)" style="fill:#4CC7B3;" cx="358.605" cy="110.649" rx="29.95" ry="25.48"/>
<path style="fill:#42AD9C;" d="M380.115,104.329c-8.889,13.95-25.716,19.128-37.584,11.566c-4.261-2.715-7.296-6.707-9.035-11.35
	c-4.101,12.17-0.749,25.116,9.035,31.35c11.868,7.563,28.695,2.384,37.584-11.566c5.697-8.942,6.743-19.313,3.64-27.602
	C382.881,99.321,381.677,101.879,380.115,104.329z"/>
<path d="M7.5,282.251h10.523c-1.576,3.353-2.461,7.091-2.461,11.035c0,7.248,2.979,13.81,7.774,18.534
	c-4.795,4.725-7.774,11.287-7.774,18.535c0,8.44,4.04,15.951,10.284,20.711c-6.338,6.181-10.284,14.804-10.284,24.335
	c0,7.037,2.148,13.582,5.823,19.012H7.5c-4.142,0-7.5,3.358-7.5,7.5c0,31.434,25.573,57.006,57.006,57.006h397.988
	c31.433,0,57.006-25.572,57.006-57.006c0-4.142-3.358-7.5-7.5-7.5h-13.885c3.675-5.431,5.823-11.976,5.823-19.012
	c0-9.531-3.946-18.154-10.284-24.335c6.244-4.76,10.284-12.272,10.284-20.712c0-7.247-2.979-13.81-7.774-18.534
	c4.795-4.725,7.774-11.287,7.774-18.534c0-3.943-0.886-7.682-2.461-11.035H504.5c4.142,0,7.5-3.358,7.5-7.5
	c0-29.564-11.515-57.361-32.424-78.271c-20.909-20.909-48.706-32.424-78.271-32.424h-67.823l11.87-18.628
	c-0.554,1.904,18.466,0.175,19.295-0.08c8.799-2.708,16.539-8.741,21.794-16.988s7.453-17.812,6.19-26.93
	c-0.95-6.859-3.759-12.875-8.076-17.527l12.292-19.291c2.226-3.494,1.198-8.129-2.295-10.355c-3.492-2.225-8.129-1.199-10.355,2.295
	l-12.292,19.291c-6.041-1.948-12.681-1.952-19.299,0.085c-8.799,2.708-16.539,8.741-21.793,16.988
	c-9.522,14.944-8.324,33.345,1.896,44.442l-17.012,26.699h-205c-22.359,0-43.91,6.641-62.321,19.205
	c-3.421,2.335-4.302,7.001-1.968,10.423c2.335,3.421,7.001,4.302,10.423,1.967c15.909-10.857,34.536-16.595,53.866-16.595h5.789
	v48.616c0,14.038,11.42,25.458,25.458,25.458s25.458-11.42,25.458-25.458v-48.616h63.142v48.616
	c0,14.038,11.42,25.458,25.458,25.458c14.038,0,25.458-11.42,25.458-25.458v-48.616h63.14v48.616
	c0,14.038,11.42,25.458,25.458,25.458s25.458-11.42,25.458-25.458v-48.616h5.789c25.558,0,49.588,9.955,67.665,28.031
	c16.296,16.297,25.992,37.433,27.743,60.165H15.297c1.522-19.212,8.853-37.693,21.024-52.708c2.608-3.218,2.115-7.941-1.103-10.549
	c-3.219-2.609-7.941-2.115-10.549,1.103C8.761,224.72,0,249.458,0,274.751C0,278.893,3.358,282.251,7.5,282.251z M454.994,443.919
	H57.006c-20.603,0-37.79-14.909-41.335-34.506H496.33C492.784,429.01,475.598,443.919,454.994,443.919z M343.462,100.974
	c5.307-8.329,17.506-15.465,27.227-9.272c9.65,6.147,8.516,20.101,3.102,28.597c-5.448,8.552-17.54,15.445-27.229,9.271
	C338.201,124.242,336.81,111.414,343.462,100.974z M152.4,227.672c0,5.767-4.691,10.458-10.458,10.458s-10.458-4.691-10.458-10.458
	v-48.616H152.4V227.672z M266.458,227.672c0,5.767-4.691,10.458-10.458,10.458s-10.458-4.691-10.458-10.458v-48.616h20.916V227.672z
	 M380.516,227.672c0,5.767-4.691,10.458-10.458,10.458s-10.458-4.691-10.458-10.458v-48.616h20.916V227.672z M49.572,356.388
	h412.856c10.482,0.001,19.011,8.53,19.011,19.012c0,10.483-8.529,19.012-19.014,19.012H49.574c-10.483,0-19.012-8.529-19.012-19.012
	C30.562,364.918,39.09,356.389,49.572,356.388z M481.438,330.354c0,6.084-4.95,11.034-11.034,11.034H41.596
	c-6.084,0-11.035-4.95-11.035-11.035s4.95-11.034,11.035-11.034h49.072c0,0,17.994,16.016,18.022,16.041
	c2.743,2.441,7.224,2.439,9.973,0l18.022-16.041h96.307c0,0,18.008,16.028,18.022,16.041c2.76,2.457,7.206,2.455,9.973,0
	l18.022-16.041h96.307c0,0,18.009,16.029,18.022,16.041c2.758,2.454,7.209,2.452,9.973,0l18.022-16.041h49.073
	C476.489,319.319,481.438,324.27,481.438,330.354z M191.344,282.251l24.795,22.069h-62.602l24.795-22.069H191.344z M333.667,282.251
	l24.795,22.069H295.86l24.795-22.069H333.667z M481.438,293.285c0,6.084-4.95,11.034-11.034,11.034h-32.22l24.795-22.069h7.425
	C476.489,282.251,481.438,287.201,481.438,293.285z M440.418,282.251l-42.095,37.466l-42.094-37.466H440.418z M298.094,282.251
	L256,319.717l-42.094-37.466L298.094,282.251L298.094,282.251z M155.771,282.251l-42.094,37.466l-42.094-37.466H155.771z
	 M49.021,282.251l24.795,22.069h-32.22c-6.084,0-11.035-4.95-11.035-11.034s4.951-11.035,11.037-11.035H49.021z"/>
<g>
</g>
<g>
</g>
<g>
</g>
<g>
</g>
<g>
</g>
<g>
</g>
<g>
</g>
<g>
</g>
<g>
</g>
<g>
</g>
<g>
</g>
<g>
</g>
<g>
</g>
<g>
</g>
<g>
</g>
</svg>
