<?xml version="1.0" encoding="iso-8859-1"?>
<!-- Generator: Adobe Illustrator 19.0.0, SVG Export Plug-In . SVG Version: 6.00 Build 0)  -->
<svg version="1.1" id="Capa_1" xmlns="http://www.w3.org/2000/svg" xmlns:xlink="http://www.w3.org/1999/xlink" x="0px" y="0px"
	 viewBox="0 0 512 512" style="enable-background:new 0 0 512 512;" xml:space="preserve">
<path style="fill:#E6B25B;" d="M449.003,7.5H62.996C32.346,7.5,7.5,32.347,7.5,62.997v386.007c0,30.65,24.847,55.497,55.497,55.497
	h386.007c30.65,0,55.497-24.847,55.497-55.497V62.997C504.5,32.347,479.653,7.5,449.003,7.5z"/>
<path style="fill:#BF944C;" d="M31.5,449.003V62.997C31.5,32.347,56.346,7.5,86.996,7.5h-24C32.346,7.5,7.5,32.347,7.5,62.997
	v386.007c0,30.65,24.847,55.497,55.497,55.497h24C56.346,504.5,31.5,479.653,31.5,449.003z"/>
<path style="fill:#FEE333;" d="M423.717,55.904H88.283c-17.882,0-32.379,14.496-32.379,32.379v335.434
	c0,17.882,14.496,32.379,32.379,32.379h335.434c17.882,0,32.379-14.496,32.379-32.379V88.283
	C456.096,70.401,441.599,55.904,423.717,55.904z"/>
<path style="fill:#FECE00;" d="M95.904,423.717V88.283c0-17.882,14.496-32.379,32.379-32.379h-40
	c-17.882,0-32.379,14.496-32.379,32.379v335.434c0,17.882,14.496,32.379,32.379,32.379h40
	C110.4,456.096,95.904,441.6,95.904,423.717z"/>
<path d="M449.003,0H62.997C28.26,0,0,28.26,0,62.997v386.007C0,483.74,28.26,512,62.997,512h386.007
	C483.74,512,512,483.74,512,449.003V62.997C512,28.26,483.74,0,449.003,0z M497,449.003C497,475.469,475.469,497,449.003,497H62.997
	C36.531,497,15,475.469,15,449.003V62.997C15,36.531,36.531,15,62.997,15h386.007C475.469,15,497,36.531,497,62.997V449.003z"/>
<path d="M423.717,48.404H88.283c-21.989,0-39.878,17.889-39.878,39.878v335.435c0,21.989,17.889,39.878,39.878,39.878h335.435
	c21.989,0,39.878-17.889,39.878-39.878V88.283C463.596,66.293,445.707,48.404,423.717,48.404z M196.801,315.199V196.801h118.397
	v118.397H196.801V315.199z M315.199,330.199v118.397H196.801V330.199H315.199z M63.404,196.801h118.397v118.397H63.404V196.801z
	 M196.801,181.801V63.404h118.397v118.397H196.801z M330.199,196.801h118.397v118.397H330.199V196.801z M448.596,88.283v93.519
	H330.199V63.404h93.519C437.435,63.404,448.596,74.565,448.596,88.283z M88.283,63.404h93.519v118.397H63.404V88.283
	C63.404,74.565,74.565,63.404,88.283,63.404z M63.404,423.717v-93.519h118.397v118.397H88.283
	C74.565,448.596,63.404,437.435,63.404,423.717z M423.717,448.596h-93.519V330.199h118.397v93.519
	C448.596,437.435,437.435,448.596,423.717,448.596z"/>
<path d="M150.228,231.855c-4.142,0-7.5,3.358-7.5,7.5v19.143c0,4.142,3.358,7.5,7.5,7.5s7.5-3.358,7.5-7.5v-19.143
	C157.728,235.213,154.37,231.855,150.228,231.855z"/>
<path d="M361.772,231.855c-4.142,0-7.5,3.358-7.5,7.5v19.143c0,4.142,3.358,7.5,7.5,7.5s7.5-3.358,7.5-7.5v-19.143
	C369.272,235.213,365.914,231.855,361.772,231.855z"/>
<path d="M293.011,252.807c-3.119-2.726-7.857-2.408-10.583,0.711c-6.458,7.389-16.091,11.627-26.428,11.627
	s-19.97-4.238-26.429-11.627c-2.726-3.119-7.464-3.437-10.583-0.711s-3.437,7.464-0.711,10.583
	c9.308,10.648,23.057,16.755,37.723,16.755c14.665,0,28.415-6.107,37.722-16.755C296.448,260.271,296.13,255.533,293.011,252.807z"
	/>
<g>
</g>
<g>
</g>
<g>
</g>
<g>
</g>
<g>
</g>
<g>
</g>
<g>
</g>
<g>
</g>
<g>
</g>
<g>
</g>
<g>
</g>
<g>
</g>
<g>
</g>
<g>
</g>
<g>
</g>
</svg>
