<svg id="Layer_1" fill="#fff" enable-background="new 0 0 516 516" height="50" viewBox="0 0 516 516" width="50" xmlns="http://www.w3.org/2000/svg"><path d="m514 260c0 68.38-26.629 132.668-74.98 181.02-48.353 48.351-112.64 74.98-181.02 74.98-68.228 0-132.572-27.397-181.182-77.145-23.427-23.976-41.84-51.788-54.729-82.664-13.33-31.935-20.089-65.644-20.089-100.191 0-11.046 8.954-20 20-20s20 8.954 20 20c0 121.309 96.897 220 216 220s216-96.897 216-216c0-121.309-96.897-220-216-220-57.404 0-111.88 23.748-153.392 66.87-7.661 7.958-20.321 8.199-28.279.538-7.958-7.66-8.198-20.321-.538-28.278 23.644-24.562 51.089-43.925 81.573-57.553 32.027-14.317 65.886-21.577 100.636-21.577 68.228 0 132.572 27.397 181.182 77.145 23.427 23.976 41.84 51.788 54.729 82.664 13.33 31.935 20.089 65.644 20.089 100.191zm-452-77h57c11.046 0 20-8.954 20-20s-8.954-20-20-20h-57c-11.028 0-20-8.972-20-20v-57c0-11.046-8.954-20-20-20s-20 8.954-20 20v57c0 33.084 26.916 60 60 60zm148.208 160.39c-15.785-8.976-25.208-25.135-25.208-43.225v-90.33c0-18.09 9.423-34.249 25.208-43.225 15.909-9.047 34.794-8.862 50.518.492l75.915 45.165c15.253 9.076 24.359 25.05 24.359 42.733s-9.106 33.657-24.36 42.732l-75.915 45.165c-8.006 4.763-16.834 7.148-25.669 7.148-8.516.001-17.04-2.215-24.848-6.655zm14.792-43.225c0 4.892 3.12 7.396 4.98 8.453 1.556.886 5.677 2.65 10.293-.098l75.915-45.165c4.187-2.49 4.812-6.304 4.812-8.355s-.625-5.865-4.812-8.355l-75.915-45.165c-1.847-1.1-3.615-1.477-5.17-1.477-2.333 0-4.188.848-5.123 1.379-1.86 1.058-4.98 3.562-4.98 8.453z"/></svg>