<?xml version="1.0" encoding="iso-8859-1"?>
<!-- Generator: Adobe Illustrator 19.0.0, SVG Export Plug-In . SVG Version: 6.00 Build 0)  -->
<svg version="1.1" id="Capa_1" xmlns="http://www.w3.org/2000/svg" xmlns:xlink="http://www.w3.org/1999/xlink" x="0px" y="0px"
	 viewBox="0 0 512.001 512.001" style="enable-background:new 0 0 512.001 512.001;" xml:space="preserve">
<path style="fill:#993E29;" d="M491.501,124.372L387.628,20.499c-17.347-17.347-45.473-17.347-62.82,0L147.871,197.435
	l166.693,166.693l176.937-176.937C508.848,169.844,508.848,141.719,491.501,124.372z"/>
<g>
	<path style="fill:#A8503C;" d="M332.698,157.494l74.152-74.152L365.819,42.31c-5.294-5.294-13.908-5.294-19.201,0l-64.553,64.553
		L332.698,157.494z"/>
	<path style="fill:#A8503C;" d="M354.507,179.303l50.631,50.631l64.553-64.553c5.294-5.294,5.294-13.907,0-19.2l-41.032-41.032
		L354.507,179.303z"/>
	
		<rect x="215.39" y="139.746" transform="matrix(-0.7071 -0.7071 0.7071 -0.7071 295.6151 499.1832)" style="fill:#A8503C;" width="71.603" height="97.244"/>
	
		<rect x="275" y="225.018" transform="matrix(-0.7071 0.7071 -0.7071 -0.7071 736.8835 216.4117)" style="fill:#A8503C;" width="97.244" height="71.603"/>
</g>
<path style="fill:#55C2E3;" d="M131.485,213.822L20.499,324.808c-17.348,17.348-17.348,45.473,0,62.82l103.873,103.873
	c17.347,17.347,45.473,17.347,62.82,0l110.986-110.986L131.485,213.822z"/>
<path style="fill:#45B6D9;" d="M269.893,352.23L158.905,463.216c-17.348,17.348-45.473,17.348-62.82,0l28.285,28.285
	c17.347,17.347,45.473,17.347,62.82,0l110.986-110.986L269.893,352.23z"/>
<path style="fill:#EEECED;" d="M335.571,326.633L185.366,176.429c-8.543-8.543-22.395-8.543-30.938,0l-38.798,38.798
	c-11.719,11.719-6.658,31.704,9.224,36.436c7.077,2.108,12.614,7.644,14.722,14.722l7.1,23.838
	c2.108,7.077,7.644,12.614,14.722,14.722l23.838,7.1c7.077,2.108,12.614,7.644,14.722,14.722l7.1,23.838
	c2.108,7.077,7.644,12.614,14.722,14.722l23.838,7.1c7.077,2.108,12.614,7.644,14.722,14.722
	c4.731,15.883,24.717,20.943,36.436,9.224l38.798-38.798C344.114,349.029,344.114,335.177,335.571,326.633z"/>
<path style="fill:#D4D2D3;" d="M335.571,326.633l-28.285-28.285c8.543,8.543,8.543,22.395,0,30.938l-38.798,38.798
	c-5.219,5.219-12.077,7.102-18.497,6.191c4.943,2.746,8.697,7.332,10.347,12.87c4.731,15.883,24.717,20.943,36.436,9.224
	l38.798-38.798C344.114,349.029,344.114,335.177,335.571,326.633z"/>
<path d="M109.479,319.712l-6.535,6.535c-2.929,2.929-2.929,7.678,0,10.606c2.819,2.819,7.675,2.931,10.606,0l6.535-6.535
	c2.929-2.929,2.929-7.678,0-10.606C117.156,316.784,112.407,316.784,109.479,319.712z"/>
<path d="M181.694,391.927l-6.535,6.535c-2.929,2.929-2.929,7.678,0,10.606c2.819,2.819,7.677,2.93,10.607,0l6.535-6.535
	c2.929-2.929,2.929-7.678,0-10.606C189.371,388.998,184.622,388.998,181.694,391.927z"/>
<path d="M133.923,349.211c-4.146-0.28-7.708,2.848-7.986,6.98c-0.533,7.929,2.487,15.803,8.284,21.6
	c5.638,5.639,13.614,8.825,21.601,8.285c4.133-0.277,7.258-3.853,6.98-7.986c-0.278-4.132-3.847-7.26-7.986-6.98
	c-3.607,0.245-7.25-1.188-9.987-3.925c-2.737-2.737-4.167-6.377-3.925-9.987C141.182,353.064,138.056,349.488,133.923,349.211z"/>
<path d="M371.135,37.006c-8.217-8.217-21.589-8.218-29.808,0c0,0-64.493,64.493-64.553,64.553c-2.909,2.909-2.904,7.704,0,10.606
	c0,0,50.632,50.631,50.633,50.632c2.908,2.907,7.692,2.913,10.606-0.001l74.152-74.152c2.929-2.929,2.929-7.678,0-10.606
	L371.135,37.006z M332.71,146.886l-40.025-40.025c0,0,59.211-59.211,59.25-59.25c2.346-2.346,6.246-2.348,8.594,0l35.728,35.728
	L332.71,146.886z"/>
<path d="M349.216,184.607l50.631,50.631c2.895,2.895,7.712,2.894,10.606,0l64.553-64.552c8.217-8.218,8.217-21.59,0-29.807
	c0,0-40.935-40.935-41.032-41.032c-2.873-2.873-7.743-2.865-10.607,0L349.215,174C346.287,176.928,346.287,181.678,349.216,184.607z
	 M428.672,115.757l35.728,35.729c2.369,2.369,2.369,6.224,0,8.593l-59.25,59.249l-40.024-40.024L428.672,115.757z"/>
<path d="M392.944,15.196c-20.243-20.244-53.183-20.245-73.427,0L299.622,35.09c-2.929,2.929-2.929,7.677,0,10.606
	c2.929,2.929,7.678,2.929,10.606,0l19.895-19.894c14.396-14.396,37.818-14.396,52.213,0L486.21,129.674
	c14.396,14.396,14.395,37.818,0,52.213c0,0-142.588,142.588-142.591,142.591c0.145-0.149-10.994-11.412-10.994-11.412l56.021-56.021
	c2.929-2.929,2.929-7.678,0-10.607l-50.631-50.63c-2.929-2.93-7.678-2.929-10.606,0l-56.021,56.02l-11.203-11.203
	c0,0,55.904-55.904,56.021-56.021c2.909-2.909,2.909-7.699,0-10.607l-50.632-50.631c-2.929-2.929-7.678-2.929-10.607,0l-56.02,56.02
	l-8.262-8.262c-0.953-0.953-3.119-2.706-3.15-2.729L289.016,66.911c2.929-2.929,2.929-7.678,0-10.606
	c-2.929-2.929-7.678-2.929-10.607,0l-106.32,106.319c-8.231-0.607-16.672,2.221-22.952,8.501l-38.798,38.798
	c-6.174,6.174-9.186,14.492-8.519,22.97l-86.612,86.612C5.401,329.312,0,342.35,0,356.219c0,13.869,5.401,26.907,15.208,36.714
	l103.873,103.873c10.122,10.122,23.418,15.183,36.714,15.183s26.591-5.061,36.714-15.183l17.746-17.746
	c2.929-2.929,2.929-7.678,0-10.607c-2.929-2.929-7.678-2.929-10.607,0l-17.746,17.746c-14.396,14.396-37.818,14.396-52.213,0
	L25.814,382.325c-6.973-6.973-10.814-16.245-10.814-26.106s3.84-19.133,10.814-26.106l81.764-81.763
	c0.209,0.281,0.44,0.542,0.659,0.814c3.665,4.565,8.85,8.006,14.489,9.686c4.603,1.372,8.306,5.082,9.674,9.674
	c0,0,7.095,23.822,7.1,23.837c2.778,9.328,10.445,16.992,19.769,19.769l23.838,7.1c4.667,1.39,8.284,5.006,9.674,9.674
	c0,0,7.098,23.831,7.1,23.838c2.765,9.282,10.291,16.946,19.769,19.769l23.838,7.1c4.618,1.376,8.298,5.056,9.674,9.674
	c1.778,5.969,5.495,11.418,10.501,15.147l-42.803,42.803c-2.929,2.929-2.929,7.678,0,10.606c2.929,2.929,7.678,2.929,10.607,0
	l47.648-47.648c8.508,0.67,16.942-2.491,22.973-8.522c0,0,38.79-38.79,38.798-38.798c5.973-5.973,9.133-14.543,8.515-22.966
	l147.414-147.415c20.244-20.244,20.245-53.183,0-73.427L392.944,15.196z M332.71,211.72l40.024,40.024l-50.716,50.716
	l-40.025-40.025L332.71,211.72z M260.268,139.278l40.025,40.025l-50.717,50.717l-40.025-40.025L260.268,139.278z M330.28,352.269
	c0,0-38.787,38.787-38.798,38.798c-7.544,7.544-20.898,4.136-23.943-6.061c-2.782-9.318-10.438-16.991-19.769-19.769l-23.837-7.1
	c-4.667-1.39-8.284-5.006-9.674-9.674c-2.513-8.436-4.643-17.115-7.618-25.398c-0.024-0.066-0.043-0.135-0.067-0.202
	c-0.024-0.065-0.053-0.126-0.077-0.191c-3.22-8.586-10.231-15.172-19.106-17.816c0,0-23.798-7.088-23.837-7.1
	c-4.564-1.36-8.318-5.119-9.674-9.674c0,0-7.096-23.827-7.1-23.838c-2.766-9.286-10.362-16.967-19.769-19.769
	c-10.077-3.001-13.514-16.492-6.062-23.943c0,0,38.751-38.751,38.798-38.798c5.33-5.33,14.975-5.352,20.331,0
	c0,0,150.176,150.176,150.205,150.205C335.755,337.412,335.771,346.778,330.28,352.269z"/>
<g>
</g>
<g>
</g>
<g>
</g>
<g>
</g>
<g>
</g>
<g>
</g>
<g>
</g>
<g>
</g>
<g>
</g>
<g>
</g>
<g>
</g>
<g>
</g>
<g>
</g>
<g>
</g>
<g>
</g>
</svg>
