<?xml version="1.0" encoding="iso-8859-1"?>
<!-- Generator: Adobe Illustrator 19.0.0, SVG Export Plug-In . SVG Version: 6.00 Build 0)  -->
<svg version="1.1" id="Capa_1" xmlns="http://www.w3.org/2000/svg" xmlns:xlink="http://www.w3.org/1999/xlink" x="0px" y="0px"
	 viewBox="0 0 512 512" style="enable-background:new 0 0 512 512;" xml:space="preserve">
<g>
	<path style="fill:#FB8D4B;" d="M24.897,359.505c5.654,82.555,83.686,156.063,127.79,143.622
		c44.104-12.439,22.461-50.185,32.717-104.254L24.897,359.505z"/>
	<path style="fill:#FB8D4B;" d="M359.503,24.898c82.555,5.654,156.063,83.686,143.622,127.79
		c-12.439,44.104-50.185,22.461-104.254,32.717L359.503,24.898z"/>
</g>
<path style="fill:#EB8446;" d="M32.962,398.765c26.643,12.608,68.153,25.25,132.291,31.788c5.739,0.585,11.443,0.459,17.018-0.298
	c0.256-9.71,1.01-20.197,3.133-31.383L24.897,359.505C25.817,372.943,28.665,386.138,32.962,398.765z"/>
<path style="fill:#E86D24;" d="M50.907,200.049c0,0-76.9,122.136-26.011,159.455c37.071,27.186,107.749,37.568,143.399,41.202
	c16.317,1.663,32.147-6.401,40.205-20.687c7.244-12.842,14.83-32.241,19.103-60.751L50.907,200.049z"/>
<path style="fill:#EB8446;" d="M398.764,32.965c-12.627-4.297-25.822-7.145-39.26-8.066l39.368,160.507
	c11.187-2.122,21.674-2.877,31.383-3.133c0.757-5.574,0.882-11.278,0.297-17.018C424.013,101.117,411.372,59.608,398.764,32.965z"/>
<path style="fill:#E86D24;" d="M200.048,50.908c0,0,122.136-76.9,159.455-26.011c27.186,37.071,37.568,107.749,41.202,143.399
	c1.663,16.316-6.401,32.147-20.686,40.205c-12.842,7.244-32.241,14.83-60.751,19.103L200.048,50.908z"/>
<g>
	<path style="fill:#D96622;" d="M35.108,246.007c20.925,16.191,61.928,46.825,101.451,70.095
		c26.878,15.824,57.856,31.571,84.57,33.104c2.53-8.642,4.77-18.552,6.476-29.938L50.907,200.049c0,0-10.865,17.258-21.725,40.779
		C31.038,242.653,33.012,244.386,35.108,246.007z"/>
	<path style="fill:#D96622;" d="M316.102,136.56c-23.271-39.523-53.906-80.527-70.095-101.451c-1.621-2.095-3.354-4.069-5.179-5.924
		c-23.522,10.859-40.779,21.725-40.779,21.725l119.221,176.698c11.385-1.706,21.296-3.945,29.938-6.476
		C347.672,194.416,331.927,163.437,316.102,136.56z"/>
</g>
<path style="fill:#FB8D4B;" d="M191.276,40.026c-23.78,2.346-64.854,12.13-101.987,49.265s-46.918,78.208-49.265,101.987
	c-1.179,11.951,3.944,23.653,13.442,31.002c40.802,31.571,159.266,119.021,186.299,91.989l74.502-74.502
	C341.3,212.734,253.851,94.27,222.279,53.467C214.929,43.97,203.228,38.847,191.276,40.026z"/>
<path d="M135.961,213.276c-2.929-2.93-7.678-2.93-10.606,0c-2.929,2.929-2.929,7.677,0,10.606c0,0,7.959,7.958,7.959,7.959
	c2.765,2.765,7.612,2.995,10.606,0c2.929-2.929,2.929-7.677,0-10.606L135.961,213.276z"/>
<path d="M223.923,125.315c-2.929-2.929-7.678-2.929-10.606,0c-2.929,2.929-2.929,7.678,0,10.606c0,0,7.955,7.955,7.96,7.96
	c2.832,2.832,7.704,2.903,10.606,0c2.929-2.929,2.929-7.678,0-10.607L223.923,125.315z"/>
<path d="M195.416,161.72c-4.133,0.278-7.258,3.854-6.98,7.986c0.327,4.868-1.589,9.764-5.257,13.431
	c-3.668,3.667-8.559,5.582-13.432,5.256c-4.125-0.275-7.708,2.847-7.985,6.98c-0.361,5.383,4.325,8.056,9.058,8.056
	c8.473,0,16.746-3.466,22.966-9.686c6.729-6.729,10.233-15.856,9.616-25.045C203.124,164.568,199.541,161.444,195.416,161.72z"/>
<path d="M211.221,35.646c-6.418-2.743-13.51-3.884-20.727-3.171c-22.843,2.254-67.062,11.933-106.554,51.425
	c-39.492,39.493-49.171,83.712-51.426,106.554c-0.712,7.213,0.43,14.305,3.172,20.725c-20.528,37.316-57.87,118.186-18.03,152.088
	c5.14,56.643,41.57,106.11,76.008,130.372c17.127,12.066,39.672,22.64,61.012,16.621c35.148-9.913,35.051-34.956,34.939-63.953
	c-0.049-12.549-0.096-26.642,2.4-42.039c9.525-4.136,17.677-11.258,22.973-20.648c8.807-15.611,15.229-35.098,19.127-57.976
	c4.324-1.156,7.956-3.206,10.908-6.158l74.502-74.502c2.968-2.968,5.027-6.602,6.201-10.915c22.86-3.898,42.332-10.318,57.933-19.12
	c9.392-5.298,16.531-13.446,20.666-22.976c15.391-2.494,29.475-2.446,42.021-2.397c28.998,0.114,54.04,0.21,63.953-34.939
	c4.86-17.232-1.042-38.899-16.621-61.012c-24.261-34.437-73.729-70.868-130.372-76.008
	C329.406-22.223,248.538,15.118,211.221,35.646z M176.29,408.191c-1.769,14.036-1.719,26.716-1.674,38.172
	c0.118,30.331-0.761,42.9-24.011,49.459c-12.615,3.559-30.221-1.708-48.302-14.446c-29.085-20.491-59.734-60.535-68.082-107.221
	c0.345,0.188,0.704,0.368,1.053,0.555c31.474,16.851,67.779,24.392,102.777,29.669c10.488,1.582,21.227,3.315,31.82,3.885
	C170.434,408.293,176.249,408.521,176.29,408.191z M234.417,308.878c-3.663,3.663-10.32,3.151-14.98,2.515
	c-13.218-1.806-25.961-7.669-37.832-13.517c-25.51-12.565-49.545-28.221-72.885-44.399c-3.271-2.267-8.159-1.393-10.437,1.892
	c-2.36,3.404-1.513,8.077,1.892,10.437c25.659,17.787,52.248,35.155,80.627,48.322c13.878,6.438,25.683,10.404,35.526,11.924
	c0.808,0.125,1.618,0.243,2.43,0.339c-3.636,19.74-9.285,36.482-16.831,49.859c-7.353,13.035-21.479,18.245-35.836,16.604
	c-45.56-4.887-98.759-11.586-136.801-39.483c-15.068-11.05-18.311-33.165-9.634-65.731c6.182-23.206,17.218-46.652,25.613-62.6
	c1.128,1.092,2.324,2.127,3.565,3.087c8.624,6.673,17.514,13.368,26.419,19.897c3.255,2.386,8.089,1.645,10.484-1.614
	c2.449-3.341,1.726-8.034-1.615-10.483c-5.848-4.288-11.677-8.645-17.43-13.016c-10.315-7.835-20.659-16.677-19.247-30.98
	c2.057-20.849,10.913-61.229,47.104-97.42s76.571-45.046,97.42-47.104c8.285-0.818,16.621,2.338,22.387,8.324
	c5.933,6.16,10.536,13.427,15.628,20.261c32.583,43.728,63.829,91.74,76.234,124.488c2.164,5.712,4.091,11.81,4.982,17.968
	c0.717,4.951,1.663,11.99-2.281,15.933C308.918,234.377,234.559,308.736,234.417,308.878z M376.288,201.884
	c-13.356,7.535-30.071,13.177-49.777,16.815c-1.478-12.664-7.364-28.86-17.734-48.965c-20.712-40.52-54.968-87.708-79.45-119.437
	c-1.349-1.75-2.711-3.483-4.25-5.072c15.947-8.395,39.395-19.431,62.6-25.613c32.565-8.676,54.68-5.435,65.731,9.634
	c27.573,37.597,34.637,91.627,39.483,136.802C394.437,180.445,389.347,194.518,376.288,201.884z M481.415,102.265
	c12.738,18.082,18.004,35.687,14.446,48.302c-6.557,23.249-19.123,24.133-49.459,24.01c-11.456-0.045-24.135-0.094-38.172,1.674
	c0.014-0.178,0.018-0.357,0.03-0.536c0.463-6.921-0.714-13.984-1.551-20.842c-1.246-10.207-2.739-20.385-4.516-30.513
	c-5.098-29.042-12.11-58.507-25.334-85.028c-0.861-1.73-1.743-3.453-2.667-5.15C420.882,42.529,460.925,73.18,481.415,102.265z"/>
<g>
</g>
<g>
</g>
<g>
</g>
<g>
</g>
<g>
</g>
<g>
</g>
<g>
</g>
<g>
</g>
<g>
</g>
<g>
</g>
<g>
</g>
<g>
</g>
<g>
</g>
<g>
</g>
<g>
</g>
</svg>
