<?xml version="1.0" encoding="iso-8859-1"?>
<!-- Generator: Adobe Illustrator 19.0.0, SVG Export Plug-In . SVG Version: 6.00 Build 0)  -->
<svg version="1.1" id="Capa_1" xmlns="http://www.w3.org/2000/svg" xmlns:xlink="http://www.w3.org/1999/xlink" x="0px" y="0px"
	 viewBox="0 0 511.999 511.999" style="enable-background:new 0 0 511.999 511.999;" xml:space="preserve">
<path style="fill:#EB98A3;" d="M455.89,237.792l-48.872,20.124h-33.061l-37.373-20.124h-25.874l-54.708,24.436l-48.786-24.436
	H181.34l-53.184,24.436l-56.059-24.436H49.098l-15.484,26.862l19.404,44.278c11.447,31.774,41.593,52.956,75.366,52.956h255.231
	c33.773,0,63.919-21.182,75.366-52.956l19.404-44.278v-19.675L455.89,237.792z"/>
<path style="fill:#E6B25B;" d="M462.903,237.792c-30.186-40.248-93.433-87.682-206.902-87.682S79.284,197.545,49.098,237.792
	l79.058,24.436l61.719-24.436l66.125,24.436l66.124-24.436l84.892,24.436L462.903,237.792z"/>
<path style="fill:#CC9E51;" d="M89.099,237.792c28.364-37.818,85.922-81.978,186.902-87.173c-6.488-0.334-13.15-0.51-20-0.51
	c-113.47,0-176.717,47.435-206.902,87.683l79.058,24.436l17.537-6.943L89.099,237.792z"/>
<path style="fill:#FA7578;" d="M407.016,257.916h-33.061l-37.373-20.124h-25.873l-54.708,24.436l-48.786-24.436H181.34
	l-53.184,24.436l-56.059-24.436H49.098l-15.484,26.862l10.098,23.042c1.309-0.69,2.587-1.448,3.828-2.281
	c2.949-1.978,6.35-3.023,9.835-3.023c3.485,0,6.887,1.046,9.834,3.023c16.785,11.26,36.278,17.211,56.373,17.211
	s39.588-5.951,56.374-17.21c2.949-1.978,6.35-3.023,9.835-3.023s6.886,1.045,9.834,3.023c16.786,11.259,36.279,17.21,56.374,17.21
	c20.094,0,39.587-5.951,56.375-17.211c2.947-1.978,6.347-3.022,9.832-3.022s6.886,1.045,9.835,3.023
	c16.787,11.261,36.281,17.212,56.375,17.21c20.097-0.001,39.59-5.953,56.37-17.209c2.95-1.979,6.352-3.024,9.837-3.024
	c3.485,0,6.886,1.045,9.833,3.022c1.241,0.833,2.521,1.592,3.83,2.283l10.098-23.043V244.98l-22.498-7.187L407.016,257.916z"/>
<path style="fill:#FDC464;" d="M388.417,277.626c-14.778,0.001-29.552-4.323-42.446-12.972c-14.435-9.682-33.089-9.682-47.522,0
	c-25.786,17.297-59.108,17.297-84.894,0c-14.435-9.682-33.088-9.682-47.523,0c-25.786,17.297-59.108,17.297-84.892,0
	c-14.436-9.682-33.09-9.682-47.524,0c-7.692,5.159-18.111,3.106-23.27-4.586c-5.159-7.692-3.107-18.11,4.585-23.269
	c25.785-17.297,59.107-17.297,84.892,0c14.435,9.682,33.089,9.681,47.524,0c25.785-17.296,59.106-17.296,84.892,0
	c14.434,9.682,33.089,9.683,47.524,0c25.783-17.297,59.106-17.297,84.892,0c14.435,9.682,33.089,9.684,47.524,0
	c25.785-17.295,59.106-17.297,84.891,0c7.693,5.159,9.745,15.577,4.586,23.269c-5.159,7.694-15.58,9.745-23.269,4.586
	c-14.433-9.682-33.087-9.682-47.524,0C417.973,273.302,403.192,277.626,388.417,277.626z"/>
<path d="M189.868,294.151c-4.142,0-7.5,3.358-7.5,7.5v11.968c0,4.142,3.358,7.5,7.5,7.5c4.142,0,7.5-3.358,7.5-7.5v-11.968
	C197.368,297.509,194.01,294.151,189.868,294.151z"/>
<path d="M322.118,294.151c-4.142,0-7.5,3.358-7.5,7.5v11.968c0,4.142,3.358,7.5,7.5,7.5c4.142,0,7.5-3.358,7.5-7.5v-11.968
	C329.618,297.509,326.261,294.151,322.118,294.151z"/>
<path d="M280.982,307.945c-3.119-2.727-7.857-2.408-10.583,0.71c-3.504,4.009-8.755,6.308-14.405,6.308
	c-5.651,0-10.901-2.299-14.405-6.308c-2.726-3.118-7.464-3.437-10.583-0.711c-3.118,2.726-3.437,7.464-0.711,10.583
	c6.353,7.268,15.72,11.436,25.699,11.436c9.979,0,19.346-4.168,25.699-11.436C284.419,315.409,284.1,310.671,280.982,307.945z"/>
<path d="M263.494,197.776v-19.167c0-4.142-3.358-7.5-7.5-7.5c-4.142,0-7.5,3.358-7.5,7.5v19.167c0,4.142,3.358,7.5,7.5,7.5
	C260.136,205.276,263.494,201.918,263.494,197.776z"/>
<path d="M193.388,205.277c3.401,0,6.482-2.33,7.294-5.784c2.034-8.642,8.288-15.636,8.447-15.813
	c2.794-3.044,2.6-7.778-0.438-10.583c-3.044-2.81-7.789-2.62-10.598,0.424c-0.368,0.398-9.039,9.9-12.012,22.536
	C185.002,200.647,188.669,205.281,193.388,205.277z"/>
<path d="M318.598,205.277c4.768,0,8.398-4.581,7.307-9.219c-2.973-12.636-11.644-22.138-12.012-22.536
	c-2.803-3.037-7.524-3.223-10.57-0.432c-3.046,2.792-3.251,7.532-0.469,10.587c0.063,0.07,6.4,7.106,8.45,15.816
	C312.117,202.948,315.197,205.277,318.598,205.277z"/>
<path d="M501.242,230.571c-14.203-9.527-30.488-14.274-46.767-14.246c-19.783-20.765-44.218-37.548-72.709-49.889
	c-36.498-15.81-78.814-23.826-125.773-23.826c-43.9,0-83.824,7.024-118.663,20.878c-3.849,1.531-5.729,5.892-4.198,9.741
	c1.531,3.849,5.892,5.728,9.741,4.198c33.066-13.149,71.125-19.817,113.12-19.817c44.895,0,85.205,7.601,119.811,22.59
	c22.81,9.88,42.81,22.757,59.634,38.376c-9.757,2.311-19.118,6.409-27.444,11.995c-2.252,1.511-4.63,2.733-7.084,3.672
	c-10.509,4.019-22.438,2.797-32.083-3.673c-31.283-20.983-64.977-15.106-96.172,1.742c-11.304,6.106-25.575,5.414-36.245-1.742
	c-28.323-18.999-64.925-19-93.248-0.001c-11.649,7.815-27.394,7.898-39.168,0.001c-0.01-0.007-0.02-0.012-0.03-0.019
	c-8.326-5.579-17.653-9.66-27.404-11.974c11.37-10.538,24.264-19.887,38.485-27.896c3.609-2.033,4.888-6.606,2.854-10.215
	c-2.032-3.609-6.605-4.886-10.215-2.855c-19.06,10.734-35.925,23.749-50.188,38.712c-16.274-0.025-32.553,4.722-46.752,14.247
	c-11.114,7.455-14.091,22.562-6.636,33.676c5.522,8.233,15.91,12.363,25.577,10.144l16.358,37.328
	c12.546,34.507,45.601,57.671,82.334,57.671h255.23c36.734,0,69.788-23.164,82.334-57.671l16.358-37.327
	c3.28,0.753,6.71,0.82,10.112,0.149c6.362-1.253,11.854-4.909,15.465-10.293s4.91-11.852,3.657-18.212
	C510.282,239.674,506.626,234.182,501.242,230.571z M451.92,306.391c-10.343,28.709-37.795,47.998-68.31,47.998H128.378
	c-30.515,0-57.967-19.289-68.31-47.998c-0.057-0.158-0.119-0.314-0.187-0.468c0,0-16.656-38.008-16.658-38.012
	c-0.001-0.311,3.377-1.299,3.636-1.381c9.963-3.148,21.412-1.466,30.093,4.354c27.79,18.631,65.205,18.811,93.25,0
	c11.745-7.883,27.423-7.879,39.167,0c3.54,2.375,7.21,4.453,10.977,6.234c20.205,9.554,43.197,10.553,63.994,3.025
	c6.439-2.331,12.591-5.444,18.278-9.259c11.607-7.786,27.56-7.786,39.166,0c13.893,9.319,30.016,14.245,46.625,14.244
	c14.24-0.001,28.401-3.723,40.819-10.686c8.686-4.871,17.089-10.077,27.447-9.467c4.164,0.245,8.275,1.25,12.088,2.937
	C468.765,267.91,451.977,306.232,451.92,306.391z M495.421,255.892c-4.929,7.348-11.974,2.636-17.759-0.368
	c-15.996-8.304-36.019-7.136-50.984,2.902c-10.696,7.175-22.995,11.18-35.718,11.653c-14.384,0.535-28.869-3.638-40.818-11.653
	c-15.958-10.705-36.3-11.342-52.78-1.918c-13.309,7.61-25.599,13.614-41.366,13.614c-12.49,0-24.98-3.426-36.07-10.279
	c-9.423-5.823-18.823-9.955-30.139-9.955c-9.727,0-19.453,2.846-27.939,8.539c-23.248,15.595-53.29,15.594-76.537,0
	c-16.973-11.385-38.907-11.385-55.879,0c-4.14,2.777-10.029,1.69-12.863-2.535c-2.848-4.245-1.71-10.016,2.535-12.863
	c12.723-8.535,27.482-12.387,42.049-11.579c13.347,0.74,24.878,5.688,36.093,12.613c15.113,9.338,33.788,9.961,49.377,1.868
	c3.203-1.663,6.115-3.809,9.247-5.593c22.556-12.842,50.364-11.946,72.185,2.691c16.634,11.157,39.244,11.156,55.881,0
	c22.684-15.21,53.841-15.222,76.535,0c16.721,11.216,39.172,11.209,55.88,0c0.023-0.015,0.047-0.03,0.07-0.045
	c10.122-6.712,22.204-10.852,34.414-11.533c14.567-0.809,29.327,3.043,42.051,11.578
	C497.078,245.84,498.229,251.706,495.421,255.892z"/>
<g>
</g>
<g>
</g>
<g>
</g>
<g>
</g>
<g>
</g>
<g>
</g>
<g>
</g>
<g>
</g>
<g>
</g>
<g>
</g>
<g>
</g>
<g>
</g>
<g>
</g>
<g>
</g>
<g>
</g>
</svg>
