<?xml version="1.0" encoding="iso-8859-1"?>
<!-- Generator: Adobe Illustrator 19.0.0, SVG Export Plug-In . SVG Version: 6.00 Build 0)  -->
<svg version="1.1" id="Capa_1" xmlns="http://www.w3.org/2000/svg" xmlns:xlink="http://www.w3.org/1999/xlink" x="0px" y="0px"
	 viewBox="0 0 512 512" style="enable-background:new 0 0 512 512;" xml:space="preserve">
<path style="fill:#FEE333;" d="M504.395,20.647c-0.33-7.055-5.989-12.713-13.043-13.043
	C366.681,1.778,80.139,191.327,80.139,191.327l-23.347,50.573l89.081,124.225l126.685,91.542l48.114-25.807
	C320.672,431.861,510.221,145.318,504.395,20.647z"/>
<path style="fill:#FECE00;" d="M320.879,431.547c0.014-0.022,0.024-0.037,0.04-0.06c4.508-6.848,8.838-13.81,13.299-20.688
	c0.011-0.018,0.022-0.034,0.033-0.052c43.302-68.457,175.015-285.859,170.144-390.098c-0.33-7.055-5.989-12.713-13.043-13.043
	c-2.435-0.114-4.939-0.144-7.494-0.112c0.292,1.01,0.484,2.062,0.535,3.154c4.885,104.521-127.551,322.81-170.489,390.643
	c-31.028-14.888-81.984-42.926-121.126-82.068c-47.159-47.158-78.463-112.159-89.732-137.915c-0.537-1.227-1.132-2.415-1.771-3.572
	c-13.431,8.496-21.135,13.592-21.135,13.592l-23.347,50.573l89.081,124.225l126.685,91.542l48.114-25.807
	c0,0,0.022-0.033,0.054-0.082c0.006-0.009,0.012-0.018,0.019-0.028C320.777,431.701,320.822,431.633,320.879,431.547z"/>
<path style="fill:#FB8D4B;" d="M316.452,492.654l13.949-37.907c3.315-9.01-0.965-19.034-9.765-22.87
	c-29.813-12.996-95.838-45.275-145.539-94.976c-49.443-49.443-81.892-115.708-94.958-145.573
	c-3.843-8.786-13.859-13.052-22.859-9.74l-37.934,13.96c-9.756,3.59-14.499,14.625-10.388,24.174
	C23.744,254.068,65.796,326.595,125.601,386.4c59.805,59.805,132.332,101.857,166.679,116.643
	C301.827,507.153,312.861,502.41,316.452,492.654z"/>
<path style="fill:#E86D24;" d="M320.637,431.878c-4.347-1.895-9.485-4.213-15.21-6.923c5.429,4.826,7.611,12.625,4.973,19.793
	l-13.949,37.906c-3.59,9.756-14.625,14.499-24.173,10.388c-1.738-0.749-3.599-1.585-5.528-2.472
	c9.816,5.244,18.486,9.441,25.53,12.473c9.548,4.11,20.583-0.632,24.173-10.388l13.949-37.906
	C333.718,445.738,329.437,435.714,320.637,431.878z"/>
<circle style="fill:#FECE00;" cx="418.884" cy="100.8" r="32.203"/>
<circle style="fill:#F9545B;" cx="408.883" cy="90.799" r="32.203"/>
<circle style="fill:#FECE00;" cx="302.332" cy="317.603" r="39.374"/>
<circle style="fill:#E64047;" cx="312.333" cy="307.602" r="39.374"/>
<circle style="fill:#FECE00;" cx="213.483" cy="265.837" r="28.213"/>
<circle style="fill:#F9545B;" cx="203.482" cy="275.838" r="28.213"/>
<circle style="fill:#FECE00;" cx="248.607" cy="187.269" r="37.124"/>
<circle style="fill:#E64047;" cx="238.605" cy="177.268" r="37.124"/>
<path d="M448.564,90.826c0-10.606-4.129-20.577-11.629-28.077s-17.471-11.63-28.077-11.63c-10.606,0-20.577,4.13-28.077,11.63
	c-7.5,7.5-11.629,17.471-11.629,28.077c0,10.605,4.129,20.577,11.629,28.076c7.5,7.5,17.471,11.629,28.077,11.629
	c10.606,0,20.577-4.129,28.077-11.629S448.564,101.431,448.564,90.826z M426.326,108.293c-9.633,9.632-25.306,9.632-34.939,0
	c-9.632-9.632-9.632-25.306,0-34.938c4.666-4.666,10.87-7.236,17.469-7.236c6.599,0,12.802,2.569,17.469,7.236
	C435.959,82.989,435.959,98.661,426.326,108.293z"/>
<path d="M312.302,354.481c12.003,0,24.007-4.568,33.144-13.707c18.276-18.276,18.276-48.013,0-66.289s-48.013-18.276-66.289,0
	c-18.276,18.276-18.276,48.013,0,66.289C288.296,349.913,300.299,354.481,312.302,354.481z M289.765,285.093
	c6.214-6.214,14.375-9.32,22.537-9.32c8.162,0,16.324,3.106,22.537,9.32c12.427,12.427,12.427,32.647,0,45.074
	c-12.427,12.426-32.647,12.427-45.074,0S277.339,297.52,289.765,285.093z"/>
<path d="M203.456,240.148c-9.54,0-18.508,3.714-25.254,10.46c-13.924,13.924-13.924,36.582,0,50.507
	c6.746,6.746,15.714,10.46,25.254,10.46s18.508-3.714,25.254-10.46c6.746-6.746,10.46-15.714,10.46-25.254
	s-3.714-18.508-10.46-25.254C221.964,243.863,212.996,240.148,203.456,240.148z M218.101,290.509
	c-3.912,3.912-9.113,6.067-14.647,6.067c-5.533,0-10.734-2.154-14.647-6.067c-8.076-8.076-8.076-21.216,0-29.292
	c3.912-3.912,9.114-6.067,14.647-6.067c5.533,0,10.734,2.154,14.647,6.067c3.912,3.912,6.067,9.113,6.067,14.647
	C224.168,281.395,222.014,286.596,218.101,290.509z"/>
<path d="M270.131,145.742c-17.398-17.398-45.708-17.398-63.107,0s-17.399,45.708,0,63.107c8.699,8.699,20.126,13.048,31.553,13.048
	s22.854-4.349,31.553-13.048C287.53,191.45,287.53,163.14,270.131,145.742z M259.524,198.241c-11.549,11.549-30.342,11.549-41.891,0
	c-11.549-11.549-11.549-30.342,0-41.891c5.775-5.775,13.36-8.662,20.945-8.662c7.585,0,15.171,2.887,20.945,8.662
	C271.073,167.899,271.073,186.692,259.524,198.241z"/>
<path d="M297.626,123.45l9.188-9.188c2.929-2.929,2.929-7.678,0-10.607c-2.928-2.929-7.678-2.929-10.607,0l-9.188,9.188
	c-2.929,2.929-2.929,7.678,0,10.608C289.914,126.347,294.732,126.343,297.626,123.45z"/>
<path d="M397.736,205.186l-9.188,9.188c-2.929,2.929-2.929,7.678,0,10.607c2.898,2.898,7.708,2.9,10.608,0l9.188-9.188
	c2.929-2.929,2.929-7.678,0-10.607C405.415,202.256,400.666,202.256,397.736,205.186z"/>
<path d="M328.216,146.012c-4.136-0.288-7.709,2.848-7.986,6.981c-0.69,10.271,3.233,20.481,10.763,28.012
	c7.313,7.313,17.651,11.462,28.012,10.763c4.133-0.278,7.259-3.853,6.981-7.987c-0.278-4.133-3.854-7.262-7.987-6.981
	c-5.955,0.395-11.929-1.934-16.399-6.404c-4.469-4.469-6.803-10.446-6.404-16.399C335.475,149.865,332.349,146.289,328.216,146.012z
	"/>
<path d="M491.675,0.138c-33.612-1.575-81.238,10.336-141.56,35.389c-3.825,1.589-5.639,5.979-4.049,9.804
	c1.589,3.826,5.98,5.64,9.804,4.05c58.264-24.199,103.721-35.72,135.105-34.258c3.214,0.15,5.751,2.687,5.902,5.901
	c5.217,111.645-153.468,361.892-179.044,401.439c-0.074-0.033-0.15-0.068-0.225-0.102c-50.127-22.623-98.179-51.638-137.231-90.738
	c-36.248-36.248-63.762-80.501-85.729-126.568c-1.692-3.548-3.351-7.112-4.98-10.689c-0.033-0.073-0.067-0.148-0.101-0.221
	c24.886-16.107,132.87-84.759,237.03-132.025c3.772-1.711,5.443-6.158,3.73-9.93c-1.711-3.772-6.157-5.442-9.93-3.73
	C216.375,95.662,108.734,163.897,82.17,181.063c-6.857-7.273-17.633-10.123-27.508-6.489c0,0-37.899,13.946-37.934,13.959
	c-13.603,5.007-20.424,20.85-14.687,34.179C15.321,253.558,57.12,328.579,120.27,391.728c26.087,26.088,56.46,50.858,90.276,73.623
	c3.437,2.313,8.098,1.402,10.411-2.033c2.313-3.436,1.403-8.098-2.033-10.411c-33.016-22.227-62.639-46.38-88.045-71.786
	C69.337,319.581,28.706,246.713,15.82,216.782c-2.308-5.362,0.422-12.083,6.089-14.169l37.934-13.959
	c5.266-1.938,11.149,0.569,13.397,5.708c14.916,34.091,47.289,98.633,96.527,147.871c49.507,49.508,113.88,81.741,147.846,96.548
	c5.149,2.245,7.663,8.133,5.723,13.404c0,0-13.905,37.787-13.949,37.907c-2.059,5.595-8.712,8.438-14.168,6.089
	c-8.161-3.513-25.609-11.684-50.762-26.934c-3.542-2.147-8.156-1.017-10.303,2.525s-1.017,8.155,2.525,10.303
	c19.216,11.649,37.899,21.552,52.608,27.884c13.342,5.744,29.179-1.101,34.179-14.687l13.949-37.907
	c3.635-9.88,0.784-20.655-6.493-27.511c12.455-19.263,51.884-81.317,90.384-153.283c62.569-116.959,93.036-203.172,90.556-256.246
	C511.347,9.33,502.669,0.652,491.675,0.138z"/>
<g>
</g>
<g>
</g>
<g>
</g>
<g>
</g>
<g>
</g>
<g>
</g>
<g>
</g>
<g>
</g>
<g>
</g>
<g>
</g>
<g>
</g>
<g>
</g>
<g>
</g>
<g>
</g>
<g>
</g>
</svg>
