<?xml version="1.0" encoding="iso-8859-1"?>
<!-- Generator: Adobe Illustrator 19.0.0, SVG Export Plug-In . SVG Version: 6.00 Build 0)  -->
<svg version="1.1" id="Capa_1" xmlns="http://www.w3.org/2000/svg" xmlns:xlink="http://www.w3.org/1999/xlink" x="0px" y="0px"
	 viewBox="0 0 512 512" style="enable-background:new 0 0 512 512;" xml:space="preserve">
<path style="fill:#FEDD00;" d="M382.436,80.27L382.436,80.27L382.436,80.27c8.398-26.67-20.851-49.436-44.643-34.747l0,0l0,0
	c-0.717-27.952-35.773-39.987-53.507-18.369l0,0l0,0c-9.754-26.205-46.818-26.205-56.572,0l0,0l0,0
	c-17.734-21.618-52.79-9.583-53.507,18.369l0,0l0,0c-23.792-14.688-53.042,8.077-44.643,34.747l0,0l0,0
	c-27.273-6.167-47.545,24.862-30.942,47.36l0,0L256,149.917l157.378-22.287l0,0C429.981,105.132,409.71,74.103,382.436,80.27z"/>
<g>
	<polygon style="fill:#EEECED;" points="176.523,172.213 168.688,161.288 129.083,166.443 129.075,166.443 123.49,172.213 
		119.35,335.472 153.967,504.5 193.273,504.5 208.63,327.208 	"/>
	<polygon style="fill:#EEECED;" points="335.477,172.213 343.313,161.288 382.916,166.443 382.926,166.443 388.509,172.213 
		392.65,335.472 358.034,504.5 318.728,504.5 303.371,327.208 	"/>
	<polygon style="fill:#EEECED;" points="278.417,152.839 256,149.917 233.583,152.839 208.63,327.208 233.583,504.5 278.417,504.5 
		303.371,327.208 	"/>
</g>
<g>
	<polygon style="fill:#D4D2D3;" points="343.313,161.288 335.477,172.212 329.264,202.209 389.27,202.209 388.509,172.212 
		382.926,166.443 382.916,166.443 	"/>
	<polygon style="fill:#D4D2D3;" points="226.518,202.209 285.482,202.209 278.417,152.838 256,149.917 233.583,152.838 	"/>
	<polygon style="fill:#D4D2D3;" points="129.075,166.443 123.49,172.212 122.73,202.209 182.736,202.209 176.523,172.212 
		168.688,161.288 129.083,166.443 	"/>
</g>
<g>
	<polygon style="fill:#F9545B;" points="233.583,152.839 233.583,504.5 193.273,504.5 176.523,172.213 168.688,161.288 	"/>
	<path style="fill:#F9545B;" d="M153.967,504.5c-17.68,0-32.56-13.26-34.579-30.838L84.734,172.213l44.34-5.769l-5.583,5.769
		L153.967,504.5z"/>
	<polygon style="fill:#F9545B;" points="278.417,152.839 278.417,504.5 318.728,504.5 335.477,172.213 343.313,161.288 	"/>
	<path style="fill:#F9545B;" d="M358.034,504.5c17.68,0,32.56-13.26,34.579-30.838l34.653-301.449l-44.34-5.769l5.583,5.769
		L358.034,504.5z"/>
</g>
<path style="fill:#E6BB00;" d="M166.558,137.25c-5.689-14.862-19.074-59.055,7.65-91.728l0,0
	c-23.792-14.688-53.042,8.077-44.643,34.748l0,0c-27.272-6.167-47.545,24.862-30.942,47.36l0,0L166.558,137.25z"/>
<g>
	<polygon style="fill:#E64047;" points="423.818,202.209 427.266,172.212 382.926,166.443 388.509,172.212 385.758,202.209 	"/>
	<polygon style="fill:#E64047;" points="176.523,172.212 178.035,202.209 233.583,202.209 233.583,152.838 168.688,161.288 	"/>
	<polygon style="fill:#E64047;" points="335.478,172.212 333.966,202.209 278.417,202.209 278.417,152.838 343.313,161.288 	"/>
	<polygon style="fill:#E64047;" points="84.734,172.212 88.182,202.209 126.242,202.209 123.49,172.212 129.075,166.443 	"/>
</g>
<path style="fill:#EEECED;" d="M427.263,127.63H84.736c-12.31,0-22.289,9.979-22.289,22.289l0,0c0,12.31,9.979,22.289,22.289,22.289
	h342.527c12.31,0,22.289-9.979,22.289-22.289l0,0C449.553,137.61,439.573,127.63,427.263,127.63z"/>
<path d="M208.63,95.042c4.142,0,7.5-3.358,7.5-7.5v-8.573c0-4.142-3.358-7.5-7.5-7.5c-4.143,0-7.5,3.358-7.5,7.5v8.573
	C201.13,91.684,204.488,95.042,208.63,95.042z"/>
<path d="M303.371,95.042c4.142,0,7.5-3.358,7.5-7.5v-8.573c0-4.142-3.358-7.5-7.5-7.5c-4.143,0-7.5,3.358-7.5,7.5v8.573
	C295.871,91.684,299.229,95.042,303.371,95.042z"/>
<path d="M256,101.377c7.763,0,15.057-3.251,20.012-8.919c2.726-3.119,2.408-7.856-0.711-10.583
	c-3.118-2.726-7.856-2.407-10.583,0.711c-2.106,2.41-5.284,3.792-8.718,3.792c-3.434,0-6.612-1.382-8.719-3.792
	c-2.726-3.119-7.464-3.437-10.583-0.711c-3.119,2.726-3.437,7.464-0.711,10.583C240.943,98.126,248.238,101.377,256,101.377z"/>
<path d="M457.053,149.92c0-16.426-13.364-29.79-29.79-29.79h-1.933c3.012-10.316,1.491-21.569-4.69-31.031
	c-6.711-10.272-17.553-16.392-29.283-17.041c0.321-11.742-4.882-23.053-14.564-30.589s-21.925-9.803-33.229-6.609
	c-3.509-11.21-12.103-20.22-23.708-24.203c-11.604-3.984-23.92-2.152-33.575,4.538C279.323,5.731,268.27,0,256,0
	c-12.27,0-23.323,5.731-30.282,15.194c-9.655-6.69-21.969-8.521-33.575-4.538c-11.604,3.983-20.198,12.993-23.708,24.203
	c-11.303-3.193-23.547-0.926-33.229,6.609c-9.683,7.536-14.885,18.848-14.564,30.589c-11.728,0.65-22.571,6.769-29.282,17.041
	c-6.182,9.462-7.703,20.716-4.691,31.032h-1.933c-16.426,0-29.79,13.364-29.79,29.79c0,14.093,9.84,25.923,23.008,29.001
	l33.98,295.597C114.391,495.886,132.461,512,153.967,512h204.068c21.506,0,39.575-16.114,42.03-37.481l33.981-295.597
	C447.214,175.843,457.053,164.013,457.053,149.92z M69.947,149.92c0-8.155,6.634-14.79,14.79-14.79h60.781
	c4.142,0,7.5-3.358,7.5-7.5s-3.358-7.5-7.5-7.5h-42.792c-4.514-8.447-2.525-17.137,1.192-22.828
	c4.167-6.378,12.658-12.279,23.991-9.718c5.333,1.205,10.574-3.959,8.808-9.567c-3.49-11.083,1.691-20.032,7.703-24.712
	c6.012-4.679,15.959-7.505,25.845-1.402c4.857,2.999,11.293-0.501,11.439-6.189c0.298-11.616,8.104-18.398,15.31-20.872
	c7.206-2.472,17.53-1.916,24.899,7.065c3.624,4.417,10.847,3.191,12.83-2.138C238.797,18.88,248.382,15,256,15
	c7.618,0,17.203,3.88,21.257,14.767c1.992,5.349,9.225,6.535,12.829,2.143c7.369-8.983,17.694-9.542,24.9-7.067
	c7.206,2.474,15.012,9.255,15.31,20.871c0.147,5.708,6.579,9.189,11.438,6.191c9.887-6.103,19.834-3.279,25.846,1.401
	c6.012,4.679,11.193,13.628,7.704,24.71c-1.711,5.436,3.25,10.825,8.807,9.569c11.334-2.563,19.825,3.34,23.992,9.718
	c3.717,5.69,5.705,14.38,1.191,22.827H175.193c-4.142,0-7.5,3.358-7.5,7.5s3.358,7.5,7.5,7.5h252.072
	c8.155,0,14.79,6.634,14.79,14.79s-6.635,14.79-14.813,14.79c0,0-342.479,0-342.503,0C76.581,164.709,69.947,158.075,69.947,149.92z
	 M226.083,497h-25.68l-15.994-317.291h41.674L226.083,497L226.083,497z M126.839,472.806L93.145,179.709h23.501l28.981,315.992
	C135.652,492.506,128.092,483.717,126.839,472.806z M160.811,497L131.71,179.709h37.682L185.385,497H160.811z M241.083,179.709
	h29.833V497h-29.833L241.083,179.709L241.083,179.709z M285.917,179.709h41.673L311.596,497h-25.68L285.917,179.709L285.917,179.709
	z M342.61,179.709h37.681L351.19,497h-24.575L342.61,179.709z M385.162,472.806c-1.254,10.911-8.813,19.699-18.79,22.896
	l28.981-315.992h23.502L385.162,472.806z"/>
<g>
</g>
<g>
</g>
<g>
</g>
<g>
</g>
<g>
</g>
<g>
</g>
<g>
</g>
<g>
</g>
<g>
</g>
<g>
</g>
<g>
</g>
<g>
</g>
<g>
</g>
<g>
</g>
<g>
</g>
</svg>
