<?xml version="1.0" encoding="iso-8859-1"?>
<!-- Generator: Adobe Illustrator 19.0.0, SVG Export Plug-In . SVG Version: 6.00 Build 0)  -->
<svg version="1.1" id="Capa_1" xmlns="http://www.w3.org/2000/svg" xmlns:xlink="http://www.w3.org/1999/xlink" x="0px" y="0px"
	 viewBox="0 0 512 512" style="enable-background:new 0 0 512 512;" xml:space="preserve">
<path style="fill:#FDC464;" d="M226.602,355.605v119.498c0,16.236,13.162,29.397,29.397,29.397s29.397-13.162,29.397-29.397V355.605
	H226.602z"/>
<path style="fill:#E6B25B;" d="M250.602,475.103V355.605h-24v119.498c0,16.236,13.162,29.397,29.397,29.397
	c4.276,0,8.335-0.921,12-2.562C257.748,497.346,250.602,487.062,250.602,475.103z"/>
<path style="fill:#9577E1;" d="M256,7.5L256,7.5c-66.988,0-121.292,54.304-121.292,121.292v213.023
	c0,28.286,22.93,51.216,51.216,51.216h140.151c28.286,0,51.216-22.93,51.216-51.216V128.792C377.291,61.804,322.987,7.5,256,7.5z"/>
<g>
	<path style="fill:#8162D1;" d="M157.708,341.815V128.792c0-63.108,48.199-114.952,109.792-120.745
		C263.714,7.69,259.879,7.5,256,7.5l0,0c-66.987,0-121.292,54.304-121.292,121.292v213.023c0,28.286,22.93,51.216,51.216,51.216h23
		C180.638,393.031,157.708,370.101,157.708,341.815z"/>
	<path style="fill:#8162D1;" d="M203.629,107.433L203.629,107.433c-12.688,0-22.974,10.286-22.974,22.974v188.435
		c0,12.688,10.286,22.974,22.973,22.974l0,0c12.688,0,22.974-10.286,22.974-22.974V130.406
		C226.602,117.719,216.317,107.433,203.629,107.433z"/>
	<path style="fill:#8162D1;" d="M308.371,107.433L308.371,107.433c12.688,0,22.974,10.286,22.974,22.974v188.435
		c0,12.688-10.286,22.974-22.973,22.974l0,0c-12.688,0-22.974-10.286-22.974-22.974V130.406
		C285.397,117.719,295.684,107.433,308.371,107.433z"/>
</g>
<path d="M173.155,130.406v188.435c0,16.803,13.67,30.473,30.474,30.473s30.474-13.67,30.474-30.473V130.406
	c0-16.803-13.67-30.474-30.474-30.474S173.155,113.603,173.155,130.406z M219.103,130.406v188.435
	c0,8.532-6.941,15.473-15.474,15.473s-15.474-6.941-15.474-15.473V130.406c0-8.532,6.941-15.474,15.474-15.474
	S219.103,121.874,219.103,130.406z"/>
<path d="M277.897,130.406v188.435c0,16.803,13.67,30.473,30.474,30.473c16.803,0,30.473-13.67,30.473-30.473V130.406
	c0-16.803-13.67-30.474-30.474-30.474C291.568,99.933,277.897,113.603,277.897,130.406z M292.897,130.406
	c0-8.532,6.941-15.474,15.473-15.474l0,0c8.532,0,15.473,6.941,15.473,15.474v188.435c0,8.532-6.941,15.473-15.474,15.473
	c-8.532,0-15.473-6.941-15.473-15.473V130.406H292.897z"/>
<path d="M221.608,64.697v-7.582c0-4.142-3.358-7.5-7.5-7.5s-7.5,3.358-7.5,7.5v7.582c0,4.142,3.358,7.5,7.5,7.5
	S221.608,68.839,221.608,64.697z"/>
<path d="M305.391,64.697v-7.582c0-4.142-3.358-7.5-7.5-7.5s-7.5,3.358-7.5,7.5v7.582c0,4.142,3.358,7.5,7.5,7.5
	S305.391,68.839,305.391,64.697z"/>
<path d="M256,77.8c7.115,0,13.804-2.983,18.35-8.184c2.726-3.119,2.408-7.857-0.711-10.583s-7.856-2.408-10.583,0.711
	c-1.698,1.942-4.27,3.056-7.056,3.056c-2.787,0-5.359-1.114-7.057-3.056c-2.727-3.119-7.464-3.437-10.583-0.711
	s-3.437,7.464-0.711,10.583C242.196,74.817,248.884,77.8,256,77.8z"/>
<path d="M256,0c-36.422,0-71.306,15.532-95.706,42.613c-2.773,3.078-2.526,7.82,0.551,10.592c3.078,2.773,7.82,2.525,10.592-0.551
	C192.998,28.725,223.82,15,256,15c62.745,0,113.792,51.047,113.792,113.792v213.023c0,24.105-19.611,43.716-43.716,43.716H185.924
	c-24.105,0-43.716-19.611-43.716-43.716V128.792c0-18.579,4.34-36.296,12.899-52.66c1.919-3.67,0.5-8.202-3.17-10.122
	c-3.671-1.921-8.202-0.5-10.122,3.17c-9.556,18.269-14.607,38.883-14.607,59.612v213.023c0,32.376,26.34,58.716,58.716,58.716
	h33.178v74.572C219.103,495.448,235.655,512,256,512s36.897-16.552,36.897-36.897v-74.572h33.178
	c32.376,0,58.716-26.34,58.716-58.716V128.792C384.792,57.775,327.016,0,256,0z M277.897,475.103
	c0,12.074-9.823,21.897-21.897,21.897s-21.897-9.823-21.897-21.897v-74.572h43.795v74.572H277.897z"/>
<g>
</g>
<g>
</g>
<g>
</g>
<g>
</g>
<g>
</g>
<g>
</g>
<g>
</g>
<g>
</g>
<g>
</g>
<g>
</g>
<g>
</g>
<g>
</g>
<g>
</g>
<g>
</g>
<g>
</g>
</svg>
