<?xml version="1.0" encoding="iso-8859-1"?>
<!-- Generator: Adobe Illustrator 19.0.0, SVG Export Plug-In . SVG Version: 6.00 Build 0)  -->
<svg xmlns="http://www.w3.org/2000/svg" xmlns:xlink="http://www.w3.org/1999/xlink" version="1.1" id="Layer_1" x="0px" y="0px" viewBox="0 0 512 512" style="enable-background:new 0 0 512 512;" xml:space="preserve" width="512" height="512">
<g>
	<g>
		<ellipse style="fill:#B8B8B8;" cx="232.507" cy="32.433" rx="28.4" ry="24.933"/>
		<path style="fill:#9E9E9E;" d="M224.107,32.433c0-10.679,7.65-19.787,18.4-23.338c-3.111-1.028-6.48-1.594-10-1.594    c-15.685,0-28.4,11.163-28.4,24.933s12.715,24.933,28.4,24.933c3.52,0,6.889-0.566,10-1.594    C231.757,52.219,224.107,43.112,224.107,32.433z"/>
		<path style="fill:#506366;" d="M109.846,76.519c0,0,17.151-44.086,122.661-44.086s122.661,44.086,122.661,44.086L232.507,93.691    L109.846,76.519z"/>
		<path style="fill:#3A484A;" d="M139.846,76.519c0,0,15.506-39.831,107.661-43.77c-4.793-0.205-9.784-0.316-15-0.316    c-105.509,0-122.661,44.086-122.661,44.086L232.507,93.69l15-2.1L139.846,76.519z"/>
		<g>
			<path style="fill:#4DB8CC;" d="M300.865,291.665c35.965,0,61.562-14.655,78.253-44.803c14.716-26.582,19.051-58.987,20.095-81.49     c0.123-2.64-1.175-4.413-1.96-5.235c-0.79-0.828-2.514-2.216-5.184-2.216h-66.768v-34.674h66.768     c11.378,0,22.409,4.719,30.264,12.947c7.846,8.219,12.044,19.44,11.518,30.787c-1.216,26.196-6.437,64.234-24.398,96.677     c-22.704,41.008-60.253,62.683-108.589,62.683V291.665z"/>
		</g>
		<path style="fill:#85E7FF;" d="M355.168,110.863L232.507,93.691l-122.661,17.172H89.87c-7.653,0-13.321,7.217-11.384,14.62    c3.196,12.217,11.07,27.654,30.46,27.654c0.621,49.698,7.164,131.49,40.528,179.642l83.033,17.172l83.033-17.172    C365.88,260.128,355.168,110.863,355.168,110.863z"/>
		<path style="fill:#B8B8B8;" d="M232.507,349.951l83.033,17.172c0,0,49.535,48.874,49.535,103.033l-132.568,17.172L99.939,470.156    c0-54.158,49.535-103.033,49.535-103.033L232.507,349.951z"/>
		<path style="fill:#9E9E9E;" d="M129.939,470.156c0-54.158,49.535-103.033,49.535-103.033l68.033-14.07l-15-3.102l-83.033,17.172    c0,0-49.535,48.875-49.535,103.033l132.568,17.172l15-1.943L129.939,470.156z"/>
		<path style="fill:#506366;" d="M315.54,332.779H149.474c-8.31,0-15.046,6.736-15.046,15.046v4.252    c0,8.31,6.736,15.046,15.046,15.046H315.54c8.31,0,15.046-6.736,15.046-15.046v-4.252    C330.586,339.515,323.85,332.779,315.54,332.779z"/>
		<path style="fill:#3A484A;" d="M164.428,352.077v-4.252c0-8.31,6.736-15.046,15.046-15.046h-30    c-8.31,0-15.046,6.737-15.046,15.046v4.252c0,8.31,6.736,15.046,15.046,15.046h30    C171.164,367.123,164.428,360.387,164.428,352.077z"/>
		<path style="fill:#B8B8B8;" d="M355.168,76.519H109.846c-8.31,0-15.046,6.736-15.046,15.046v4.252    c0,8.31,6.736,15.046,15.046,15.046h245.322c8.31,0,15.046-6.736,15.046-15.046v-4.252    C370.214,83.255,363.478,76.519,355.168,76.519z"/>
		<path style="fill:#9E9E9E;" d="M124.8,95.816v-4.251c0-8.31,6.736-15.046,15.046-15.046h-30c-8.31,0-15.046,6.736-15.046,15.046    v4.251c0,8.31,6.736,15.046,15.046,15.046h30C131.536,110.863,124.8,104.126,124.8,95.816z"/>
		<path style="fill:#FD6F71;" d="M308.947,153.137h-152.87c-9.623,0-17.327,8.006-16.944,17.621    c2.325,58.432,12.37,105.581,28.855,135.499l129.034,0.001c19.738-35.894,26.94-91.122,28.866-135.472    C326.305,161.158,318.584,153.137,308.947,153.137z"/>
		<circle style="fill:#EFEDEE;" cx="232.507" cy="418.639" r="25.059"/>
		<path style="fill:#506366;" d="M365.075,470.156H99.939c-8.31,0-15.046,6.736-15.046,15.046v4.252    c0,8.31,6.736,15.046,15.046,15.046h265.135c8.31,0,15.046-6.736,15.046-15.046v-4.252    C380.121,476.892,373.385,470.156,365.075,470.156z"/>
		<path style="fill:#3A484A;" d="M114.893,489.454v-4.251c0-8.31,6.736-15.046,15.046-15.046h-30    c-8.31,0-15.046,6.736-15.046,15.046v4.251c0,8.31,6.736,15.046,15.046,15.046h30C121.63,504.5,114.893,497.764,114.893,489.454z"/>
	</g>
	<g>
		<path d="M161.421,309.877c1.319,2.394,3.836,3.881,6.569,3.881l129.033,0.001c2.735,0,5.254-1.489,6.572-3.886    c11.77-21.403,26.491-62.849,29.787-138.759c0.596-13.733-10.712-25.476-24.433-25.476c0,0-152.656,0-152.87,0    c-13.708,0-24.983,11.742-24.439,25.419C134.019,230.831,144.317,278.834,161.421,309.877z M149.28,163.566    c1.727-1.797,4.145-2.928,6.799-2.928c0,0,152.387,0,152.869,0c5.321,0,9.679,4.51,9.448,9.824    c-1.385,31.894-6.604,90.002-25.899,128.298l-119.988-0.001c-14.761-29.13-23.693-73.337-25.88-128.295    C146.523,167.811,147.558,165.357,149.28,163.566z"/>
		<path d="M181.369,226.752V216.14c0-4.142-3.358-7.5-7.5-7.5s-7.5,3.358-7.5,7.5v10.612c0,4.143,3.358,7.5,7.5,7.5    S181.369,230.895,181.369,226.752z"/>
		<path d="M291.148,234.252c4.142,0,7.5-3.357,7.5-7.5V216.14c0-4.142-3.358-7.5-7.5-7.5s-7.5,3.358-7.5,7.5v10.612    C283.648,230.895,287.006,234.252,291.148,234.252z"/>
		<path d="M232.509,239.917c7.805,0,15.138-3.269,20.12-8.967c2.726-3.119,2.408-7.856-0.711-10.583    c-3.119-2.727-7.857-2.408-10.583,0.71c-2.133,2.44-5.35,3.839-8.826,3.839c-3.476,0-6.693-1.399-8.826-3.839    c-2.726-3.118-7.464-3.437-10.583-0.711c-3.119,2.726-3.437,7.464-0.711,10.583C217.37,236.648,224.704,239.917,232.509,239.917z"/>
		<path d="M232.509,386.08c-17.953,0-32.559,14.606-32.559,32.56c0,17.953,14.606,32.559,32.559,32.559s32.56-14.606,32.56-32.559    C265.068,400.686,250.462,386.08,232.509,386.08z M232.509,436.199c-9.682,0-17.559-7.877-17.559-17.559    c0-9.683,7.877-17.56,17.559-17.56s17.56,7.877,17.56,17.56C250.068,428.322,242.191,436.199,232.509,436.199z"/>
		<path d="M74.607,110.864c-3.653,4.731-4.883,10.751-3.375,16.517c4.841,18.508,15.481,29.84,30.333,32.597    c1.171,53.241,8.755,122.094,36.288,168.536c-6.54,3.952-10.923,11.129-10.923,19.312v4.252c0,7.521,3.706,14.189,9.383,18.288    c-13.83,16.031-41.062,52.491-43.664,93.508c-8.863,3.039-15.255,11.449-15.255,21.329v4.252    c0,12.432,10.114,22.546,22.546,22.546h265.136c12.432,0,22.546-10.114,22.546-22.546v-4.252c0-9.88-6.392-18.291-15.255-21.329    c-2.602-41.017-29.834-77.477-43.664-93.508c5.678-4.098,9.384-10.766,9.384-18.288v-4.252c0-6.693-2.935-12.711-7.581-16.844    c37.014-7.41,66.457-29.278,85.51-63.692c18.664-33.712,24.076-72.967,25.328-99.962c0.621-13.384-4.33-26.62-13.584-36.313    c-9.264-9.703-22.272-15.268-35.688-15.268h-26.376c7.142-3.788,12.02-11.298,12.02-19.93v-4.252    c0-10.809-7.647-19.861-17.814-22.042c-6.39-10.264-28.399-35.695-92.052-42.746C264.878,11.582,250.167,0,232.509,0    s-32.37,11.582-35.342,26.776c-63.653,7.051-85.661,32.482-92.051,42.746c-10.167,2.181-17.814,11.233-17.814,22.042v4.252    c0,2.662,0.467,5.216,1.318,7.589C83.085,103.758,78.031,106.43,74.607,110.864z M315.541,359.623H149.476    c-4.161,0-7.546-3.385-7.546-7.546v-4.252c0-4.161,3.385-7.546,7.546-7.546h166.066c4.161,0,7.546,3.385,7.546,7.546v4.252    C323.088,356.238,319.703,359.623,315.541,359.623z M357.227,462.656H163.952c-4.043,0-7.5,3.452-7.5,7.5    c0,4.142,3.358,7.5,7.5,7.5h201.125c4.161,0,7.546,3.385,7.546,7.546v4.252c0,4.161-3.385,7.546-7.546,7.546H99.941    c-4.161,0-7.546-3.385-7.546-7.546v-4.252c0-4.161,3.385-7.546,7.546-7.546h34.011c4.142,0,7.5-3.358,7.5-7.5    c0-4.045-3.451-7.5-7.5-7.5h-26.169c2.092-23.275,13.396-45.129,23.028-59.952c8.895-13.688,17.906-23.852,21.859-28.081h159.679    c3.956,4.232,12.965,14.395,21.859,28.081C350.46,427.716,355.908,448.223,357.227,462.656z M361.71,195.159    c0.818-10.504,1.318-20.512,1.603-29.739h28.392c-1.039,21.686-5.216,52.647-19.146,77.809    c-6.192,11.184-13.584,19.919-22.355,26.421C355.693,247.867,359.541,223.002,361.71,195.159z M416.911,141.372    c6.438,6.744,9.882,15.951,9.45,25.26c-1.178,25.396-6.207,62.214-23.467,93.392c-15.861,28.648-38.832,46.992-68.412,54.688    c3.525-7.439,6.738-15.491,9.635-24.148c17.223-7.875,31.195-21.338,41.566-40.07c15.418-27.85,19.944-61.473,21.025-84.773    c0.188-4.024-1.243-7.847-4.028-10.764c-2.794-2.926-6.561-4.537-10.607-4.537h-28.463c0.063-7.405,0-14.04-0.122-19.674h28.585    C401.411,130.746,410.464,134.619,416.911,141.372z M213.363,25.442C216.599,19.3,223.963,15,232.509,15s15.91,4.3,19.146,10.442    c-6.374-0.35-12.762-0.51-19.146-0.51C226.125,24.933,219.737,25.098,213.363,25.442z M137.036,59.942    c12.256-7.397,33.525-15.944,68.561-18.92c17.851-1.516,35.972-1.562,53.823,0c35.037,2.976,56.305,11.523,68.562,18.92    c5.188,3.131,9.138,6.267,12.107,9.077h-215.16C127.898,66.208,131.848,63.073,137.036,59.942z M86.48,120.031    c0.819-1.061,2.055-1.668,3.391-1.668h19.976h172.315c4.142,0,7.5-3.358,7.5-7.5c0-4.045-3.45-7.5-7.5-7.5H109.848    c-4.161,0-7.546-3.385-7.546-7.546v-4.252c0-4.161,3.385-7.546,7.546-7.546h245.322c4.161,0,7.546,3.385,7.546,7.546v4.252    c0,4.161-3.385,7.546-7.546,7.546h-43.295c-4.046,0-7.5,3.449-7.5,7.5c0,4.142,3.358,7.5,7.5,7.5h36.188    c0.567,12.806,1.322,41.889-1.307,75.631c-3.73,47.887-12.86,87.396-26.65,115.906c-2.555,5.281-5.387,10.448-8.569,15.378    H153.488c-14.217-22.136-35.79-72.085-37.041-172.235c-0.051-4.105-3.394-7.406-7.5-7.406c-11.57,0-19.376-7.419-23.204-22.052    C85.302,121.896,86.016,120.633,86.48,120.031z"/>
	</g>
</g>















</svg>
