<?xml version="1.0" encoding="iso-8859-1"?>
<!-- Generator: Adobe Illustrator 19.0.0, SVG Export Plug-In . SVG Version: 6.00 Build 0)  -->
<svg xmlns="http://www.w3.org/2000/svg" xmlns:xlink="http://www.w3.org/1999/xlink" version="1.1" id="Layer_1" x="0px" y="0px" viewBox="0 0 512 512" style="enable-background:new 0 0 512 512;" xml:space="preserve" width="512" height="512">
<g>
	<g>
		<path style="fill:#7CB777;" d="M461.372,203.572c-10.191-51.322-65.998-37.717-100.488-21.919l-0.561,25.18l-0.379,16.881    l7.559,17.18l9.381,21.33C414.793,263.645,471.563,254.894,461.372,203.572z"/>
		<path style="fill:#7CB777;" d="M50.628,203.572c10.191-51.322,65.998-37.717,100.488-21.919l0.561,25.18l0.379,16.881    l-7.559,17.18l-9.381,21.33C97.207,263.645,40.437,254.894,50.628,203.572z"/>
		<path style="fill:#34925D;" d="M256,7.5l56.359,305.553l69.972-15.523C409.327,184.012,416.938,7.5,256,7.5z"/>
		<path style="fill:#34925D;" d="M256,7.5c-160.938,0-153.327,176.512-126.331,290.031l75.63,16.779l-3.435-13.312L256,7.5z"/>
		<path style="fill:#7CB777;" d="M311.03,297.531l1.329,15.523L256,325.565l-50.701-11.255l-4.33-16.779    c0,0-57.45-258.196,55.03-290.031C368.48,39.334,311.03,297.531,311.03,297.531z"/>
		<path style="fill:#FD6F71;" d="M409.487,52.696L409.487,52.696L409.487,52.696c2.933-17.103-15.018-30.145-30.377-22.071v0l0,0    c-15.359-8.075-33.311,4.968-30.377,22.071v0c-12.426,12.112-5.569,33.215,11.603,35.711h0v0c7.68,15.561,29.869,15.561,37.549,0    v0h0C415.056,85.911,421.913,64.808,409.487,52.696z"/>
		<path style="fill:#FD6F71;" d="M256,325.565L99.609,353.599l41.655,123.614c5.045,16.229,20.063,27.287,37.058,27.287h155.357    c16.995,0,32.013-11.058,37.058-27.287l41.655-123.614L256,325.565z"/>
		<path style="fill:#E34B4C;" d="M181.264,477.213l-41.655-123.614L276,329.15l-20-3.585L99.609,353.599l41.655,123.614    c5.045,16.229,20.063,27.287,37.058,27.287h40C201.327,504.5,186.309,493.442,181.264,477.213z"/>
		<path style="fill:#EFEDEE;" d="M412.391,297.531H99.609c-8.819,0-15.968,7.149-15.968,15.968v24.133    c0,8.819,7.149,15.968,15.968,15.968h312.782c8.819,0,15.968-7.149,15.968-15.968v-24.133    C428.359,304.68,421.21,297.531,412.391,297.531z"/>
		<path style="fill:#D2D2D2;" d="M123.641,337.631v-24.132c0-8.819,7.149-15.968,15.968-15.968h-40    c-8.819,0-15.968,7.149-15.968,15.968v24.132c0,8.819,7.149,15.968,15.968,15.968h40    C130.79,353.599,123.641,346.45,123.641,337.631z"/>
	</g>
	<g>
		<path d="M154.284,183.839c4.142,0,7.5-3.358,7.5-7.5v-18.409c0-4.142-3.358-7.5-7.5-7.5s-7.5,3.358-7.5,7.5v18.409    C146.784,180.481,150.142,183.839,154.284,183.839z"/>
		<path d="M357.715,183.839c4.142,0,7.5-3.358,7.5-7.5v-18.409c0-4.142-3.358-7.5-7.5-7.5s-7.5,3.358-7.5,7.5v18.409    C350.215,180.481,353.573,183.839,357.715,183.839z"/>
		<path d="M286.04,169.412c-3.118-2.726-7.857-2.408-10.583,0.711c-4.746,5.429-11.838,8.543-19.458,8.543    c-7.62,0-14.712-3.114-19.458-8.543c-2.727-3.119-7.464-3.437-10.583-0.71s-3.437,7.464-0.711,10.583    c7.595,8.688,18.803,13.671,30.752,13.671c11.948,0,23.157-4.983,30.751-13.671C289.477,176.876,289.159,172.138,286.04,169.412z"/>
		<circle cx="379.109" cy="64.125" r="12.823"/>
		<path d="M116.072,269.52c1.353,7.269,2.769,14.14,4.181,20.511H99.609c-12.94,0-23.468,10.528-23.468,23.468v24.132    c0,11.004,7.615,20.259,17.85,22.784l40.139,119.114C140.211,498.955,157.958,512,178.322,512h155.357    c20.365,0,38.113-13.046,44.193-32.475l40.137-119.111c10.236-2.524,17.851-11.779,17.851-22.784v-24.132    c0-12.94-10.528-23.468-23.468-23.468h-20.644c1.395-6.3,2.813-13.174,4.176-20.51c22.454-1.331,49.824-7.029,64.4-25.292    c8.91-11.164,11.738-25.333,8.405-42.116c-5.413-27.255-23.974-42.266-52.265-42.266c-3.814,0-7.833,0.273-12.006,0.804    c-1.01-19.815-3.777-39.573-9.065-58.162c2.84-1.984,5.323-4.497,7.304-7.455c9.058-2.566,16.249-9.413,19.22-18.558    c2.97-9.14,1.179-18.902-4.633-26.3c0.299-7.059-1.988-13.792-6.611-19.275c-5.479-6.499-13.431-10.226-21.817-10.226    c-3.343,0-6.607,0.588-9.747,1.753c-3.139-1.165-6.403-1.753-9.746-1.753c-7.452,0-14.556,2.948-19.892,8.163    C325.538,9.7,294.145,0,256,0h0h0c-49.508,0-87.427,16.222-112.704,48.215c-21.312,26.974-33.316,64.777-35.74,112.436    c-4.178-0.532-8.201-0.806-12.02-0.806c-28.701,0-46.773,14.615-52.265,42.266c-3.333,16.782-0.505,30.952,8.405,42.116    C66.251,262.49,93.618,268.189,116.072,269.52z M420.859,313.499v24.132c0,4.669-3.799,8.468-8.468,8.468H179.182    c-4.031,0-7.5,3.463-7.5,7.5c0,4.142,3.358,7.5,7.5,7.5h222.767l-38.32,113.719c-0.019,0.056-0.037,0.112-0.055,0.169    C359.481,488.153,347.467,497,333.678,497H178.322c-13.789,0-25.803-8.847-29.896-22.013c-0.018-0.057-0.036-0.113-0.055-0.169    l-38.321-113.719h39.131c4.142,0,7.5-3.358,7.5-7.5c0-4.043-3.451-7.5-7.5-7.5H99.609c-4.669,0-8.468-3.799-8.468-8.468v-24.132    c0-4.669,3.799-8.468,8.468-8.468h312.782C417.06,305.03,420.859,308.829,420.859,313.499z M416.464,174.845    c21.235,0,33.518,9.875,37.552,30.188c2.466,12.42,0.695,22.181-5.416,29.838c-10.836,13.577-33.295,18.049-50.041,19.423    c0.069-0.435,0.126-0.863,0.194-1.297c3.035-19.364,5.107-38.894,5.857-58.484c0.003-0.07,0.006-0.14,0.008-0.21    c0.233-6.149,0.336-12.354,0.283-18.583C408.973,175.138,412.844,174.845,416.464,174.845z M369.363,35.674    c2.145,0,4.25,0.535,6.257,1.59c2.186,1.148,4.794,1.148,6.98,0c2.006-1.055,4.111-1.59,6.256-1.59    c3.896,0,7.765,1.83,10.349,4.895c2.547,3.021,3.573,6.877,2.89,10.86c-0.417,2.433,0.389,4.915,2.157,6.638    c3.745,3.65,5.016,8.799,3.4,13.773s-5.671,8.393-10.847,9.145c-2.443,0.355-4.555,1.889-5.647,4.103    c-1.497,3.034-4.116,5.476-7.301,6.641c-6.384,2.336-13.78-0.537-16.797-6.641c-1.092-2.214-3.204-3.748-5.647-4.103    c-2.264-0.329-4.314-1.168-6.039-2.425c-6.633-4.833-7.24-14.811-1.408-20.493c1.748-1.703,2.57-4.235,2.157-6.639    C354.74,43.369,361.152,35.674,369.363,35.674z M341.805,41.932c-0.69,2.657-0.99,5.423-0.871,8.244    c-0.187,0.238-0.358,0.485-0.537,0.729c-2.205,3-3.843,6.464-4.72,10.086c-2.78,11.484,2.113,23.95,11.972,30.444    c2.42,1.594,5.084,2.809,7.872,3.599c4.918,7.343,12.918,11.954,21.835,12.491c1.218,0.073,3.802-0.016,3.872-0.021    c5.451,19.506,7.98,40.448,8.578,61.369c1.163,40.695-4.422,81.537-13.43,121.159h-56.159c0.081-0.419,0.165-0.854,0.25-1.3    c0.013-0.067,0.026-0.137,0.039-0.205c1.403-7.223,2.635-14.482,3.787-21.749c0.426-2.685,0.839-5.371,1.237-8.06    c0.607-4.098-2.223-7.911-6.32-8.518c-4.098-0.607-7.912,2.223-8.518,6.32c-1.637,11.07-3.523,22.243-5.719,33.27    c-0.016,0.083-0.032,0.161-0.048,0.242h-97.847c-2.906-14.639-10.2-54.837-12.544-100.225    c-1.234-23.901-0.981-47.919,1.596-71.727c3.071-28.364,9.68-58.437,28.271-80.968c7.304-8.855,16.679-16.069,27.393-20.286    c1.096-0.432,3.871-1.388,4.174-1.484c0.212,0.067,0.427,0.129,0.638,0.198c15.356,5.024,27.961,16.092,36.724,29.474    c16.22,24.77,21.341,56.029,23.636,84.996c1.608,20.291,1.564,40.721,0.422,61.036c-0.638,12.062-1.597,24.117-2.931,36.122    c-0.445,4.118,2.532,7.817,6.65,8.263c4.118,0.445,7.817-2.532,8.263-6.65c5.72-52.86,5.081-97.992-1.899-134.141    c-4.226-21.895-11.307-43.964-24.467-62.22c-3.674-5.097-7.827-9.872-12.47-14.11c-0.023-0.021-0.045-0.044-0.068-0.065    C310.62,22.324,327.8,30.244,341.805,41.932z M155.066,57.514c16.16-20.453,38.453-33.596,66.523-39.277    c-0.02,0.018-0.038,0.037-0.058,0.055c-5.289,4.76-9.874,10.249-13.897,16.106c-12.618,18.373-19.391,40.246-23.43,61.975    c-3.701,19.911-5.512,42.692-5.4,68.115c0.182,40.588,4.778,81.259,12.161,121.143c0.257,1.39,0.449,2.827,0.792,4.198    c0.012,0.065,0.026,0.138,0.039,0.203h-56.171c-1.983-8.72-4-18.482-5.85-29c-0.002-0.013-0.002-0.025-0.004-0.038    c-5.262-30.408-8.432-61.318-7.535-92.207C123.617,120.776,134.662,83.338,155.066,57.514z M57.985,205.033    c4.034-20.313,16.317-30.188,37.552-30.188c3.623,0,7.497,0.293,11.572,0.875c-0.001,0.091,0.001,0.186,0.001,0.277    c-0.176,22.669,1.617,45.327,4.757,67.769c0.013,0.091,0.025,0.182,0.037,0.272c0.479,3.414,0.985,6.769,1.509,10.068    c0.01,0.063,0.018,0.125,0.028,0.188c-16.745-1.374-39.205-5.846-50.04-19.423C57.289,227.214,55.518,217.454,57.985,205.033z"/>
	</g>
</g>















</svg>
