<?xml version="1.0" encoding="iso-8859-1"?>
<!-- Generator: Adobe Illustrator 19.0.0, SVG Export Plug-In . SVG Version: 6.00 Build 0)  -->
<svg xmlns="http://www.w3.org/2000/svg" xmlns:xlink="http://www.w3.org/1999/xlink" version="1.1" id="Layer_1" x="0px" y="0px" viewBox="0 0 512 512" style="enable-background:new 0 0 512 512;" xml:space="preserve" width="512" height="512">
<g>
	<g>
		<rect x="117.334" y="32.981" style="fill:#AD4F3D;" width="277.332" height="89.591"/>
		<path style="fill:#C86D5C;" d="M128.162,7.5h-21.657c-8.466,0-15.329,6.863-15.329,15.329v466.342    c0,8.466,6.863,15.329,15.329,15.329h21.657c8.466,0,15.329-6.863,15.329-15.329V22.829C143.492,14.363,136.629,7.5,128.162,7.5z"/>
		<path style="fill:#C86D5C;" d="M383.837,7.5h21.657c8.466,0,15.329,6.863,15.329,15.329v466.342    c0,8.466-6.863,15.329-15.329,15.329h-21.657c-8.466,0-15.329-6.863-15.329-15.329V22.829C368.508,14.363,375.371,7.5,383.837,7.5    z"/>
		<path style="fill:#C86D5C;" d="M383.837,7.5h21.657c8.466,0,15.329,6.863,15.329,15.329v466.342    c0,8.466-6.863,15.329-15.329,15.329h-21.657c-8.466,0-15.329-6.863-15.329-15.329V22.829C368.508,14.363,375.371,7.5,383.837,7.5    z"/>
		<path style="fill:#FD6F71;" d="M91.176,305.762c0-48.831,164.824-49.82,164.824-49.82s164.824,0.99,164.824,49.82L256,334.797    L91.176,305.762z"/>
		<rect x="91.176" y="335.762" style="fill:#AD4F3D;" width="52.315" height="58.069"/>
		<rect x="368.508" y="335.762" style="fill:#AD4F3D;" width="52.315" height="58.069"/>
		<path style="fill:#C86D5C;" d="M420.824,305.762H91.176c-9.737,0-17.631,7.894-17.631,17.631V346.2    c0,9.737,7.894,17.631,17.631,17.631h329.648c9.737,0,17.631-7.894,17.631-17.631v-22.807    C438.455,313.656,430.561,305.762,420.824,305.762z"/>
	</g>
	<g>
		<path d="M188.175,88.138c4.142,0,7.5-3.358,7.5-7.5V68.362c0-4.142-3.358-7.5-7.5-7.5s-7.5,3.358-7.5,7.5v12.275    C180.675,84.78,184.033,88.138,188.175,88.138z"/>
		<path d="M323.825,88.138c4.142,0,7.5-3.358,7.5-7.5V68.362c0-4.142-3.358-7.5-7.5-7.5s-7.5,3.358-7.5,7.5v12.275    C316.325,84.78,319.682,88.138,323.825,88.138z"/>
		<path d="M256,94.69c8.688,0,16.848-3.634,22.387-9.97c2.727-3.118,2.408-7.856-0.71-10.583c-3.118-2.726-7.856-2.408-10.583,0.711    c-2.69,3.077-6.734,4.842-11.094,4.842s-8.403-1.765-11.093-4.842c-2.726-3.118-7.464-3.437-10.583-0.711    c-3.119,2.726-3.437,7.464-0.711,10.583C239.151,91.056,247.311,94.69,256,94.69z"/>
		<path d="M383.838,512h21.657c12.588,0,22.829-10.241,22.829-22.829V370.188c10.205-3.198,17.631-12.741,17.631-23.987v-22.807    c0-11.246-7.426-20.79-17.631-23.987V22.829C428.324,10.241,418.083,0,405.495,0h-21.657c-12.588,0-22.829,10.241-22.829,22.829    v2.652H150.992v-2.652C150.992,10.241,140.751,0,128.163,0h-21.657C93.918,0,83.676,10.241,83.676,22.829v50.149    c0,4.142,3.358,7.5,7.5,7.5s7.5-3.358,7.5-7.5V22.829c0-4.317,3.512-7.829,7.829-7.829h21.657c4.317,0,7.829,3.512,7.829,7.829    v239.903c-0.089,0.025-0.175,0.051-0.264,0.076c-7.445,2.087-14.823,4.553-21.878,7.731c-5.928,2.67-10.984,5.59-15.174,8.748    V102.978c0-4.142-3.358-7.5-7.5-7.5s-7.5,3.358-7.5,7.5v196.428c-10.206,3.198-17.631,12.741-17.631,23.987V346.2    c0,11.246,7.426,20.79,17.631,23.987v118.983c0,12.588,10.241,22.829,22.829,22.829h21.657c12.588,0,22.829-10.241,22.829-22.829    v-117.84h210.017v117.84C361.009,501.759,371.25,512,383.838,512z M413.324,489.171c0,4.317-3.512,7.829-7.829,7.829h-21.657    c-4.317,0-7.829-3.512-7.829-7.829v-117.84h37.315V489.171z M376.009,22.829c0-4.317,3.512-7.829,7.829-7.829h21.657    c4.317,0,7.829,3.512,7.829,7.829v256.458c-4.19-3.158-9.246-6.078-15.174-8.748c-7.137-3.214-14.609-5.702-22.142-7.807V22.829z     M361.009,40.481v74.591H150.992V40.481H361.009z M150.992,130.072h210.017v128.981c-6.672-1.439-13.827-2.75-21.454-3.925    c-41.277-6.362-81.804-6.676-83.599-6.686c-1.705,0.01-42.233,0.323-83.51,6.686c-7.627,1.176-14.782,2.486-21.454,3.925V130.072z     M81.045,323.393c0-5.586,4.545-10.131,10.131-10.131h221.885c4.142,0,7.5-3.358,7.5-7.5s-3.358-7.5-7.5-7.5H101.002    c3.277-5.183,8.727-8.715,14.018-11.568c0.043-0.023,0.086-0.047,0.13-0.07c12.921-6.852,33.119-12.583,59.444-16.649    c40.195-6.208,81.044-6.53,81.362-6.533c0.406,0.003,41.119,0.316,81.314,6.512c26.359,4.063,46.586,9.791,59.531,16.643    c5.347,2.83,10.902,6.453,14.198,11.666h-67.938c-4.142,0-7.5,3.358-7.5,7.5s3.358,7.5,7.5,7.5h77.763    c5.586,0,10.131,4.544,10.131,10.131V346.2c0,5.586-4.545,10.131-10.131,10.131H91.176c-5.586,0-10.131-4.545-10.131-10.131    V323.393z M135.992,489.171c0,4.317-3.512,7.829-7.829,7.829h-21.657c-4.317,0-7.829-3.512-7.829-7.829v-117.84h37.315V489.171z"/>
	</g>
</g>















</svg>
