<?xml version="1.0" encoding="iso-8859-1"?>
<!-- Generator: Adobe Illustrator 19.0.0, SVG Export Plug-In . SVG Version: 6.00 Build 0)  -->
<svg xmlns="http://www.w3.org/2000/svg" xmlns:xlink="http://www.w3.org/1999/xlink" version="1.1" id="Layer_1" x="0px" y="0px" viewBox="0 0 512 512" style="enable-background:new 0 0 512 512;" xml:space="preserve" width="512" height="512">
<g>
	<g>
		<circle style="fill:#FADC60;" cx="256" cy="433.198" r="71.302"/>
		<path style="fill:#F2C42C;" d="M224.698,433.198c0-32.433,21.663-59.79,51.302-68.438c-6.348-1.852-13.054-2.864-20-2.864    c-39.379,0-71.302,31.923-71.302,71.302c0,39.379,31.923,71.302,71.302,71.302c6.946,0,13.652-1.012,20-2.864    C246.36,492.988,224.698,465.631,224.698,433.198z"/>
		<polygon style="fill:#3A484A;" points="230.767,276.865 230.767,7.5 281.233,7.5 281.233,276.865 256,292.709   "/>
		<polygon style="fill:#B8B8B8;" points="200.543,329.681 230.767,276.865 281.233,276.865 311.457,329.681 256,348.167   "/>
		<polygon style="fill:#9E9E9E;" points="230.543,329.681 260.767,276.865 230.767,276.865 200.543,329.681 256,348.167     271,343.167   "/>
		<path style="fill:#EFEDEE;" d="M476.462,430.943c-35.065-38.206-102.418-101.262-165.004-101.262H200.543    c-62.587,0-129.939,63.056-165.004,101.262c-10.015,10.912-2.304,28.516,12.507,28.516h415.909    C478.766,459.459,486.477,441.855,476.462,430.943z"/>
		<path style="fill:#D2D2D2;" d="M75.538,430.943c35.065-38.206,102.418-101.262,165.004-101.262h-40    c-62.587,0-129.939,63.056-165.004,101.262c-10.015,10.912-2.304,28.516,12.507,28.516h40    C73.234,459.459,65.523,441.855,75.538,430.943z"/>
	</g>
	<g>
		<path d="M172.742,398.399v-16.425c0-4.143-3.358-7.5-7.5-7.5s-7.5,3.357-7.5,7.5v16.425c0,4.142,3.358,7.5,7.5,7.5    S172.742,402.541,172.742,398.399z"/>
		<path d="M354.257,398.399v-16.425c0-4.143-3.358-7.5-7.5-7.5s-7.5,3.357-7.5,7.5v16.425c0,4.142,3.358,7.5,7.5,7.5    S354.257,402.541,354.257,398.399z"/>
		<path d="M256,414.667c10.894,0,21.117-4.546,28.046-12.474c2.727-3.119,2.408-7.857-0.71-10.583    c-3.118-2.726-7.856-2.408-10.583,0.711c-4.081,4.668-10.187,7.346-16.753,7.346s-12.672-2.678-16.753-7.347    c-2.726-3.119-7.464-3.437-10.583-0.71c-3.119,2.726-3.437,7.464-0.711,10.583C234.883,410.12,245.105,414.667,256,414.667z"/>
		<path d="M48.045,466.959h136.763C197.817,494.482,225.22,512,256,512c30.78,0,58.184-17.518,71.192-45.041h136.763    c9.864,0,18.456-5.607,22.422-14.633c3.973-9.039,2.291-19.175-4.39-26.454c-34.746-37.858-101.864-100.783-166.119-103.583    l-27.135-47.418V108.786c0-4.142-3.358-7.5-7.5-7.5s-7.5,3.358-7.5,7.5v160.579h-35.465V15h35.465v63.786    c0,4.142,3.358,7.5,7.5,7.5s7.5-3.358,7.5-7.5V7.5c0-4.142-3.358-7.5-7.5-7.5h-50.465c-4.142,0-7.5,3.358-7.5,7.5v267.371    l-27.134,47.416c-29.769,1.281-63.082,15.452-99.107,42.19c-3.326,2.469-4.021,7.167-1.553,10.492    c2.469,3.327,7.167,4.021,10.492,1.553c35.172-26.105,66.992-39.341,94.577-39.341h110.915    c59.836,0,125.602,61.922,159.479,98.833c2.636,2.872,3.274,6.713,1.708,10.276c-1.56,3.549-4.809,5.668-8.69,5.668H48.045    c-3.882,0-7.13-2.119-8.69-5.668c-1.566-3.563-0.927-7.404,1.708-10.276c13.737-14.967,27.817-28.733,41.85-40.915    c3.128-2.715,3.462-7.452,0.747-10.58c-2.714-3.127-7.451-3.463-10.58-0.747c-14.459,12.552-28.95,26.717-43.068,42.1    c-6.681,7.279-8.363,17.416-4.39,26.454C29.59,461.352,38.182,466.959,48.045,466.959z M213.476,322.181l21.641-37.816h41.767    l21.641,37.816H213.476z M310.156,466.959C298.659,485.51,278.434,497,256,497s-42.659-11.49-54.156-30.041H310.156z"/>
	</g>
</g>















</svg>
