<?xml version="1.0" encoding="iso-8859-1"?>
<!-- Generator: Adobe Illustrator 19.0.0, SVG Export Plug-In . SVG Version: 6.00 Build 0)  -->
<svg xmlns="http://www.w3.org/2000/svg" xmlns:xlink="http://www.w3.org/1999/xlink" version="1.1" id="Layer_1" x="0px" y="0px" viewBox="0 0 512 512" style="enable-background:new 0 0 512 512;" xml:space="preserve" width="512" height="512">
<g>
	<g>
		<path style="fill:#506366;" d="M85.424,456.782v30.967c0,9.251,7.5,16.751,16.751,16.751h28.753c9.251,0,16.751-7.5,16.751-16.751    v-30.967H85.424z"/>
		<path style="fill:#3A484A;" d="M115.424,487.749v-30.967h-30v30.967c0,9.251,7.5,16.75,16.751,16.75h28.753    c0.21,0,0.415-0.023,0.623-0.031C122.592,504.138,115.424,496.79,115.424,487.749z"/>
		<path style="fill:#506366;" d="M426.575,456.782v30.967c0,9.251-7.5,16.751-16.751,16.751h-28.753    c-9.251,0-16.751-7.5-16.751-16.751v-30.967H426.575z"/>
		<path style="fill:#3A484A;" d="M394.32,487.749v-30.967h-30v30.967c0,9.251,7.5,16.75,16.751,16.75h28.753    c0.21,0,0.415-0.023,0.623-0.031C401.488,504.138,394.32,496.79,394.32,487.749z"/>
		<path style="fill:#D2D2D2;" d="M401.09,7.5H110.91c-14.075,0-25.485,11.41-25.485,25.485v101.563h341.151V32.985    C426.575,18.91,415.165,7.5,401.09,7.5z"/>
		<path style="fill:#B8B8B8;" d="M140.91,7.5h-30c-14.075,0-25.485,11.41-25.485,25.485v101.563h30V32.985    C115.424,18.91,126.835,7.5,140.91,7.5z"/>
		<path style="fill:#506366;" d="M184.422,68.2h-49.313c-8.479,0-15.353,6.874-15.353,15.353v20.813l40.01,15.143l40.01-15.143    V83.553C199.775,75.074,192.901,68.2,184.422,68.2z"/>
		<path style="fill:#506366;" d="M327.578,68.2h49.313c8.479,0,15.353,6.874,15.353,15.353v20.813l-40.009,15.143l-40.01-15.143    V83.553C312.225,75.074,319.099,68.2,327.578,68.2z"/>
		<path style="fill:#FD6F71;" d="M426.575,104.366H85.424c-16.608,0-30.071,13.463-30.071,30.071v307.019    c0,16.608,13.463,30.071,30.071,30.071h341.151c16.608,0,30.071-13.463,30.071-30.071V134.437    C456.647,117.829,443.183,104.366,426.575,104.366z"/>
		<path style="fill:#E34B4C;" d="M85.353,441.456V134.437c0-16.608,13.463-30.071,30.071-30.071h-30    c-16.608,0-30.071,13.463-30.071,30.071v307.019c0,16.608,13.463,30.071,30.071,30.071h30    C98.817,471.528,85.353,458.064,85.353,441.456z"/>
		<g>
			<circle style="fill:#506366;" cx="128.625" cy="160.926" r="22.637"/>
			<circle style="fill:#506366;" cx="213.542" cy="160.926" r="22.637"/>
			<circle style="fill:#506366;" cx="298.458" cy="160.926" r="22.637"/>
			<circle style="fill:#506366;" cx="383.375" cy="160.926" r="22.637"/>
		</g>
		<path style="fill:#506366;" d="M256,226.576L91.753,243.927v163.292c0,12.239,9.922,22.161,22.161,22.161h284.171    c12.239,0,22.161-9.922,22.161-22.161V243.927L256,226.576z"/>
		<path style="fill:#3A484A;" d="M121.753,407.219V243.927L271,228.161l-15-1.584L91.753,243.927v163.292    c0,12.239,9.922,22.161,22.161,22.161h30C131.675,429.38,121.753,419.458,121.753,407.219z"/>
		<path style="fill:#D2D2D2;" d="M420.246,209.226H91.753c-6.896,0-12.487,5.591-12.487,12.487v9.728    c0,6.896,5.591,12.487,12.487,12.487h328.493c6.896,0,12.487-5.591,12.487-12.487v-9.728    C432.733,214.816,427.143,209.226,420.246,209.226z"/>
		<path style="fill:#B8B8B8;" d="M109.266,231.44v-9.728c0-6.896,5.591-12.487,12.487-12.487h-30    c-6.896,0-12.487,5.59-12.487,12.487v9.728c0,6.896,5.591,12.487,12.487,12.487h30    C114.857,243.927,109.266,238.337,109.266,231.44z"/>
	</g>
	<g>
		<path d="M128.625,191.063c16.618,0,30.137-13.52,30.137-30.137c0-16.618-13.519-30.137-30.137-30.137    s-30.137,13.519-30.137,30.137C98.488,177.543,112.007,191.063,128.625,191.063z M128.625,145.79    c8.346,0,15.137,6.791,15.137,15.137s-6.791,15.137-15.137,15.137s-15.137-6.791-15.137-15.137S120.279,145.79,128.625,145.79z"/>
		<path d="M213.541,191.063c16.618,0,30.137-13.52,30.137-30.137c0-16.618-13.519-30.137-30.137-30.137    s-30.137,13.519-30.137,30.137C183.405,177.543,196.924,191.063,213.541,191.063z M213.541,145.79    c8.346,0,15.137,6.791,15.137,15.137s-6.791,15.137-15.137,15.137s-15.137-6.791-15.137-15.137S205.195,145.79,213.541,145.79z"/>
		<path d="M298.458,191.063c16.618,0,30.137-13.52,30.137-30.137c0-16.618-13.519-30.137-30.137-30.137    s-30.137,13.519-30.137,30.137C268.321,177.543,281.84,191.063,298.458,191.063z M298.458,145.79    c8.346,0,15.137,6.791,15.137,15.137s-6.791,15.137-15.137,15.137s-15.137-6.791-15.137-15.137S290.112,145.79,298.458,145.79z"/>
		<path d="M383.374,191.063c16.618,0,30.137-13.52,30.137-30.137c0-16.618-13.519-30.137-30.137-30.137    s-30.137,13.519-30.137,30.137C353.238,177.543,366.757,191.063,383.374,191.063z M383.374,145.79    c8.346,0,15.137,6.791,15.137,15.137s-6.791,15.137-15.137,15.137s-15.137-6.791-15.137-15.137S375.028,145.79,383.374,145.79z"/>
		<path d="M163.152,309.205c-4.142,0-7.5,3.357-7.5,7.5v16.804c0,4.142,3.358,7.5,7.5,7.5s7.5-3.358,7.5-7.5v-16.804    C170.652,312.563,167.294,309.205,163.152,309.205z"/>
		<path d="M348.847,309.205c-4.142,0-7.5,3.357-7.5,7.5v16.804c0,4.142,3.358,7.5,7.5,7.5s7.5-3.358,7.5-7.5v-16.804    C356.347,312.563,352.99,309.205,348.847,309.205z"/>
		<path d="M283.852,326.693c-3.119-2.726-7.857-2.408-10.583,0.711c-4.208,4.813-10.502,7.575-17.269,7.575    s-13.062-2.761-17.27-7.575c-2.727-3.119-7.464-3.437-10.583-0.711c-3.119,2.726-3.437,7.464-0.711,10.583    c7.057,8.073,17.468,12.703,28.563,12.703s21.506-4.63,28.563-12.703C287.289,334.157,286.97,329.419,283.852,326.693z"/>
		<path d="M464.147,441.457v-307.02c0-18.149-12.936-33.332-30.071-36.817V32.985C434.075,14.797,419.278,0,401.09,0H182.479    c-4.142,0-7.5,3.358-7.5,7.5s3.358,7.5,7.5,7.5H401.09c9.917,0,17.985,8.068,17.985,17.985v63.881h-19.332V83.553    c0-12.601-10.251-22.853-22.853-22.853h-49.313c-12.601,0-22.853,10.252-22.853,22.853v13.313h-97.45V83.553    c0-12.601-10.252-22.853-22.853-22.853h-49.313c-12.601,0-22.853,10.252-22.853,22.853v13.313H92.924V32.985    c0-9.917,8.068-17.985,17.985-17.985h41.569c4.142,0,7.5-3.358,7.5-7.5s-3.358-7.5-7.5-7.5h-41.569    C92.721,0,77.924,14.797,77.924,32.985V97.62c-17.135,3.485-30.071,18.668-30.071,36.817v307.02    c0,18.149,12.936,33.332,30.071,36.817v9.475c0,13.372,10.879,24.251,24.251,24.251h28.753c13.372,0,24.251-10.879,24.251-24.251    v-8.722h201.641v8.722c0,13.372,10.879,24.251,24.25,24.251h28.753c13.372,0,24.251-10.879,24.251-24.251v-9.475    C451.211,474.789,464.147,459.605,464.147,441.457z M319.725,83.553c0-4.33,3.523-7.853,7.853-7.853h49.313    c4.33,0,7.853,3.523,7.853,7.853v13.313h-65.019V83.553z M127.256,83.553c0-4.33,3.523-7.853,7.853-7.853h49.313    c4.33,0,7.853,3.523,7.853,7.853v13.313h-65.019V83.553z M140.179,487.749c0,5.101-4.15,9.251-9.251,9.251h-28.753    c-5.101,0-9.251-4.15-9.251-9.251v-8.722h47.255V487.749z M419.075,487.749c0,5.101-4.15,9.251-9.251,9.251h-28.753    c-5.101,0-9.25-4.15-9.25-9.251v-8.722h47.255V487.749z M449.147,441.457c0,12.446-10.125,22.571-22.571,22.571H85.424    c-12.446,0-22.571-10.125-22.571-22.571v-307.02c0-12.446,10.125-22.571,22.571-22.571h341.151    c12.446,0,22.571,10.125,22.571,22.571V441.457z"/>
		<path d="M420.246,201.726H91.753c-11.021,0-19.987,8.966-19.987,19.987v9.728c0,8.368,5.174,15.54,12.487,18.514v157.265    c0,16.355,13.306,29.661,29.661,29.661h284.171c16.355,0,29.661-13.306,29.661-29.661V249.954    c7.313-2.974,12.487-10.146,12.487-18.514v-9.728C440.233,210.691,431.267,201.726,420.246,201.726z M412.746,407.219    c0,8.084-6.577,14.661-14.661,14.661H113.914c-8.084,0-14.661-6.577-14.661-14.661V251.427h233.226c4.142,0,7.5-3.358,7.5-7.5    c0-4.029-3.465-7.5-7.5-7.5H91.753c-2.75,0-4.987-2.237-4.987-4.987v-9.728c0-2.75,2.237-4.987,4.987-4.987h328.493    c2.75,0,4.987,2.237,4.987,4.987v9.728c0,2.75-2.237,4.987-4.987,4.987h-57.768c-4.046,0-7.5,3.449-7.5,7.5    c0,4.142,3.358,7.5,7.5,7.5h50.268V407.219z"/>
	</g>
</g>















</svg>
