<svg height="512pt" viewBox="0 -112 512.00937 512" width="512pt" xmlns="http://www.w3.org/2000/svg"><path d="m230.007812 255.804688c110.601563 52.5 255.800782 7.101562 274.402344-11.398438l-74.800781-62.5zm0 0" fill="#4baa54"/><path d="m504.410156 244.40625c-69-36.5-193.402344-29.703125-274.402344 11.398438-38.398437 19.5-84.699218 23.699218-125.5 20-45.097656-4.101563-83.5-17.898438-96.898437-31.398438l116-97 61.097656-13.101562 71.203125-15.199219 132.398438 28.300781zm0 0" fill="#7ace84"/><path d="m193.609375 137.804688-89 138c-45.101563-4.101563-83.5-17.898438-96.902344-31.398438l116-97 61.101563-13.101562zm0 0" fill="#4baa54"/><path d="m388.410156 147.40625c5-46.5-33.402344-139.800781-132.402344-139.800781s-137.398437 93.300781-132.398437 139.800781c87.5-16.5 177.300781-16.5 264.800781 0zm0 0" fill="#7ace84"/><path d="m291.207031 11.90625c-67.5 17.5-97 83.898438-97.597656 125.898438-23.402344 2.101562-46.800781 5.300781-69.902344 9.601562-5.097656-46.5 33.300781-139.800781 132.300781-139.800781 12.699219 0 24.402344 1.5 35.199219 4.300781zm0 0" fill="#4baa54"/><path d="m388.410156 147.40625c-43.703125-8.203125-88-12.402344-132.402344-12.402344-44.398437 0-88.597656 4.101563-132.398437 12.402344-1.199219-10.902344 0-24.402344 3.898437-38.601562 42.5-7.800782 85.5-11.601563 128.5-11.601563s86 3.902344 128.5 11.601563c3.800782 14.300781 5 27.699218 3.902344 38.601562zm0 0" fill="#cce6f6"/><path d="m127.507812 108.804688c-3.800781 14.199218-5 27.699218-3.898437 38.601562 22.898437-4.300781 46-7.5 69.097656-9.5.300781 0 .5-.101562.800781-.101562.199219-11.5 2.5-24.800782 7.199219-38.5-24.5 1.898437-48.898437 5.101562-73.199219 9.5zm0 0" fill="#9dcae0"/><path d="m509.308594 238.605469-113-94.5c1.398437-26.902344-9.5-68-38-99.699219-18.199219-20.203125-50.699219-44.40234375-102.199219-44.40234375s-84 24.10156275-102.199219 44.40234375c-28.5 31.699219-39.5 72.898438-38 99.699219l-113 94.5c-1.800781 1.300781-2.800781 3.300781-2.9023435 5.398437-.0976563 2.101563.6992185 4.199219 2.1992185 5.699219 15 15 53.101563 28.203125 95 32.902344 9.101563 1 20.703125 1.898437 33.902344 1.898437 28.898437 0 65.398437-4.199218 99-20.398437 40.300781 18.300781 83.5 23.597656 119.898437 23.597656 23.601563 0 44.300782-2.199219 59.5-4.5 4.199219-.597656 7-4.5 6.402344-8.699219-.601562-4.199218-4.5-7-8.703125-6.398437-34.597656 5.300781-98.898437 10-158.5-12.800781 35.800781-15.199219 79.703125-24.898438 123.300781-26.898438 45-2.101562 85.800782 3.898438 116.699219 16.796875-10.398437 5.101563-27.796875 11.601563-52.199219 17.203125-4.097656.898438-6.597656 5-5.699218 9.097656.800781 3.5 3.898437 5.902344 7.398437 5.902344.601563 0 1.101563-.101562 1.703125-.203125 32.699219-7.597656 60.796875-18.699219 69.796875-27.699219.300781-.300781.601563-.699218.902344-1.097656 2.300781-3 1.699219-7.300781-1.300781-9.800781zm-344.199219-184.101563c16.097656-17.898437 45-39.300781 90.898437-39.300781 45.902344 0 74.800782 21.402344 90.902344 39.300781 12.398438 13.800782 21.097656 29.5 26.597656 44.699219-38.699218-6.398437-78.199218-9.597656-117.5-9.597656-21.398437 0-43.199218 1-64.699218 2.898437-4.199219.402344-7.300782 4.101563-6.898438 8.300782.398438 4.199218 4.097656 7.300781 8.296875 6.898437 21.101563-1.898437 42.402344-2.796875 63.402344-2.796875 41 0 82.097656 3.597656 122.300781 10.699219 1.898438 8.199219 2.796875 16 2.796875 22.898437-41.597656-7.300781-83.398437-11-125.199219-11-41.800781 0-83.597656 3.699219-125.199218 11 .101562-6.898437 1-14.699218 2.800781-22.898437 9.597656-1.699219 19.398437-3.199219 29.199219-4.5 4.199218-.601563 7.101562-4.402344 6.5-8.5-.601563-4.199219-4.398438-7.101563-8.5-6.5-7.5 1-14.898438 2.097656-22.398438 3.300781 5.597656-15.402344 14.296875-31.101562 26.699219-44.902344zm61.5 194.5c-72.300781 36.601563-173.699219 16.902344-207-4.800781l107.398437-89.699219c85.601563-15.898437 172.402344-15.898437 258 0l80.5 67.300782c-71.300781-18.101563-168.898437-8.300782-238.898437 27.199218zm0 0"/><path d="m429.609375 181.90625-199.5 82.296875" fill="#4baa54"/></svg>