<svg height="511pt" viewBox="0 -11 511.99746 511" width="511pt" xmlns="http://www.w3.org/2000/svg"><path d="m368.863281 431.75v5.738281c0 24.699219-50.53125 44.710938-112.863281 44.710938-62.34375 0-112.875-20.011719-112.875-44.710938v-5.738281" fill="#343c3f"/><path d="m504.394531 405.765625s-21.785156 26.148437-61.011719 15.980469l-62.699218-226.609375v226.871093s-30.261719 31.957032-124.683594 31.957032c-40.796875 0-69.621094-5.960938-89.199219-12.742188-25.730469-8.902344-35.496093-19.214844-35.496093-19.214844v-226.871093l-62.695313 226.609375c-39.21875 10.167968-61.003906-15.980469-61.003906-15.980469 7.257812-159.78125 66.8125-297.78125 66.8125-297.78125 26.296875-26.296875 63.832031-43.808594 80.683593-50.824219l201.796876-.007812c16.859374 7.023437 54.375 24.535156 80.671874 50.832031 0 0 59.554688 138 66.824219 297.78125zm0 0" fill="#515a5e"/><g fill="#343c3f"><path d="m179.566406 55.367188-6.449218 24.160156c-41.933594 21.078125-103.332032 53.472656-144.476563 294.910156-2.613281 15.382812-5.3125 29.199219-8.050781 41.609375-8.523438-4.917969-12.984375-10.28125-12.984375-10.28125 7.257812-159.78125 66.8125-297.78125 66.8125-297.78125 34.867187-34.863281 89.472656-54.289063 89.472656-54.289063zm0 0"/><path d="m166.800781 202.671875v238.550781c-25.730469-8.902344-35.496093-19.214844-35.496093-19.214844v-226.871093c0-24.027344-9.753907-46.496094-9.753907-46.496094s45.25 6.207031 45.25 54.03125zm0 0"/><path d="m472.132812 423.113281-.039062.023438c-8.152344 1.457031-17.753906 1.449219-28.710938-1.390625l-62.699218-226.609375c0-24.027344 9.765625-46.496094 9.765625-46.496094zm0 0"/><path d="m504.394531 405.765625s-21.785156 26.148437-61.011719 15.980469l-11.164062-40.351563c17.882812 0 50.691406 0 69.003906-18.3125h.011719c1.425781 13.992188 2.503906 28.25 3.160156 42.683594zm0 0"/><path d="m7.605469 405.765625s21.785156 26.148437 61.011719 15.980469l11.164062-40.351563c-17.886719 0-50.695312 0-69.003906-18.3125h-.011719c-1.429687 13.992188-2.503906 28.25-3.160156 42.683594zm0 0"/></g><path d="m358.429688 47.507812c0 17.46875-19.527344 46.285157-35.769532 67.242188-10.492187 13.523438-30.984375 13.390625-41.363281-.214844l-25.296875-33.121094-25.296875 33.121094c-10.390625 13.605469-30.882813 13.738282-41.375.214844-16.242187-20.957031-35.769531-49.773438-35.769531-67.242188 0-29.90625 43.6875-39.40625 102.441406-39.40625 58.742188 0 102.429688 9.5 102.429688 39.40625zm0 0" fill="#f0c398"/><path d="m311.113281 57.566406c-11.191406 14.296875-55.113281 23.847656-55.113281 23.847656l-25.296875 33.121094c-10.390625 13.605469-30.882813 13.738282-41.375.214844-16.242187-20.957031-35.769531-49.773438-35.769531-67.242188 0-29.90625 43.6875-39.40625 102.441406-39.40625 51.484375 2.96875 55.113281 49.464844 55.113281 49.464844zm0 0" fill="#d89d6c"/><path d="m272.863281 140.21875c0 9.316406-7.550781 16.867188-16.863281 16.867188s-16.863281-7.550782-16.863281-16.867188c0-9.3125 7.550781-16.863281 16.863281-16.863281s16.863281 7.550781 16.863281 16.863281zm0 0" fill="#cce6f6"/><path d="m272.863281 190.820312c0-9.316406-7.550781-33.734374-16.863281-33.734374-9.316406 0-16.867188 24.421874-16.867188 33.734374s7.550782 16.863282 16.867188 16.863282c9.3125 0 16.863281-7.550782 16.863281-16.863282zm0 0" fill="#cce6f6"/><path d="m475.5625 194.839844c-15.75-54.304688-30.394531-88.441406-31.007812-89.867188-.382813-.882812-.925782-1.683594-1.605469-2.363281-24.171875-24.171875-56.828125-40.980469-77.316407-49.988281.261719-1.792969.402344-3.496094.402344-5.109375 0-22.007813-18.691406-32.886719-34.375-38.132813-17.851562-5.976562-42.601562-8.878906-75.664062-8.878906-33.058594 0-57.808594 2.902344-75.660156 8.878906-15.683594 5.246094-34.378907 16.125-34.378907 38.132813 0 1.613281.140625 3.324219.40625 5.117187-20.492187 9.003906-53.148437 25.804688-77.324219 49.980469-.675781.679687-1.222656 1.484375-1.601562 2.367187-.34375.792969-8.515625 19.832032-19.253906 52.082032-1.328125 3.984375.828125 8.289062 4.8125 9.613281.796875.265625 1.605468.394531 2.402344.394531 3.183593 0 6.152343-2.019531 7.214843-5.207031 6.664063-20.023437 12.398438-35.027344 15.722657-43.378906 30.605468 16.613281 45.085937 40.855469 45.355468 75.660156l-49.699218 179.625c-16.28125-.15625-40.484376-1.535156-55.242188-13.714844 7.203125-67.183593 22.25-127.59375 34.796875-169.484375 1.203125-4.023437-1.078125-8.261718-5.101563-9.464844-4.023437-1.207031-8.261718 1.078126-9.464843 5.101563-15.605469 52.101563-35.03125 132.425781-38.9726565 219.21875-.0859375 1.898437.5390625 3.753906 1.7539065 5.214844.660156.789062 6.777343 7.902343 18.1875 13.710937 10.617187 5.398438 28.003906 10.609375 50.566406 4.757813 2.628906-.679688 4.695313-2.714844 5.421875-5.332031l47.761719-172.636719v170.871093c0 1.949219.746093 3.820313 2.085937 5.230469.382813.40625 3.367188 3.449219 9.738282 7.570313v2.679687c0 29.828125 51.792968 52.316407 120.476562 52.316407 68.675781 0 120.464844-22.488282 120.464844-52.316407v-2.675781c6.371094-4.121094 9.355468-7.167969 9.738281-7.574219 1.335937-1.410156 2.082031-3.28125 2.082031-5.226562v-170.875l47.765625 172.636719c.722657 2.617187 2.789063 4.652343 5.421875 5.332031 22.566406 5.851562 39.957032.644531 50.574219-4.757813 11.410156-5.808594 17.53125-12.921875 18.1875-13.710937 1.214844-1.460938 1.839844-3.320313 1.753906-5.214844-3.785156-83.285156-21.898437-160.484375-36.425781-210.582031zm17.683594 165.207031c-14.757813 12.183594-38.96875 13.5625-55.25 13.71875l-49.695313-179.609375c.269531-34.808594 14.742188-59.050781 45.34375-75.667969 10.785157 27.195313 47.113281 125.300781 59.601563 241.558594zm-120.167969 58.523437c-2.984375 2.371094-9.253906 6.738282-19.65625 11.289063v-72.746094c0-4.199219-3.40625-7.605469-7.605469-7.605469-4.199218 0-7.605468 3.40625-7.605468 7.605469v78.402344c-25.089844 7.894531-52.832032 10.339844-74.609376 10.773437v-232.214843c9.78125-3.207031 16.867188-12.417969 16.867188-23.253907 0-6.097656-3.066406-21.050781-9.589844-31.195312 5.824219-4.476562 9.589844-11.507812 9.589844-19.40625 0-10.835938-7.085938-20.046875-16.867188-23.253906v-13.0625l11.644532 15.246094c6.410156 8.394531 16.144531 13.230468 26.710937 13.269531h.128907c10.480468 0 20.164062-4.742188 26.582031-13.015625 9.351562-12.0625 16.964843-23.015625 22.820312-32.824219 11.082031 4.484375 35.734375 16.378906 48.816407 37.582031-16.652344 16.523438-25.574219 37.515625-27.011719 63.375h-62.339844c-4.199219 0-7.601563 3.40625-7.601563 7.605469v69.730469c0 2.589844 1.316407 5 3.496094 6.398437l31.363282 20.128907v35.316406c0 4.199218 3.40625 7.605468 7.605468 7.605468 4.199219 0 7.605469-3.40625 7.605469-7.605468v-35.3125l19.65625-12.617188zm-117.078125-287.609374c5.105469 0 9.261719 4.152343 9.261719 9.257812 0 5.109375-4.15625 9.261719-9.261719 9.261719s-9.261719-4.152344-9.261719-9.261719c0-5.105469 4.15625-9.257812 9.261719-9.257812zm0 34.085937c3.75 3.277344 9.261719 18.265625 9.261719 25.773437 0 5.105469-4.15625 9.261719-9.261719 9.261719s-9.261719-4.15625-9.261719-9.261719c0-7.507812 5.511719-22.496093 9.261719-25.773437zm117.078125 46.351563-27.257813 17.492187-27.261718-17.492187v-8.652344h54.519531zm-27.257813 66.8125-27.261718-17.496094v-31.246094l23.152344 14.855469c1.253906.804687 2.679687 1.207031 4.109374 1.207031 1.425782 0 2.855469-.402344 4.105469-1.207031l23.15625-14.855469v31.246094zm78.65625-172.023438c-4.453124 2.511719-8.609374 5.183594-12.476562 8.019531-15.027344-22.867187-40.148438-35.675781-53.222656-41.113281.941406-1.972656 1.785156-3.882812 2.546875-5.738281 15.726562 7.0625 41.949219 20.402343 63.152343 38.832031zm-168.480468-90.480469c43.261718 0 94.832031 5.515625 94.832031 31.804688 0 11.757812-12.457031 34.5625-34.179687 62.574219-3.511719 4.53125-8.816407 7.125-14.5625 7.125-.023438 0-.046876 0-.070313 0-5.808594-.019532-11.160156-2.679688-14.679687-7.292969l-18.28125-23.933594c14.746093-4.074219 39.050781-12.242187 48.046874-23.726563 2.589844-3.304687 2.011719-8.085937-1.292968-10.671874-3.304688-2.589844-8.085938-2.011719-10.675782 1.292968-6.683593 8.527344-32.976562 17.042969-49.132812 20.742188-16.152344-3.699219-42.453125-12.214844-49.148438-20.746094-2.597656-3.304688-7.375-3.878906-10.675781-1.289062-3.304687 2.59375-3.882812 7.375-1.289062 10.679687 9.007812 11.476563 33.304687 19.640625 48.050781 23.71875l-18.277344 23.933594c-3.523437 4.613281-8.875 7.269531-14.679687 7.292969-5.761719.042968-11.109375-2.574219-14.636719-7.125-21.722656-28.011719-34.179688-50.816407-34.179688-62.574219 0-26.289063 51.570313-31.804688 94.832032-31.804688zm-102.78125 57.390625c-13.074219 5.433594-38.195313 18.242188-53.222656 41.109375-3.867188-2.835937-8.023438-5.507812-12.476563-8.019531 21.203125-18.433594 47.429687-31.765625 63.15625-38.824219.757813 1.851563 1.601563 3.761719 2.542969 5.734375zm-41.527344 51.0625c13.078125-21.203125 37.734375-33.097656 48.816406-37.582031 5.855469 9.8125 13.464844 20.761719 22.820313 32.824219 6.417969 8.277344 16.101562 13.015625 26.582031 13.015625h.128906c10.566406-.039063 20.300782-4.875 26.710938-13.269531l11.648437-15.257813v13.078125c-9.777343 3.203125-16.863281 12.414062-16.863281 23.25 0 7.898438 3.765625 14.929688 9.589844 19.40625-6.523438 10.148438-9.589844 25.097656-9.589844 31.195312 0 10.835938 7.085938 20.046876 16.863281 23.253907v232.214843c-21.777343-.433593-49.523437-2.878906-74.621093-10.773437v-144.113281l31.371093-20.132813c2.175781-1.398437 3.496094-3.808593 3.496094-6.398437v-69.730469c0-4.199219-3.402344-7.601563-7.605469-7.601563h-62.335937c-1.4375-25.863281-10.359375-46.855468-27.011719-63.378906zm54.484375 154.050782-27.261719-17.496094v-31.246094l23.15625 14.855469c1.25.804687 2.679688 1.207031 4.105469 1.207031 1.429687 0 2.855469-.402344 4.109375-1.207031l23.152344-14.855469v31.246094zm27.261719-66.8125-27.261719 17.492187-27.261719-17.492187v-8.652344h54.523438zm-54.523438 207.175781v-139.789063l19.65625 12.613282v138.460937c-10.421875-4.558594-16.695312-8.929687-19.65625-11.285156zm-123.554687-15.714844c.429687-8.59375 1.019531-17.117187 1.734375-25.554687 16.511718 9.457031 37.167968 11.265624 52.710937 11.609374l-7.3125 26.425782c-25.640625 4.972656-41.816406-7.460938-47.132812-12.480469zm137.296875 40.996094c19.097656 8.316406 49.667968 16.792969 95.742187 17.640625v12.988281c-26.332031-.707031-50.75-5.054687-69.410156-12.449219-13.277344-5.257812-22.539063-11.738281-26.332031-18.179687zm180.351562 18.179687c-18.660156 7.394532-43.074218 11.742188-69.398437 12.449219v-12.988281c46.066406-.847656 76.632812-9.320313 95.730469-17.636719-3.796876 6.441406-13.058594 12.917969-26.332032 18.175781zm116.492188-46.695312-7.3125-26.425782c15.546875-.34375 36.210937-2.152343 52.722656-11.613281.71875 8.449219 1.308594 16.96875 1.738281 25.558594-5.351562 5.046875-21.523437 17.445313-47.148437 12.480469zm0 0"/><path d="m244.953125 38.382812h22.085937c4.199219 0 7.605469-3.40625 7.605469-7.605468 0-4.199219-3.40625-7.601563-7.605469-7.601563h-22.085937c-4.203125 0-7.605469 3.402344-7.605469 7.601563 0 4.199218 3.40625 7.605468 7.605469 7.605468zm0 0"/><path d="m492.332031 393.113281c-.621093-2.992187-2.964843-5.367187-5.972656-5.972656-3.109375-.625-6.375.824219-8.003906 3.546875-1.699219 2.839844-1.328125 6.554688.886719 9.011719 2.171874 2.40625 5.757812 3.152343 8.71875 1.84375 3.183593-1.40625 5.089843-5.003907 4.371093-8.429688zm0 0"/><path d="m34.140625 391.683594c-1.234375-2.914063-4.207031-4.851563-7.394531-4.683594-3.25.171875-6.074219 2.4375-6.949219 5.570312-1.867187 6.6875 5.945313 12.261719 11.667969 8.261719 2.902344-2.027343 4.023437-5.875 2.675781-9.148437zm0 0"/></svg>