<svg height="512pt" viewBox="-84 0 512 512.00101" width="512pt" xmlns="http://www.w3.org/2000/svg"><path d="m336.550781 128.636719-33.050781 375.757812h-98.46875l-32.957031-323.523437-32.953125 323.523437h-98.464844l-33.054688-375.757812 12.910157-54.839844 6.800781-28.902344h289.519531zm0 0" fill="#515a5e"/><g fill="#343c3f"><path d="m230.855469 504.394531h-25.824219l-32.957031-323.523437c29.714843 0 49.503906 162.675781 58.78125 323.523437zm0 0"/><path d="m69.722656 504.394531h-29.066406l-33.054688-375.757812 12.910157-54.839844 48.582031 10.34375c-23.773438 23.773437-31.074219 197.226563.628906 420.253906zm0 0"/><path d="m27.316406 44.894531h56.300782c0 37.292969-41.03125 71.507813-76.011719 83.746094zm0 0"/><path d="m336.554688 128.640625c-34.988282-12.238281-76.019532-46.457031-76.019532-83.746094h56.300782zm0 0"/></g><path d="m27.316406 7.605469h289.53125v37.289062h-289.53125zm0 0" fill="#f0c398"/><path d="m27.316406 7.605469h67.511719v37.289062h-67.511719zm0 0" fill="#d89d6c"/><path d="m343.953125 126.894531-19.5-82.816406v-36.472656c0-4.199219-3.402344-7.605469-7.605469-7.605469h-202.199218c-4.203126 0-7.605469 3.40625-7.605469 7.605469s3.402343 7.601562 7.605469 7.601562h8.910156v22.085938h-61.566406v-22.085938h22.238281c4.199219 0 7.601562-3.402343 7.601562-7.601562s-3.402343-7.605469-7.601562-7.605469h-56.914063c-4.199218 0-7.605468 3.40625-7.605468 7.605469v36.390625l-19.507813 82.898437c-.1875.789063-.2460938 1.605469-.171875 2.410157l33.050781 375.757812c.34375 3.925781 3.632813 6.9375 7.574219 6.9375h98.464844c3.902344 0 7.171875-2.953125 7.566406-6.832031l25.386719-249.269531 11.171875 109.617187c.425781 4.179687 4.144531 7.21875 8.335937 6.796875 4.175781-.425781 7.21875-4.160156 6.792969-8.335938l-18.738281-183.875c-.394531-3.882812-3.660157-6.835937-7.5625-6.835937-3.902344 0-7.167969 2.953125-7.566407 6.835937l-32.253906 316.691407h-84.632812l-31.9375-363.09375c17.59375-7.113281 34.984375-18.621094 48.445312-32.183594 15.386719-15.507813 24.464844-32.308594 26.59375-49.019531h91.203125v68.523437h-27.285156c-4.199219 0-7.605469 3.402344-7.605469 7.601563 0 4.199218 3.40625 7.605468 7.605469 7.605468h34.886719c4.199218 0 7.605468-3.40625 7.605468-7.605468v-76.121094h56.300782c2.128906 16.710938 11.207031 33.511719 26.597656 49.019531 13.457031 13.5625 30.851562 25.070313 48.445312 32.183594l-31.9375 363.089844h-84.636718l-10.457032-102.632813c-.421874-4.179687-4.15625-7.226562-8.332031-6.796875-4.179687.425781-7.222656 4.160157-6.796875 8.335938l11.152344 109.46875c.398438 3.878906 3.664062 6.832031 7.566406 6.832031h98.464844c3.945312 0 7.230469-3.011719 7.574219-6.9375l33.054687-375.757812c.070313-.808594.011719-1.621094-.175781-2.410157zm-34.707031-89.601562h-11.867188v-22.085938h11.867188zm-90.546875 0v-22.085938h63.472656v22.085938zm-183.777344-22.085938h11.863281v22.085938h-11.863281zm-16.484375 100.59375 14.898438-63.300781h41.976562c-4.417969 25.261719-29.875 49.890625-56.875 63.300781zm120.328125-78.507812v-22.085938h64.726563v22.085938zm130.074219 15.207031h41.96875l14.90625 63.300781c-26.996094-13.410156-52.457032-38.039062-56.875-63.300781zm0 0"/><path d="m85.988281 117c-.019531 0-.039062 0-.0625 0-4.199219.035156-7.574219 3.464844-7.542969 7.664062l2.753907 352.78125c.035156 4.179688 3.433593 7.542969 7.605469 7.542969h.058593c4.199219-.03125 7.578125-3.464843 7.546875-7.664062l-2.757812-352.777344c-.03125-4.179687-3.429688-7.546875-7.601563-7.546875zm0 0"/><path d="m255.410156 484.988281c4.171875 0 7.570313-3.363281 7.605469-7.542969l2.753906-352.78125c.03125-4.199218-3.347656-7.628906-7.542969-7.664062-.019531 0-.042968 0-.0625 0-4.171874 0-7.570312 3.367188-7.601562 7.546875l-2.757812 352.777344c-.03125 4.199219 3.347656 7.632812 7.546874 7.664062zm0 0"/><path d="m192.105469 33.699219c.484375-.089844.964843-.242188 1.417969-.425781.457031-.191407.902343-.425782 1.308593-.699219.425781-.285157.8125-.597657 1.15625-.945313 1.417969-1.417968 2.230469-3.375 2.230469-5.382812 0-1.996094-.8125-3.964844-2.230469-5.371094-.34375-.355469-.730469-.671875-1.15625-.945312-.40625-.273438-.851562-.515626-1.308593-.699219-.453126-.191407-.933594-.335938-1.417969-.433594-.984375-.203125-1.996094-.203125-2.972657 0-.484374.097656-.960937.242187-1.425781.433594-.457031.183593-.90625.425781-1.308593.699219-.417969.273437-.8125.589843-1.15625.945312-.355469.34375-.671876.738281-.945313 1.152344-.285156.417968-.515625.855468-.699219 1.308594-.191406.46875-.34375.945312-.4375 1.429687-.097656.488281-.148437.984375-.148437 1.480469 0 2.007812.808593 3.964844 2.230469 5.382812.34375.347656.738281.660156 1.15625.945313.402343.273437.851562.507812 1.308593.699219.464844.183593.941407.335937 1.425781.425781.488282.101562.984376.152343 1.480469.152343.496094 0 .996094-.050781 1.492188-.152343zm0 0"/></svg>