<svg height="511pt" viewBox="0 -44 511.99917 511" width="511pt" xmlns="http://www.w3.org/2000/svg"><path d="m90.761719 31.671875c107.925781-31.359375 222.550781-31.359375 330.488281 0l-41.679688 48.933594-280.097656-7.925781zm0 0" fill="#515a5e"/><path d="m466.628906 327.964844c12.644532-3.074219 25.234375-6.4375 37.765625-10.078125-27.71875-95.394531-55.4375-190.808594-83.15625-286.214844-107.925781 31.359375-222.550781 31.359375-330.488281 0-27.71875 95.40625-55.425781 190.820313-83.144531 286.214844 12.53125 3.640625 25.113281 6.996093 37.753906 10.078125" fill="#4695bc"/><path d="m103.546875 98.140625h163.71875v278.386719h-126.785156c-33.996094-5.878906-67.726563-14.355469-100.980469-25.4375 21.351562-84.3125 42.703125-168.636719 64.046875-252.949219zm0 0" fill="#0e708e"/><path d="m472.488281 351.089844c-33.253906 11.082031-66.984375 19.558594-100.980469 25.4375h-72.570312v-278.386719h109.507812c21.347657 84.3125 42.691407 168.636719 64.042969 252.949219zm0 0" fill="#0e708e"/><path d="m438.394531 90.679688c-95.75 26.15625-195.738281 31.339843-293.160156 15.53125-24.058594-3.890626-47.964844-9.074219-71.609375-15.53125 5.710938-19.667969 11.417969-39.339844 17.136719-59.007813 24.089843 6.996094 48.503906 12.441406 73.109375 16.304687 85.648437 13.492188 173.542968 8.058594 257.378906-16.304687 5.71875 19.667969 11.425781 39.339844 17.144531 59.007813zm0 0" fill="#4695bc"/><path d="m163.871094 47.976562-18.636719 58.234376c-24.058594-3.890626-47.964844-9.074219-71.609375-15.53125 5.710938-19.667969 11.417969-39.339844 17.136719-59.007813 24.089843 6.996094 48.503906 12.441406 73.109375 16.304687zm0 0" fill="#0e708e"/><path d="m339.785156 110.042969c11.050782 92.910156 22.121094 185.832031 33.183594 278.753906-51.554688 36.539063-182.394531 36.539063-233.949219 0 11.0625-92.921875 22.132813-185.84375 33.183594-278.753906" fill="#4695bc"/><path d="m511.699219 315.761719-83.160157-286.210938c-.5625-1.9375-1.871093-3.570312-3.636718-4.542969-.472656-.253906-.960938-.457031-1.46875-.609374-.019532-.007813-.039063-.023438-.0625-.027344-78.878906-22.917969-160.207032-29.375-241.71875-19.191406-4.167969.519531-7.121094 4.320312-6.601563 8.488281s4.328125 7.121093 8.488281 6.601562c69.949219-8.738281 139.761719-4.898437 207.929688 11.394531-89.144531 21.257813-181.746094 21.261719-270.894531.011719 11.046875-2.632812 22.171875-4.957031 33.292969-6.933593 4.132812-.734376 6.890624-4.679688 6.15625-8.816407-.738282-4.136719-4.6875-6.890625-8.816407-6.15625-21.019531 3.734375-42.070312 8.648438-62.570312 14.601563-.003907.003906-.011719.007812-.019531.007812-2.40625.707032-4.417969 2.585938-5.167969 5.171875 0 0-67.824219 233.476563-83.148438 286.214844-.5625 1.933594-.332031 4.015625.640625 5.785156.96875 1.765625 2.605469 3.074219 4.542969 3.636719 10.085937 2.929688 20.355469 5.710938 30.628906 8.304688-1.328125 5.242187-2.65625 10.488281-3.984375 15.730468-.976562 3.859375 1.1875 7.824219 4.96875 9.082032 31.0625 10.351562 62.980469 18.5625 94.984375 24.445312l-.613281 5.148438c-.328125 2.765624.882812 5.492187 3.15625 7.101562 25.445312 18.035156 70.820312 28.804688 121.371094 28.804688 50.546875 0 95.921875-10.769532 121.371094-28.804688 2.273437-1.609375 3.484374-4.335938 3.152343-7.101562l-.613281-5.148438c32.003906-5.882812 63.921875-14.09375 94.984375-24.445312 3.78125-1.257813 5.945313-5.21875 4.96875-9.082032l-3.980469-15.726562c10.164063-2.566406 20.433594-5.34375 30.636719-8.308594 1.9375-.5625 3.570313-1.871094 4.542969-3.640625.96875-1.765625 1.203125-3.847656.640625-5.785156zm-415.753907-274.710938c104.890626 29.046875 215.21875 29.046875 320.097657 0l12.863281 44.265625c-113.304688 29.574219-232.523438 29.574219-345.820312 0zm-78.910156 271.621094c14.613282-50.289063 61.804688-212.746094 61.804688-212.746094 5.132812 1.34375 10.273437 2.648438 15.429687 3.871094-18.136719 71.652344-36.28125 143.308594-54.429687 214.960937-7.625-1.925781-15.253906-3.960937-22.804688-6.085937zm116.851563 54.925781c-28.691407-5.316406-57.3125-12.523437-85.273438-21.523437 20.167969-79.644531 40.339844-159.296875 60.5-238.941407 18.113281 3.886719 36.339844 7.0625 54.648438 9.492188-6.710938 56.4375-13.433594 112.875-20.152344 169.316406zm244.214843 0-3.210937-26.976562c-.496094-4.171875-4.285156-7.152344-8.449219-6.652344-4.167968.496094-7.148437 4.277344-6.652344 8.449219l5.078126 42.640625c-23.625 14.792968-63.804688 23.535156-108.871094 23.535156-45.070313 0-85.25-8.742188-108.871094-23.535156l11.585938-97.320313c5.164062-43.359375 11.582031-97.257812 20.148437-169.292969 25.628906 2.839844 51.378906 4.28125 77.136719 4.28125 25.746094 0 51.5-1.441406 77.128906-4.28125 6.570312 55.230469 11 92.402344 15.101562 126.847657l7.972657 66.972656c.460937 3.863281 3.742187 6.703125 7.542969 6.703125.300781 0 .605468-.015625.90625-.050781 4.171874-.496094 7.152343-4.28125 6.652343-8.449219l-7.972656-66.976562c-4.105469-34.449219-8.535156-71.625-15.101563-126.871094 18.308594-2.429688 36.539063-5.605469 54.648438-9.488282 10.476562 41.367188 20.953125 82.738282 31.425781 124.109376l29.074219 114.832031c-27.960938 9-56.582031 16.207031-85.273438 21.523437zm94.046876-48.835937-23.105469-91.253907c-10.441407-41.234374-20.878907-82.472656-31.324219-123.710937 5.15625-1.222656 10.296875-2.527344 15.429688-3.871094l61.8125 212.746094c-7.613282 2.144531-15.246094 4.179687-22.8125 6.089844zm0 0"/></svg>