<svg height="512pt" viewBox="-6 0 512 512" width="512pt" xmlns="http://www.w3.org/2000/svg"><path d="m491.84375 200.136719v.007812c-7.878906 18.160157-24.152344 35.386719-42.1875 46.558594-12.835938 7.957031-26.5625 12.855469-38.808594 12.855469l-21.699218-78.402344v287.511719s-33.839844 35.726562-139.425782 35.726562c-48.726562 0-82.171875-7.613281-104.0625-15.804687-25.550781-9.5625-35.363281-19.921875-35.363281-19.921875v-287.511719l-21.695313 78.402344c-18.453124 0-40.273437-11.113282-57.316406-27.050782-10.167968-9.519531-18.644531-20.753906-23.683594-32.363281v-.007812c19.316407-70.625 39.085938-116.433594 39.085938-116.433594 38.992188-38.992187 100.039062-60.707031 100.039062-60.707031h205.996094s61.042969 21.714844 100.035156 60.707031c0 0 19.773438 45.808594 39.085938 116.433594zm0 0" fill="#fb6572"/><path d="m199.628906 22.996094-33.011718 37.398437c-35.191407 4.859375-127.28125 37.667969-135.332032 172.113281-10.167968-9.519531-18.644531-20.753906-23.683594-32.363281v-.007812c19.316407-70.625 39.085938-116.433594 39.085938-116.433594 38.992188-38.992187 100.039062-60.707031 100.039062-60.707031zm0 0" fill="#ea394e"/><path d="m98.613281 223.371094-10.019531 36.207031c-29.460938 0-67.511719-28.347656-80.996094-59.421875v-.011719c5.300782-19.414062 10.65625-36.953125 15.613282-52.183593 20.054687 64.066406 74.53125 75.230468 75.402343 75.410156zm0 0" fill="#cce6f6"/><path d="m31.285156 232.507812c1.140625-19.011718 3.960938-35.988281 8.0625-51.144531-6.335937-9.109375-11.976562-20.113281-16.136718-33.398437-4.957032 15.226562-10.300782 32.757812-15.609376 52.171875v.007812c5.039063 11.609375 13.515626 22.84375 23.683594 32.363281zm0 0" fill="#9dcae0"/><path d="m449.65625 246.703125c-12.835938 7.957031-26.5625 12.855469-38.808594 12.855469l-21.699218-78.402344s-4.5625-39.660156 11.640624-58.882812zm0 0" fill="#ea394e"/><path d="m491.847656 200.144531v.011719c-13.492187 31.074219-51.542968 59.421875-81.007812 59.421875l-10.015625-36.207031c.871093-.179688 55.347656-11.34375 75.402343-75.410156 4.964844 15.230468 10.308594 32.769531 15.621094 52.183593zm0 0" fill="#cce6f6"/><path d="m434.289062 207.578125c-17.421874 12.476563-32.90625 15.679687-33.457031 15.792969l10.015625 36.1875c12.246094 0 25.972656-4.898438 38.808594-12.855469zm0 0" fill="#9dcae0"/><path d="m145.660156 157.636719v330.953125c-25.550781-9.5625-35.363281-19.921875-35.363281-19.921875v-287.511719s5.636719-23.519531 35.363281-23.519531zm0 0" fill="#ea394e"/><path d="m389.148438 434.722656v33.945313s-33.839844 35.738281-139.425782 35.738281c-48.726562 0-82.171875-7.613281-104.0625-15.804688-25.550781-9.574218-35.363281-19.933593-35.363281-19.933593v-33.945313s9.8125 10.363282 35.363281 19.921875c21.890625 8.191407 55.335938 15.808594 104.0625 15.808594 105.585938 0 139.425782-35.730469 139.425782-35.730469zm0 0" fill="#cce6f6"/><path d="m145.660156 454.644531v33.957031c-25.550781-9.574218-35.363281-19.933593-35.363281-19.933593v-33.945313s9.8125 10.363282 35.363281 19.921875zm0 0" fill="#9dcae0"/><path d="m352.71875 22.992188c0 27.386718-46.113281 72.628906-102.996094 72.628906-56.882812 0-102.996094-45.242188-102.996094-72.628906 0 0 46.113282-15.386719 102.996094-15.386719 56.882813 0 102.996094 15.386719 102.996094 15.386719zm0 0" fill="#ea394e"/><path d="m499.175781 198.128906c-19.230469-70.328125-39.234375-116.976562-39.433593-117.4375-.382813-.882812-.925782-1.683594-1.605469-2.363281-39.75-39.75-100.308594-61.585937-102.867188-62.496094-.03125-.011719-.058593-.019531-.089843-.027343-.019532-.007813-.03125-.015626-.050782-.023438-1.929687-.644531-47.941406-15.78125-105.40625-15.78125-57.460937 0-103.472656 15.136719-105.40625 15.78125-.015625.007812-.03125.015625-.050781.023438-.03125.007812-.058594.015624-.089844.027343-2.558593.90625-63.117187 22.746094-102.863281 62.496094-.679688.679687-1.222656 1.480469-1.605469 2.363281-.199219.464844-20.203125 47.109375-39.4375 117.4375-.1796872.65625-.269531 1.339844-.269531 2.015625 0 1.042969.214844 2.074219.628906 3.027344 14.789063 34.089844 55.898438 63.988281 87.972656 63.988281 3.417969 0 6.417969-2.28125 7.328126-5.574218l6.765624-24.445313v231.527344c0 1.945312.746094 3.816406 2.082032 5.230469 1.472656 1.554687 37.328125 38.101562 144.945312 38.101562 107.617188 0 143.472656-36.546875 144.945313-38.105469 1.339843-1.410156 2.085937-3.28125 2.085937-5.226562v-68.914063c0-4.199218-3.40625-7.601562-7.605468-7.601562-4.199219 0-7.601563 3.402344-7.601563 7.601562v31.542969c-3.609375 2.921875-12.015625 8.871094-26.699219 14.777344-34.457031 13.859375-76.1875 16.769531-105.125 16.769531s-70.667968-2.910156-105.125-16.769531c-14.703125-5.914063-23.113281-11.871094-26.695312-14.773438v-250.144531c0-3.804688-2.8125-7.023438-6.582032-7.535156-3.769531-.507813-7.335937 1.839844-8.351562 5.507812l-9.621094 34.757813c-5.199218-1.84375-12.882812-5.148438-21.214844-10.730469-19.257812-12.902344-33-31.480469-40.90625-55.210938 8.808594-26.816406 16.3125-46.167968 20-55.308593 31.375 9.679687 49.023438 47.28125 49.203126 47.675781 1.277343 2.796875 4.035156 4.445312 6.921874 4.445312 1.054688 0 2.128907-.222656 3.15625-.691406 3.816407-1.746094 5.5-6.257812 3.753907-10.078125-.828125-1.808593-18.5625-39.816406-52.609375-53.765625 27.878906-23.929687 63.105468-40.085937 79.066406-46.699218 3.878906 13.445312 14.601562 28.273437 29.890625 40.753906 3.25 2.65625 8.042969 2.167968 10.699219-1.082032 2.652344-3.253906 2.167968-8.046874-1.082032-10.699218-13.089843-10.683594-22.546874-23.671875-25.167968-34.066406 14.035156-3.972657 51.355468-13.222657 94.664062-13.222657 43.304688 0 80.621094 9.246094 94.65625 13.222657-5.769531 22.742187-44.722656 59.582031-94.65625 59.582031-15.394531 0-30.648437-3.484375-45.339844-10.363281-3.800781-1.78125-8.328124-.140626-10.109374 3.664062s-.140626 8.328125 3.664062 10.109375c16.722656 7.828125 34.148438 11.800781 51.785156 11.800781 54.609375 0 100.011719-38.839844 108.988282-69.707031 15.945312 6.597656 51.167968 22.734375 79.085937 46.707031-34.046875 13.949219-51.785156 51.960938-52.609375 53.765625-1.746094 3.816407-.066406 8.320313 3.746094 10.070313 1.027344.46875 2.101562.695312 3.160156.695312 2.882812 0 5.636719-1.644531 6.917969-4.429687.1875-.402344 17.832031-38.007813 49.207031-47.6875 3.691406 9.144531 11.195312 28.492187 20 55.308593-7.90625 23.730469-21.648438 42.308594-40.90625 55.210938-8.332031 5.582031-16.015625 8.890625-21.214844 10.730469l-9.617187-34.757813c-1.015625-3.664062-4.589844-6.019531-8.351563-5.507812-3.769531.511718-6.582031 3.734375-6.582031 7.535156v188.195312c0 4.199219 3.402344 7.601563 7.605469 7.601563 4.199218 0 7.601562-3.402344 7.601562-7.601563v-132.207031l6.765625 24.441407c.910157 3.296874 3.910157 5.578124 7.328125 5.578124 32.074219 0 73.183594-29.902343 87.972656-63.992187.414063-.953125.628907-1.996094.628907-3.035156 0-.679688-.09375-1.351563-.273438-2.007813zm-249.453125 279.925782c73.296875 0 113.292969-16.953126 131.824219-28.261719v15.457031c-3.613281 2.921875-12.019531 8.871094-26.695313 14.773438-34.457031 13.859374-76.1875 16.769531-105.128906 16.769531-28.9375 0-70.667968-2.910157-105.128906-16.769531-14.695312-5.914063-23.105469-11.867188-26.691406-14.765626v-15.464843c18.527344 11.308593 58.527344 28.261719 131.820312 28.261719zm-160.445312-249.445313-6.355469 22.964844c-24.707031-3.21875-54.90625-26.34375-67.257813-52.078125 2.820313-10.214844 5.648438-19.890625 8.421876-28.980469 19.183593 38.523437 50.566406 53.160156 65.191406 58.09375zm327.25 22.964844-6.355469-22.964844c14.621094-4.933594 46.003906-19.570313 65.1875-58.089844 2.773437 9.089844 5.601563 18.761719 8.421875 28.976563-12.347656 25.734375-42.546875 48.859375-67.253906 52.078125zm0 0"/><path d="m261.554688 43.503906c4.199218 0 7.601562-3.40625 7.601562-7.605468 0-4.199219-3.402344-7.605469-7.601562-7.605469h-23.671876c-4.199218 0-7.601562 3.40625-7.601562 7.605469 0 4.199218 3.402344 7.605468 7.601562 7.605468zm0 0"/></svg>