<?xml version="1.0" encoding="iso-8859-1"?>
<!-- Generator: Adobe Illustrator 19.0.0, SVG Export Plug-In . SVG Version: 6.00 Build 0)  -->
<svg xmlns="http://www.w3.org/2000/svg" xmlns:xlink="http://www.w3.org/1999/xlink" version="1.1" id="Layer_1" x="0px" y="0px" viewBox="0 0 512.01 512.01" style="enable-background:new 0 0 512.01 512.01;" xml:space="preserve" width="512" height="512">
<g>
	<g>
		<polygon style="fill:#FD6F71;" points="33.975,83.099 33.975,428.91 256.005,460.33 478.034,428.91 478.034,83.099 256.005,51.68       "/>
		<polygon style="fill:#E34B4C;" points="478.034,113.099 478.034,83.099 256.005,51.68 33.976,83.099 33.976,113.099   "/>
		<path style="fill:#EFEDEE;" d="M487.417,20.26H24.592c-12.845,0-21.085,13.657-15.096,25.02l24.479,37.819h444.059l24.479-37.819    C508.502,33.917,500.262,20.26,487.417,20.26z"/>
		<path style="fill:#506366;" d="M121.245,450.486V301.074c0-74.307,60.453-134.76,134.76-134.76s134.76,60.453,134.76,134.76    v149.412H121.245z"/>
		<path style="fill:#FADC60;" d="M369.33,440.399c4.735-20.77,5.349-47.292-15.632-61.956    c-37.921-26.504-28.135-63.201-28.135-63.201c-32.212-2.038-34.659,30.989-34.659,30.989c-23.241-19.98,0-55.046,0-55.046    c-20.977-3.609-43.725,2.001-62.017,12.434c-8.854,5.05-17.127,11.55-23.247,19.769c-6.848,9.198-6.715,18.084-10.266,28.394    c-1.422,4.127-3.92,7.721-6.952,10.819c-9.692,9.905-23.166,15.136-33.101,24.842c-14.419,14.087-17.078,33.672-14.468,52.956    H369.33z"/>
		<g>
			<path style="fill:#F2C42C;" d="M185.322,387.443c9.935-9.706,23.408-14.937,33.101-24.842c3.032-3.099,5.531-6.692,6.952-10.819     c3.551-10.31,3.417-19.196,10.266-28.394c6.119-8.219,14.393-14.719,23.247-19.769c9.607-5.479,20.446-9.608,31.609-11.79     c0.26-0.419,0.408-0.644,0.408-0.644c-20.977-3.609-43.725,2.001-62.017,12.434c-8.854,5.05-17.127,11.55-23.247,19.769     c-6.848,9.198-6.715,18.084-10.266,28.394c-1.422,4.127-3.92,7.721-6.952,10.819c-9.692,9.905-23.166,15.136-33.101,24.842     c-14.418,14.086-17.078,33.671-14.468,52.957h30C168.243,421.114,170.903,401.529,185.322,387.443z"/>
		</g>
		<rect x="369.189" y="330.417" style="fill:#D2D2D2;" width="59.332" height="129.913"/>
		<rect x="83.499" y="330.417" style="fill:#B8B8B8;" width="59.332" height="129.916"/>
		<path style="fill:#B8B8B8;" d="M428.522,301.063v29.353h-59.332v-29.353c0-23.722-7.336-45.751-19.871-63.96l42.406-42.406    C414.767,224.017,428.522,260.965,428.522,301.063z"/>
		<path style="fill:#D2D2D2;" d="M391.725,194.696l-42.406,42.406c-20.41-29.699-54.629-49.214-93.314-49.214v-59.332    C311.033,128.557,360.117,154.447,391.725,194.696z"/>
		<path style="fill:#D2D2D2;" d="M162.691,237.103c-12.525,18.21-19.86,40.238-19.86,63.96v29.353H83.499v-29.353    c0-40.098,13.754-77.046,36.786-106.367L162.691,237.103z"/>
		<path style="fill:#B8B8B8;" d="M256.005,128.557v59.332c-38.685,0-72.903,19.515-93.314,49.214l-42.406-42.406    C151.893,154.447,200.977,128.557,256.005,128.557z"/>
		<path style="fill:#EFEDEE;" d="M24.592,491.749h462.825c12.845,0,21.085-13.657,15.096-25.02l-24.479-37.819H33.975L9.496,466.729    C3.507,478.093,11.747,491.749,24.592,491.749z"/>
	</g>
	<g>
		<path d="M206.335,383.091c-4.142,0-7.5,3.358-7.5,7.5v8.989c0,4.143,3.358,7.5,7.5,7.5c4.143,0,7.5-3.357,7.5-7.5v-8.989    C213.835,386.449,210.478,383.091,206.335,383.091z"/>
		<path d="M305.674,383.091c-4.142,0-7.5,3.358-7.5,7.5v8.989c0,4.143,3.358,7.5,7.5,7.5c4.143,0,7.5-3.357,7.5-7.5v-8.989    C313.174,386.449,309.817,383.091,305.674,383.091z"/>
		<path d="M273.2,393.308c-3.119-2.726-7.857-2.408-10.583,0.71c-1.589,1.818-3.999,2.86-6.612,2.86    c-2.614,0-5.023-1.043-6.612-2.86c-2.726-3.118-7.464-3.437-10.583-0.711c-3.118,2.726-3.437,7.464-0.711,10.583    c4.438,5.076,10.964,7.988,17.906,7.988c6.941,0,13.468-2.912,17.905-7.988C276.637,400.773,276.319,396.034,273.2,393.308z"/>
		<path d="M487.417,12.761H114.79c-4.142,0-7.5,3.358-7.5,7.5s3.358,7.5,7.5,7.5h372.627c3.432,0,6.417,1.685,8.189,4.624    c1.723,2.854,1.865,6.17,0.404,9.141l-22.056,34.075H418.79c-4.142,0-7.5,3.358-7.5,7.5s3.358,7.5,7.5,7.5h51.744V421.41h-34.513    V301.063c0-40.651-13.278-79.035-38.401-111.003c-34.439-43.853-86.056-69.003-141.615-69.003    c-55.561,0-107.179,25.152-141.62,69.008c-25.113,31.972-38.387,70.354-38.387,110.998l0,120.347H41.476V90.599H388.79    c4.143,0,7.5-3.358,7.5-7.5s-3.357-7.5-7.5-7.5H38.055L16,41.525c-1.461-2.971-1.319-6.286,0.403-9.141    c1.773-2.938,4.758-4.624,8.19-4.624H84.79c4.143,0,7.5-3.358,7.5-7.5s-3.357-7.5-7.5-7.5H24.593    c-8.685,0-16.547,4.439-21.033,11.875c-4.486,7.436-4.747,16.46-0.698,24.143c0.104,0.197,0.217,0.391,0.339,0.578l23.275,35.959    v341.38L3.2,462.654c-0.122,0.188-0.235,0.381-0.339,0.579c-8.448,16.102,3.58,36.017,21.731,36.017c0,0,462.539,0,462.825,0    c18.16,0,30.21-19.928,21.732-36.017c-0.104-0.198-0.218-0.391-0.339-0.579l-23.275-35.958V85.315l23.275-35.959    c0.122-0.188,0.234-0.381,0.339-0.579c4.049-7.682,3.787-16.708-0.699-24.143C503.964,17.2,496.101,12.761,487.417,12.761z     M150.331,421.41v-12.307c2.166-6.298,5.604-11.776,10.231-16.296c9.969-9.738,23.421-14.947,33.221-24.962    c6.64-6.786,9.403-14.992,11.557-24.021c1.466-6.145,2.624-10.999,6.316-15.958c4.969-6.674,12.016-12.64,20.947-17.733    c14.556-8.302,31.063-12.781,46.356-12.534c-6.966,15.891-10.728,39.03,7.056,54.318c2.146,1.846,5.149,2.325,7.764,1.24    c2.615-1.085,4.396-3.551,4.604-6.374c0.066-0.893,1.688-19.972,18.587-23.555c-0.677,14.137,2.715,40.592,32.431,61.361    c5.779,4.039,9.809,9.266,12.288,15.949v20.871H150.331z M168.872,241.351c19.779-28.779,52.352-45.961,87.133-45.961    c34.781,0,67.354,17.182,87.136,45.966c12.135,17.627,18.549,38.274,18.549,59.708v74.086c-1.178-0.997-2.405-1.953-3.695-2.854    c-32.911-23.002-25.506-53.859-25.185-55.121c0.579-2.171,0.154-4.487-1.158-6.311c-2.124-2.952-5.569-3.212-8.903-3.212    c-18.143,0-28.626,9.817-34.154,20.377c-2.839-15.055,8.418-32.482,8.562-32.701c1.4-2.112,1.639-4.789,0.634-7.116    c-1.004-2.327-3.116-3.989-5.614-4.418c-4.643-0.799-9.486-1.204-14.396-1.204c-17.515,0-36.198,5.155-52.608,14.515    c-10.739,6.125-19.335,13.461-25.547,21.805c-5.535,7.435-7.233,14.552-8.875,21.435c-1.519,6.365-2.981,12.204-7.688,17.011    c-4.383,4.48-9.839,8.002-15.615,11.73c-5.803,3.746-11.797,7.623-17.116,12.759v-80.781    C150.331,279.635,156.742,258.988,168.872,241.351z M376.69,399.254v-61.337h44.332v83.494H376.69V399.254z M421.022,322.916    H376.69v-21.853c0-22.383-6.126-44.019-17.77-62.955l31.98-31.981c19.735,27.873,30.121,60.518,30.121,94.936V322.916z     M381.626,194.189l-31.472,31.472c-21.287-26.552-52.748-42.923-86.649-45.037v-44.399    C309.363,138.273,351.755,159.065,381.626,194.189z M248.505,136.224v44.399c-33.902,2.114-65.363,18.485-86.65,45.037    l-31.471-31.472C160.255,159.065,202.647,138.273,248.505,136.224z M121.111,206.129l31.981,31.981    c-11.639,18.941-17.761,40.575-17.761,62.954v21.853H90.999v-21.853C90.999,266.649,101.381,234.006,121.111,206.129z     M90.998,337.916h44.333v69.983v13.511H90.998V337.916z M495.607,479.626c-1.773,2.938-4.758,4.623-8.189,4.623    c0,0-462.095,0-462.824,0c-6.961,0-11.678-7.495-8.594-13.765l22.055-34.074h435.9l22.056,34.075    C497.471,473.455,497.329,476.772,495.607,479.626z"/>
	</g>
</g>















</svg>
