<?xml version="1.0" encoding="iso-8859-1"?>
<!-- Generator: Adobe Illustrator 19.0.0, SVG Export Plug-In . SVG Version: 6.00 Build 0)  -->
<svg xmlns="http://www.w3.org/2000/svg" xmlns:xlink="http://www.w3.org/1999/xlink" version="1.1" id="Layer_1" x="0px" y="0px" viewBox="0 0 512 512" style="enable-background:new 0 0 512 512;" xml:space="preserve" width="512" height="512">
<g>
	<g>
		<path style="fill:#C86D5C;" d="M147.412,460.948l-23.074,14.071v19.879c0,5.303,4.299,9.603,9.603,9.603h26.943    c5.303,0,9.603-4.299,9.603-9.603v-19.879L147.412,460.948z"/>
		<path style="fill:#C86D5C;" d="M364.588,460.948l23.074,14.071v19.879c0,5.303-4.299,9.603-9.603,9.603h-26.943    c-5.303,0-9.603-4.299-9.603-9.603v-19.879L364.588,460.948z"/>
		<path style="fill:#C86D5C;" d="M415.549,90.733H96.451c-10.687,0-19.351,8.663-19.351,19.35v0.146    c0,5.603,2.479,10.873,6.657,14.605c13.017,11.626,40.581,53.832,40.581,202.775L256,379.01l131.662-51.399    c0-148.944,27.564-191.149,40.581-202.775c4.178-3.732,6.657-9.003,6.657-14.605v-0.146    C434.9,99.396,426.236,90.733,415.549,90.733z"/>
		<path style="fill:#AD4F3D;" d="M390.813,90.733H121.188c-2.126,9.612-3.256,19.593-3.256,29.835    c0,76.131,61.938,138.069,138.069,138.069S394.069,196.7,394.069,120.569C394.069,110.327,392.938,100.345,390.813,90.733z"/>
		<circle style="fill:#C86D5C;" cx="256" cy="120.569" r="113.069"/>
		<circle style="fill:#EFEDEE;" cx="256" cy="120.569" r="85.514"/>
		<path style="fill:#D2D2D2;" d="M190.486,120.569c0-43.843,33.001-79.958,75.514-84.913c-3.282-0.382-6.615-0.601-10-0.601    c-47.228,0-85.514,38.286-85.514,85.514s38.286,85.514,85.514,85.514c3.385,0,6.718-0.219,10-0.601    C223.487,200.527,190.486,164.412,190.486,120.569z"/>
		<path style="fill:#AD4F3D;" d="M387.662,327.61H124.338c-8.447,0-15.294,6.848-15.294,15.294v116.819    c0,8.447,6.847,15.294,15.294,15.294h263.325c8.447,0,15.294-6.848,15.294-15.294V342.905    C402.957,334.458,396.109,327.61,387.662,327.61z"/>
		<rect x="139.195" y="357.762" style="fill:#C86D5C;" width="233.61" height="87.105"/>
	</g>
	<g>
		<path d="M189.655,185.689c0.412,0.419,0.761,0.856,1.225,1.225c16.792,16.484,39.788,26.669,65.121,26.669    c25.333,0,48.33-10.185,65.121-26.669c0.414-0.407,0.817-0.81,1.223-1.224c16.485-16.792,26.67-39.788,26.67-65.121    c0-25.334-10.185-48.33-26.669-65.121c-0.411-0.419-0.76-0.856-1.224-1.224C304.329,37.739,281.333,27.554,256,27.554    c-25.333,0-48.329,10.185-65.12,26.668c-0.42,0.413-0.857,0.76-1.226,1.226c-16.484,16.791-26.668,39.787-26.668,65.12    S173.17,168.897,189.655,185.689z M189.014,113.069h-10.66c1.523-15.891,7.824-30.407,17.458-42.082l7.519,7.519    c2.895,2.896,7.708,2.897,10.606,0c2.929-2.929,2.929-7.678,0-10.607l-7.519-7.519c11.674-9.634,26.191-15.935,42.082-17.458    v10.66c0,4.142,3.358,7.5,7.5,7.5s7.5-3.358,7.5-7.5v-10.66c15.891,1.523,30.407,7.824,42.082,17.458l-7.519,7.519    c-2.929,2.929-2.929,7.678,0,10.607c2.805,2.805,7.677,2.93,10.607,0l7.519-7.519c9.634,11.674,15.935,26.191,17.458,42.082    h-10.66c-4.142,0-7.5,3.357-7.5,7.5c0,4.142,3.358,7.5,7.5,7.5h10.66c-1.523,15.891-7.824,30.407-17.458,42.082l-7.519-7.519    c-2.929-2.929-7.678-2.929-10.606,0c-2.929,2.929-2.929,7.678,0,10.606l7.519,7.519c-11.674,9.634-26.191,15.935-42.082,17.458    v-10.66c0-4.142-3.358-7.5-7.5-7.5s-7.5,3.358-7.5,7.5v10.66c-15.891-1.523-30.407-7.824-42.082-17.458l7.519-7.519    c2.929-2.929,2.929-7.678,0-10.606c-2.929-2.929-7.678-2.929-10.606,0l-7.519,7.519c-9.634-11.674-15.935-26.191-17.458-42.082    h10.66c4.142,0,7.5-3.358,7.5-7.5C196.514,116.426,193.156,113.069,189.014,113.069z"/>
		<path d="M256,128.069h38.006c4.142,0,7.5-3.358,7.5-7.5c0-4.143-3.358-7.5-7.5-7.5H263.5V82.563c0-4.142-3.358-7.5-7.5-7.5    s-7.5,3.358-7.5,7.5v38.006C248.5,124.711,251.858,128.069,256,128.069z"/>
		<path d="M372.805,350.262h-39.034c-4.142,0-7.5,3.358-7.5,7.5s3.358,7.5,7.5,7.5h31.534v72.105h-218.61v-72.105h157.182    c4.143,0,7.5-3.358,7.5-7.5s-3.357-7.5-7.5-7.5H139.195c-4.142,0-7.5,3.358-7.5,7.5v87.105c0,4.142,3.358,7.5,7.5,7.5h233.61    c4.143,0,7.5-3.358,7.5-7.5v-87.105C380.305,353.62,376.948,350.262,372.805,350.262z"/>
		<path d="M187.465,288.754c4.142,0,7.5-3.358,7.5-7.5V268.85c0-4.142-3.358-7.5-7.5-7.5s-7.5,3.358-7.5,7.5v12.404    C179.965,285.396,183.323,288.754,187.465,288.754z"/>
		<path d="M324.535,288.754c4.142,0,7.5-3.358,7.5-7.5V268.85c0-4.142-3.358-7.5-7.5-7.5c-4.143,0-7.5,3.358-7.5,7.5v12.404    C317.035,285.396,320.392,288.754,324.535,288.754z"/>
		<path d="M256,295.375c8.756,0,16.98-3.662,22.562-10.048c2.726-3.119,2.408-7.856-0.711-10.583    c-3.119-2.727-7.857-2.408-10.583,0.71c-2.733,3.127-6.84,4.92-11.268,4.92s-8.536-1.793-11.269-4.92    c-2.726-3.118-7.464-3.437-10.583-0.711c-3.119,2.726-3.438,7.464-0.711,10.583C239.019,291.712,247.243,295.375,256,295.375z"/>
		<path d="M173.24,43.171c-3.204-2.625-7.93-2.154-10.554,1.05c-9.509,11.609-16.683,24.882-21.287,39.012H96.451    c-14.806,0-26.851,12.045-26.851,26.851v0.146c0,7.637,3.339,14.999,9.16,20.198c5,4.466,14.628,16.42,22.942,46.311    c9.715,34.926,14.797,83.569,15.118,144.651c-8.886,3.114-15.277,11.58-15.277,21.515v116.82c0,9.941,6.4,18.412,15.294,21.521    v13.652c0,9.431,7.672,17.103,17.103,17.103h26.943c9.43,0,17.103-7.672,17.103-17.103v-12.379h156.028v12.379    c0,9.431,7.672,17.103,17.103,17.103h26.942c9.431,0,17.104-7.672,17.104-17.103v-13.652c8.894-3.109,15.294-11.579,15.294-21.521    v-116.82c0-9.936-6.392-18.401-15.277-21.515c0.321-61.082,5.403-109.725,15.118-144.651c8.314-29.89,17.942-41.845,22.941-46.31    c5.822-5.199,9.161-12.562,9.161-20.199v-0.146c0-14.806-12.045-26.851-26.851-26.851h-44.905C354.888,34.971,309.455,0,256,0    c-25.269,0-49.464,7.736-69.97,22.372c-3.372,2.406-4.154,7.09-1.748,10.461c2.407,3.372,7.09,4.154,10.462,1.748    C212.691,21.771,233.874,15,256,15c48.938,0,90.199,33.472,102.106,78.724c2.301,8.748,3.463,17.8,3.463,26.845    c0,58.21-47.358,105.568-105.569,105.568c-28.121,0-55.465-11.506-75.19-31.537c-19.593-19.897-30.764-47.308-30.369-75.261    c0.332-23.5,8.739-47.166,23.849-65.614C176.915,50.521,176.444,45.796,173.24,43.171z M162.986,494.897    c0,1.16-0.943,2.103-2.103,2.103H133.94c-1.159,0-2.103-0.943-2.103-2.103v-12.379h31.148V494.897z M380.163,494.897    c0,1.16-0.943,2.103-2.104,2.103h-26.942c-1.159,0-2.103-0.943-2.103-2.103v-12.379h31.148V494.897z M395.457,459.724    c0,4.298-3.496,7.794-7.794,7.794H124.337c-4.298,0-7.794-3.496-7.794-7.794v-116.82c0-4.298,3.496-7.794,7.794-7.794h263.325    c4.298,0,7.794,3.497,7.794,7.794V459.724z M256,241.137c66.482,0,120.569-54.087,120.569-120.568    c0-7.484-0.681-14.982-2.074-22.336h41.055c6.534,0,11.851,5.316,11.851,11.851v0.146c0,3.37-1.514,6.654-4.153,9.012    c-15.815,14.127-42.165,58.976-43.061,200.869H131.814c-0.896-141.893-27.245-186.742-43.062-200.869    c-2.639-2.357-4.152-5.642-4.152-9.011v-0.146c0-6.534,5.316-11.851,11.851-11.851h41.055c-0.741,3.947-1.277,7.933-1.622,11.941    c-0.001,0.017-0.003,0.034-0.004,0.051C129.934,179.585,186.367,241.137,256,241.137z"/>
	</g>
</g>















</svg>
