<?xml version="1.0" encoding="iso-8859-1"?>
<!-- Generator: Adobe Illustrator 19.0.0, SVG Export Plug-In . SVG Version: 6.00 Build 0)  -->
<svg xmlns="http://www.w3.org/2000/svg" xmlns:xlink="http://www.w3.org/1999/xlink" version="1.1" id="Layer_1" x="0px" y="0px" viewBox="0 0 512 512" style="enable-background:new 0 0 512 512;" xml:space="preserve" width="512" height="512">
<g>
	<g>
		<rect x="353.594" y="24.325" style="fill:#FADC60;" width="79.06" height="177.745"/>
		<rect x="353.594" y="24.325" style="fill:#F2C42C;" width="79.06" height="46.825"/>
		<path style="fill:#FD6F71;" d="M436.344,7.5h-86.44c-6.653,0-12.046,5.393-12.046,12.046v9.558    c0,6.653,5.393,12.046,12.046,12.046h86.44c6.653,0,12.046-5.393,12.046-12.046v-9.558C448.39,12.893,442.997,7.5,436.344,7.5z"/>
		<polygon style="fill:#FADC60;" points="448.39,481.997 448.39,293.041 448.39,247.052 255.904,40.128 63.418,247.052     63.418,293.041 63.418,481.997   "/>
		<path style="fill:#F2C42C;" d="M63.418,247.052v45.989v19.906c8.118-1.753,15.667-5.865,21.508-11.872l170.978-175.839    L426.88,301.074c5.842,6.008,13.391,10.12,21.51,11.873v-19.906v-45.989L255.904,40.128L63.418,247.052z"/>
		<path style="fill:#FD6F71;" d="M306.525,291.793H205.282c-11.371,0-20.589,9.218-20.589,20.589v169.615h142.421V312.382    C327.114,301.011,317.896,291.793,306.525,291.793z"/>
		<rect x="215.379" y="322.478" style="fill:#EFEDEE;" width="81.05" height="159.519"/>
		<path style="fill:#4DB8CC;" d="M448.39,459.495H63.418c-19.534,0-35.37,15.836-35.37,35.37v9.635H483.76v-9.635    C483.76,475.33,467.924,459.495,448.39,459.495z"/>
		<g>
			<g>
				<path style="fill:#FD6F71;" d="M492.39,237.377L277.904,16.794c-5.778-5.942-13.713-9.294-22-9.294      c-8.287,0-16.223,3.352-22,9.294L19.418,237.378c-4.761,4.896-4.651,12.724,0.245,17.484l26.27,25.544      c4.896,4.761,12.724,4.651,17.485-0.245L255.904,82.202l192.485,197.959c4.76,4.896,12.589,5.006,17.484,0.245l26.271-25.544      C497.04,250.101,497.15,242.273,492.39,237.377z"/>
			</g>
		</g>
	</g>
	<path d="M270.135,243.32c-3.465,3.965-8.659,6.239-14.249,6.239c-5.59,0-10.784-2.274-14.249-6.239   c-2.726-3.118-7.464-3.437-10.583-0.711c-3.118,2.726-3.437,7.464-0.711,10.583c6.314,7.224,15.624,11.367,25.543,11.367   c9.918,0,19.228-4.143,25.542-11.367c2.726-3.118,2.408-7.856-0.711-10.583S272.861,240.202,270.135,243.32z M448.372,379.913   c4.142,0,7.5-3.358,7.5-7.5v-81.085c5.438,0.372,11.006-1.454,15.213-5.544c0,0,26.264-25.539,26.271-25.545   c7.763-7.548,7.937-20.333,0.394-28.09l-57.613-59.251V48.271c8.959-1.778,15.735-9.693,15.735-19.167v-9.558   C455.872,8.751,447.121,0,436.326,0h-86.439c-10.795,0-19.546,8.751-19.546,19.546v9.558c0,9.474,6.776,17.389,15.735,19.167   v27.893c0,0-62.788-64.573-62.812-64.598c-14.779-15.2-39.976-15.201-54.754,0L97.715,146.078   c-2.941,3.025-2.817,7.895,0.317,10.764c3.029,2.773,7.795,2.411,10.658-0.533c0,0,130.468-134.178,130.575-134.287   c8.983-9.238,24.27-9.229,33.245,0c0,0,214.372,220.466,214.486,220.583c1.852,1.904,1.804,5.029-0.097,6.879l-26.27,25.544   c-1.926,1.873-5.006,1.83-6.879-0.097c0,0-192.455-197.927-192.485-197.958c-2.787-2.866-7.751-3.089-10.754,0   c0,0-192.145,197.609-192.486,197.959c-1.856,1.909-4.969,1.954-6.879,0.096l-26.27-25.544c-1.923-1.87-1.967-4.956-0.097-6.879   l62.546-64.324c2.863-2.944,3.091-7.718,0.233-10.668c-2.957-3.052-7.828-3.039-10.769-0.015c0,0-62.709,64.492-62.765,64.55   c-7.765,7.986-7.138,20.766,0.72,28.407l25.943,25.227c3.736,3.633,8.641,5.624,13.841,5.623c0.459,0,0.914-0.039,1.372-0.07   v161.329c-20.073,3.559-35.37,21.121-35.37,42.2v9.635c0,4.142,3.358,7.5,7.5,7.5h455.712c4.142,0,7.5-3.358,7.5-7.5v-9.635   c0-21.079-15.297-38.641-35.37-42.2v-42.438c0-4.106-3.164-7.688-7.268-7.812c-4.248-0.128-7.732,3.277-7.732,7.497v42.082H334.597   V312.382c0-15.513-12.576-28.089-28.089-28.089H205.265c-15.513,0-28.089,12.576-28.089,28.089v139.613H70.9V283.207L255.887,92.96   l184.985,190.246v89.206C440.872,376.555,444.23,379.913,448.372,379.913z M425.137,157.472L361.076,91.59V48.65h64.061V157.472z    M436.326,33.65h-86.439c-2.507,0-4.546-2.04-4.546-4.546v-9.558c0-2.506,2.039-4.546,4.546-4.546h86.439   c2.507,0,4.546,2.04,4.546,4.546v9.558C440.872,31.611,438.833,33.65,436.326,33.65z M192.176,312.382   c0-7.217,5.872-13.089,13.089-13.089h101.243c7.218,0,13.089,5.872,13.089,13.089v139.613h-15.685V322.478   c0-4.142-3.358-7.5-7.5-7.5h-81.051c-4.142,0-7.5,3.358-7.5,7.5v129.517h-15.686V312.382z M288.912,329.978v122.017h-66.051   V329.978H288.912z M448.372,466.995c15.368,0,27.87,12.502,27.87,27.87V497H35.53v-2.135c0-15.368,12.503-27.87,27.87-27.87   H448.372z M167.776,234.682v14.589c0,4.143,3.358,7.5,7.5,7.5s7.5-3.357,7.5-7.5v-14.589c0-4.142-3.358-7.5-7.5-7.5   S167.776,230.54,167.776,234.682z M328.996,234.682v14.589c0,4.143,3.358,7.5,7.5,7.5s7.5-3.357,7.5-7.5v-14.589   c0-4.142-3.358-7.5-7.5-7.5S328.996,230.54,328.996,234.682z"/>
</g>















</svg>
