<?xml version="1.0" encoding="iso-8859-1"?>
<!-- Generator: Adobe Illustrator 19.0.0, SVG Export Plug-In . SVG Version: 6.00 Build 0)  -->
<svg xmlns="http://www.w3.org/2000/svg" xmlns:xlink="http://www.w3.org/1999/xlink" version="1.1" id="Layer_1" x="0px" y="0px" viewBox="0 0 512 512" style="enable-background:new 0 0 512 512;" xml:space="preserve" width="512" height="512">
<g>
	<g>
		<polygon style="fill:#EFEDEE;" points="256,407.013 113.876,429.002 113.876,467.15 256,485.825 398.124,467.15 398.124,429.002       "/>
		<polygon style="fill:#D2D2D2;" points="153.876,467.15 153.876,429.002 276,410.107 256,407.013 113.876,429.002 113.876,467.15     256,485.825 276,483.197   "/>
		<rect x="61.48" y="285.743" style="fill:#D2D2D2;" width="389.04" height="28.355"/>
		<path style="fill:#B8B8B8;" d="M301.735,50.123c-1.563-22.671-19.838-40.945-42.51-42.509    c-12.864-0.888-25.114,3.45-34.504,12.215c-9.258,8.642-14.568,20.859-14.568,33.52c0,6.742,5.466,12.208,12.208,12.208    c6.742,0,12.208-5.466,12.208-12.208c0-6.005,2.42-11.571,6.813-15.672c4.388-4.095,10.132-6.122,16.164-5.706    c10.577,0.73,19.103,9.255,19.832,19.832c0.558,8.09-3.39,15.715-10.304,19.901c-14.361,8.693-23.281,24.528-23.281,41.327v17.351    h23.589l0.826-17.351c0-8.311,4.41-16.143,11.509-20.441C294.488,83.649,302.925,67.376,301.735,50.123z"/>
		<path style="fill:#9E9E9E;" d="M268.207,113.03c0-8.311,4.41-16.143,11.509-20.44c1.544-0.935,3.002-1.967,4.404-3.055    c-9.087-1.742-18.5-2.643-28.12-2.643c-1.513,0-3.019,0.028-4.522,0.072c-4.919,7.684-7.686,16.723-7.686,26.065v17.351h23.589    L268.207,113.03z"/>
		<path style="fill:#C86D5C;" d="M477.016,302.802c-18.401-62.015-67.44-111.109-130.105-135.557    c-8.375-31.552-45.89-55.353-90.91-55.353c-45.02,0-82.535,23.801-90.91,55.352c-62.665,24.448-111.704,73.541-130.105,135.556    c-3.12,10.513,2.874,21.565,13.387,24.684c10.514,3.119,21.565-2.874,24.684-13.387C94.738,241.026,169.967,189.992,256,189.992    c86.034,0,161.263,51.034,182.945,124.107c2.56,8.629,10.463,14.214,19.028,14.213c1.869,0,3.772-0.266,5.656-0.826    C474.141,324.367,480.135,313.316,477.016,302.802z"/>
		<path style="fill:#57D0E6;" d="M398.124,292.372v136.629H113.876V292.372c0-14.8,11.994-26.804,26.794-26.804h230.66    C386.13,265.569,398.124,277.572,398.124,292.372z"/>
		<path style="fill:#4DB8CC;" d="M180.67,265.568h-40c-14.8,0-26.794,12.004-26.794,26.804v136.629h40V292.373    C153.876,277.572,165.87,265.568,180.67,265.568z"/>
		<path style="fill:#57D0E6;" d="M398.124,467.15v10.832c0,14.643-11.866,26.518-26.509,26.518H140.385    c-14.643,0-26.509-11.876-26.509-26.518V467.15H398.124z"/>
		<path style="fill:#4DB8CC;" d="M153.876,477.982V467.15h-40v10.832c0,14.643,11.866,26.518,26.509,26.518h40    C165.742,504.5,153.876,492.625,153.876,477.982z"/>
	</g>
	<g>
		<path d="M29.994,321.492c3.484,6.423,9.26,11.105,16.266,13.184c12.559,3.725,25.713-2.029,31.767-13.078h28.37l0,156.384    c0,18.758,15.256,34.019,34.009,34.019h231.231c18.752,0,34.009-15.261,34.009-34.019l0-156.384h28.401    c4.741,8.579,13.905,14.215,23.947,14.213c2.63,0,5.251-0.382,7.789-1.135c14.279-4.239,22.686-19.716,18.444-34.007    c-9.27-31.242-26.649-60.619-50.26-84.956c-22.224-22.907-50.131-41.559-80.896-54.095c-9.409-28.09-39.253-49.423-75.787-55.482    c1.357-2.921,3.546-5.441,6.338-7.131c17.186-10.402,27.001-29.33,25.618-49.398c-1.82-26.386-23.09-47.656-49.476-49.476    C258.5,0.044,257.22,0,255.961,0c-13.52,0-26.424,5.095-36.335,14.346c-10.772,10.055-16.951,24.271-16.951,39.002    c0,10.867,8.841,19.708,19.708,19.708s19.708-8.841,19.708-19.708c0-3.904,1.574-7.522,4.43-10.188    c2.874-2.681,6.555-3.982,10.531-3.707c6.862,0.473,12.393,6.004,12.866,12.865c0.364,5.275-2.206,10.245-6.706,12.969    c-14.472,8.76-24.195,23.9-26.4,40.539c-37.459,5.59-68.25,27.182-77.837,55.792c-24.974,10.162-47.622,24.033-67.364,41.265    c-3.121,2.724-3.442,7.462-0.719,10.582c2.724,3.121,7.463,3.442,10.582,0.719c19.329-16.871,41.657-30.312,66.365-39.951    c2.229-0.869,3.91-2.75,4.523-5.063c6.93-26.108,36.416-45.734,72.22-49.221c7.573-0.738,15.31-0.74,22.885,0    c35.803,3.489,65.288,23.114,72.218,49.221c0.614,2.313,2.294,4.193,4.523,5.063c30.123,11.752,57.439,29.708,78.995,51.926    c22.246,22.929,37.939,49.434,46.646,78.778c1.917,6.46-1.892,13.449-8.331,15.36c-6.438,1.909-13.448-1.886-15.36-8.331    c-3.047-10.27-7.035-20.349-12.202-29.742c-0.007-0.013-0.016-0.024-0.023-0.038c-31.899-59.96-100.743-99.694-177.91-99.694    c-77.163,0-146.004,39.731-177.906,99.688c-0.008,0.015-0.019,0.029-0.028,0.044c-5.146,9.384-9.161,19.492-12.201,29.742    c-1.937,6.531-8.828,10.267-15.36,8.33c-6.452-1.913-10.246-8.908-8.331-15.361c7.646-25.767,20.796-49.5,39.084-70.537    c2.718-3.126,2.387-7.863-0.74-10.581c-3.125-2.717-7.863-2.387-10.581,0.739c-19.705,22.667-33.885,48.274-42.144,76.111    C25.737,307.672,26.51,315.068,29.994,321.492z M252.256,104.446c2.365-10.844,9.114-20.511,18.722-26.327    c9.327-5.646,14.654-15.927,13.903-26.832c-0.985-14.292-12.506-25.812-26.798-26.798c-8.057-0.558-15.924,2.225-21.798,7.705    c-5.93,5.535-9.195,13.048-9.195,21.155c0,2.596-2.112,4.708-4.708,4.708s-4.708-2.112-4.708-4.708    c0-10.589,4.441-20.809,12.186-28.037C237.088,18.566,246.113,15,255.961,15c0.916,0,1.848,0.032,2.77,0.096    c18.956,1.307,34.236,16.587,35.543,35.543c0.996,14.438-6.063,28.054-18.421,35.534c-6.806,4.12-11.763,10.788-13.919,18.352    C261.889,104.658,254.782,104.375,252.256,104.446z M83.504,306.598c1.7-4.522,3.634-8.985,5.791-13.355h17.103v13.355H83.504z     M390.203,288.326c0.292,1.322,0.442,2.691,0.442,4.046v129.129h-35.442c-4.142,0-7.5,3.358-7.5,7.5s3.358,7.5,7.5,7.5h35.442    v23.148H121.397v-23.148h203.806c4.142,0,7.5-3.358,7.5-7.5s-3.358-7.5-7.5-7.5H121.397V292.372    c0-10.153,8.248-18.813,18.392-19.283c0.3-0.014,231.486-0.021,231.562-0.021C380.296,273.068,388.302,279.729,390.203,288.326z     M390.645,477.982c0,10.486-8.527,19.019-19.009,19.019H140.405c-10.481,0-19.009-8.532-19.009-19.019v-3.332h269.249V477.982z     M405.646,306.598v-13.355h17.102c2.156,4.37,4.09,8.832,5.791,13.355H405.646z M256.021,197.492    c66.738,0,126.659,31.773,158.229,80.751h-11.66c-5.394-11.884-17.362-20.174-31.238-20.174h-230.66    c-13.875,0-25.843,8.29-31.237,20.174H97.793C129.363,229.265,189.284,197.492,256.021,197.492z"/>
	</g>
</g>















</svg>
