<?xml version="1.0" encoding="iso-8859-1"?>
<!-- Generator: Adobe Illustrator 19.0.0, SVG Export Plug-In . SVG Version: 6.00 Build 0)  -->
<svg xmlns="http://www.w3.org/2000/svg" xmlns:xlink="http://www.w3.org/1999/xlink" version="1.1" id="Layer_1" x="0px" y="0px" viewBox="0 0 512 512" style="enable-background:new 0 0 512 512;" xml:space="preserve" width="512" height="512">
<g>
	<g>
		<polygon style="fill:#EFEDEE;" points="168.653,222.333 142.811,229.446 45.489,426.11 56.086,447.881 90.827,426.11     179.415,247.088   "/>
		<g>
			<path style="fill:#3A484A;" d="M444.951,245.28c-3.971,10.492-15.702,15.773-26.194,11.792     c-10.492-3.971-15.773-15.702-11.802-26.194c13.742-36.249,16.992-69.594,9.415-96.417c-6.287-22.223-20.07-38.717-38.819-46.416     c-25.564-10.512-58.594-4.408-90.648,16.728c-28.581,18.851-70.365,58.706-107.133,141.543c-0.112,0.264-0.234,0.518-0.356,0.772     l-36.605-17.642C215.614,65.751,323.498,21.905,393,50.465c30.531,12.554,52.713,38.453,62.464,72.945     C465.437,158.674,461.801,200.814,444.951,245.28z"/>
		</g>
		<path style="fill:#506366;" d="M437.313,228.347c-1.141-0.32-2.269-0.617-3.382-0.891c-9.368-2.312-19.204-3.963-29.411-4.945    c-19.642-1.888-37.691,11.432-41.575,30.779c-0.783,3.902-1.265,8.193-1.316,12.889l93.441,31.147    c3.683-6.111,6.456-12.465,8.544-18.569C470.9,257.454,458.991,234.429,437.313,228.347z"/>
		<path style="fill:#85E7FF;" d="M493.243,408.762c3.435-60.009-4.965-136.513-66.611-151.724    c-104.275-25.73-264.407,47.398-264.407,173.002l19.97,19.806h242.406L493.243,408.762z"/>
		<path style="fill:#4DB8CC;" d="M396.882,252.435c-102.393-7.353-234.657,63.453-234.657,177.605l19.97,19.806h30l-19.97-19.806    C192.225,326.785,300.441,258.996,396.882,252.435z"/>
		<path style="fill:#3A484A;" d="M162.225,430.04c-14.344,0-27.482,8.027-34.027,20.791h0c-4.41,8.6,1.835,18.82,11.499,18.82    h299.801V430.04H162.225z"/>
		<circle style="fill:#506366;" cx="439.497" cy="404.649" r="65.003"/>
		<circle style="fill:#D2D2D2;" cx="439.497" cy="404.649" r="30.47"/>
		<path style="fill:#3A484A;" d="M90.827,426.11H34.204c-14.748,0-26.704,11.956-26.704,26.704v0    c0,9.299,7.538,16.838,16.838,16.838h55.375c11.748,0,24.96-9.524,24.96-21.272v-8.425    C104.672,432.308,98.473,426.11,90.827,426.11z"/>
	</g>
	<g>
		<path d="M439.498,366.678c-20.937,0-37.97,17.033-37.97,37.97s17.033,37.97,37.97,37.97c20.937,0,37.97-17.033,37.97-37.97    S460.434,366.678,439.498,366.678z M439.498,427.619c-12.666,0-22.97-10.305-22.97-22.97s10.304-22.97,22.97-22.97    c12.666,0,22.97,10.305,22.97,22.97S452.163,427.619,439.498,427.619z"/>
		<path d="M219.432,357.191v10.902c0,4.142,3.358,7.5,7.5,7.5s7.5-3.358,7.5-7.5v-10.902c0-4.142-3.358-7.5-7.5-7.5    S219.432,353.049,219.432,357.191z"/>
		<path d="M354.91,368.094v-10.902c0-4.142-3.358-7.5-7.5-7.5s-7.5,3.358-7.5,7.5v10.902c0,4.142,3.358,7.5,7.5,7.5    S354.91,372.236,354.91,368.094z"/>
		<path d="M306.976,361.688c-3.12-2.726-7.856-2.408-10.583,0.71c-2.23,2.551-5.591,4.014-9.222,4.014s-6.991-1.463-9.221-4.014    c-2.727-3.119-7.464-3.437-10.583-0.711c-3.119,2.726-3.437,7.464-0.711,10.583c5.079,5.81,12.556,9.142,20.515,9.142    c7.958,0,15.436-3.332,20.515-9.142C310.412,369.153,310.094,364.415,306.976,361.688z"/>
		<path d="M24.338,477.152h55.375c15.322,0,32.459-12.305,32.459-28.772v-8.425c0-7.887-4.311-14.771-10.689-18.467    c0,0,85.015-171.827,85.165-172.177c36.023-81.144,76.647-119.982,104.385-138.277c20.368-13.43,41.064-20.528,59.852-20.528    c8.581,0,16.594,1.506,23.819,4.477c16.565,6.802,28.8,21.547,34.45,41.517c6.194,21.927,4.576,48.965-4.644,78.494    c-1.23-0.099-2.468-0.16-3.695-0.16c-19.676,0-37.175,12.716-43.547,30.924c-7.438,0.788-14.956,1.906-22.522,3.392    c-4.064,0.798-6.713,4.74-5.915,8.804c0.798,4.065,4.739,6.712,8.804,5.915c9.125-1.792,18.165-3.028,27.045-3.742    c29.303-2.356,64.635-1.925,88.053,18.547c0.042,0.037,0.084,0.073,0.126,0.11c19.422,17.164,27.378,43.617,30.942,68.466    c-4.903-3.786-10.27-6.912-15.954-9.327c-8.917-3.788-18.606-5.775-28.295-5.775c-0.018,0-0.036-0.001-0.054-0.001    c-39.978,0-72.503,32.524-72.503,72.502c0,0.016,0.001,0.032,0.001,0.049c0,5.997,0.746,12.03,2.226,17.843h-199.29    c1.845-33.343,15.992-64.914,41.193-91.72c24.409-25.963,58.985-47.063,97.362-59.415c3.943-1.269,6.11-5.494,4.841-9.437    s-5.494-6.111-9.437-4.841c-40.751,13.116-77.577,35.639-103.695,63.419c-28.033,29.818-43.606,65.161-45.309,102.602    c-14.236,2.288-26.633,11.136-33.364,24.262c-3.273,6.383-2.994,13.848,0.746,19.968c3.74,6.121,10.254,9.775,17.427,9.775    c0,0,299.8,0,299.805,0C479.478,477.149,512,444.625,512,404.649c0-14.232-4.138-27.508-11.251-38.72    c-1.816-28.517-7.529-52.363-17.01-70.875c-3.442-6.721-7.394-12.728-11.81-18.063c2.706-11.087,1.323-22.576-4.039-32.778    c-2.636-5.015-6.074-9.409-10.155-13.056c12.316-39.768,14.042-77.628,4.947-109.786c-10.389-36.749-34.122-64.394-66.83-77.842    c-14.015-5.759-29.196-8.68-45.12-8.68c-37.102,0-75.597,15.665-111.322,45.299c-40.349,33.471-75.13,82.623-103.379,146.089    L74.952,349.663c-1.837,3.712-0.317,8.211,3.396,10.048c3.712,1.838,8.211,0.317,10.049-3.396l57.845-116.89l23.091,11.129    L86.171,418.61H57.569l17.718-35.804c1.837-3.712,0.317-8.211-3.396-10.048c-3.714-1.838-8.212-0.317-10.049,3.396l-21.01,42.457    h-6.629C15.344,418.61,0,433.954,0,452.814C0,466.234,10.918,477.152,24.338,477.152z M139.697,462.152    c-2.745,0-4.151-1.815-4.627-2.596c-0.477-0.78-1.451-2.859-0.198-5.302c5.287-10.309,15.768-16.713,27.354-16.713h212.643    c0.268,0.526,0.564,1.031,0.843,1.548c0.033,0.061,0.066,0.122,0.099,0.183c4.91,9.04,11.568,16.797,19.483,22.88H139.697z     M439.497,462.152c-25.9,0-49.437-18.294-55.744-43.446c-8.968-35.765,18.849-71.56,55.744-71.56    c31.319,0,57.502,26.232,57.502,57.502C497,436.356,471.205,462.152,439.497,462.152z M374.379,244.543    c5.57-8.901,15.506-14.709,26.436-14.709c9.321,0,18.84,2.073,27.903,4.102c10.886,2.437,20.489,6.97,25.894,17.254    c2.091,3.979,3.292,8.25,3.587,12.593c-8.838-6.684-19.024-11.373-29.77-14.026c-12.882-3.179-26.135-4.791-39.385-5.231    C384.159,244.363,379.264,244.377,374.379,244.543z M248.986,91.693c33-27.375,68.183-41.844,101.745-41.844    c13.958,0,27.221,2.542,39.417,7.553c28.356,11.66,48.989,35.827,58.099,68.05c8.02,28.355,6.726,61.897-3.692,97.476    c-0.044-0.018-0.089-0.032-0.133-0.05c-7.81-3.229-16.355-4.571-24.642-5.946c-0.056-0.009-0.111-0.02-0.166-0.029    c9.385-31.348,10.775-60.403,3.974-84.483c-6.932-24.5-22.269-42.723-43.184-51.311c-9.041-3.718-18.973-5.603-29.52-5.603    c-21.732,0-45.284,7.955-68.11,23.006c-28.68,18.916-70.21,58.229-107.025,138.483l-23.089-11.128    C179.41,167.66,211.795,122.544,248.986,91.693z M34.204,433.61h56.624c3.498,0,6.344,2.846,6.344,6.345v8.425    c0,7.288-9.764,13.772-17.459,13.772H24.338c-5.149,0-9.338-4.189-9.338-9.338C15,442.224,23.615,433.61,34.204,433.61z"/>
	</g>
</g>















</svg>
