<svg viewBox="0 -23 512 512" xmlns="http://www.w3.org/2000/svg"><path d="m489.148438 407.359375h-466.296876c-8.480468 0-15.351562-6.871094-15.351562-15.351563v-289.699218c0-8.480469 6.871094-15.351563 15.351562-15.351563h466.296876c8.480468 0 15.351562 6.871094 15.351562 15.351563v289.699218c0 8.480469-6.871094 15.351563-15.351562 15.351563zm0 0" fill="#85cdea"/><path d="m474.5 116.957031v260.402344h-437v-260.402344zm0 0" fill="#596674"/><path d="m37.5 116.957031h30v260.402344h-30zm0 0" fill="#565c62"/><path d="m191.148438 407.359375h-108.632813c-4.242187 0-7.683594-3.441406-7.683594-7.683594v-45.035156c0-4.242187 3.441407-7.683594 7.683594-7.683594h108.632813c4.242187 0 7.683593 3.441407 7.683593 7.683594v45.035156c0 4.242188-3.441406 7.683594-7.683593 7.683594zm0 0" fill="#fa9f6a"/><path d="m104.832031 399.675781v-45.035156c0-4.242187 3.441407-7.683594 7.683594-7.683594h-30c-4.242187 0-7.683594 3.441407-7.683594 7.683594v45.035156c0 4.242188 3.441407 7.683594 7.683594 7.683594h30c-4.242187 0-7.683594-3.441406-7.683594-7.683594zm0 0" fill="#eb8f59"/><path d="m478.792969 458.773438h-445.585938c-14.199219 0-25.707031-11.507813-25.707031-25.707032 0-14.199218 11.507812-25.707031 25.707031-25.707031h445.585938c14.199219 0 25.707031 11.507813 25.707031 25.707031 0 14.199219-11.507812 25.707032-25.707031 25.707032zm0 0" fill="#fa9f6a"/><path d="m37.5 433.066406c0-14.199218 11.507812-25.707031 25.707031-25.707031h-30c-14.199219 0-25.707031 11.507813-25.707031 25.707031 0 14.199219 11.507812 25.707032 25.707031 25.707032h30c-14.199219 0-25.707031-11.507813-25.707031-25.707032zm0 0" fill="#eb8f59"/><path d="m74.832031 377.15625v22.519531c0 4.242188 3.441407 7.683594 7.683594 7.683594h108.632813c4.242187 0 7.683593-3.441406 7.683593-7.683594v-22.519531zm0 0" fill="#efedee"/><path d="m104.832031 399.675781v-22.519531h-30v22.519531c0 4.242188 3.441407 7.683594 7.683594 7.683594h30c-4.242187 0-7.683594-3.441406-7.683594-7.683594zm0 0" fill="#d9d7d8"/><path d="m279.140625 30.644531c0 12.78125-10.359375 23.140625-23.140625 23.140625s-23.140625-10.359375-23.140625-23.140625 10.359375-23.144531 23.140625-23.144531 23.140625 10.363281 23.140625 23.144531zm0 0" fill="#fadc60"/><path d="m512 392.007812v-289.699218c0-12.601563-10.25-22.851563-22.851562-22.851563h-78.460938l-124.066406-47.910156c.007812-.300781.023437-.601563.023437-.902344 0-16.898437-13.746093-30.644531-30.644531-30.644531s-30.644531 13.746094-30.644531 30.644531c0 .300781.015625.601563.023437.902344l-124.066406 47.910156h-78.460938c-12.601562 0-22.851562 10.25-22.851562 22.851563v289.699218c0 7.445313 3.582031 14.070313 9.109375 18.246094-5.636719 5.953125-9.109375 13.984375-9.109375 22.8125 0 18.3125 14.894531 33.207032 33.207031 33.207032h445.585938c18.3125 0 33.207031-14.894532 33.207031-33.207032 0-8.828125-3.472656-16.855468-9.109375-22.8125 5.527344-4.175781 9.109375-10.800781 9.109375-18.246094zm-256-377.007812c8.625 0 15.644531 7.015625 15.644531 15.644531 0 8.625-7.019531 15.640625-15.644531 15.640625s-15.644531-7.015625-15.644531-15.644531c0-8.625 7.019531-15.640625 15.644531-15.640625zm-26.480469 31.03125c5.316407 9.113281 15.191407 15.253906 26.480469 15.253906s21.164062-6.140625 26.480469-15.253906l86.566406 33.425781h-226.09375zm267.480469 345.976562c0 4.332032-3.523438 7.851563-7.851562 7.851563h-88.195313c-4.144531 0-7.5 3.359375-7.5 7.5 0 4.144531 3.355469 7.5 7.5 7.5h77.839844c10.039062 0 18.207031 8.167969 18.207031 18.207031 0 10.039063-8.167969 18.207032-18.207031 18.207032h-445.585938c-10.039062 0-18.207031-8.167969-18.207031-18.207032 0-10.039062 8.167969-18.207031 18.207031-18.207031h339.746094c4.140625 0 7.5-3.355469 7.5-7.5 0-4.140625-3.359375-7.5-7.5-7.5h-166.628906c0-.0625.007812-.121094.007812-.183594v-14.816406h268.167969c4.140625 0 7.5-3.355469 7.5-7.5v-260.402344c0-4.144531-3.359375-7.5-7.5-7.5h-437c-4.140625 0-7.5 3.355469-7.5 7.5v260.402344c0 4.140625 3.359375 7.5 7.5 7.5h29.832031v14.816406c0 .058594.007813.121094.007813.183594h-44.488282c-4.328124 0-7.851562-3.523437-7.851562-7.851563v-289.699218c0-4.332032 3.523438-7.851563 7.851562-7.851563h466.296876c4.328124 0 7.851562 3.519531 7.851562 7.851563zm-305.851562-52.550781h-108.632813c-8.371094 0-15.183594 6.8125-15.183594 15.183594v15.21875h-22.332031v-245.402344h422v245.402344h-260.667969v-15.21875c0-8.371094-6.8125-15.183594-15.183593-15.183594zm-35.789063 45.199219h35.972656v15.019531c0 .101563-.082031.183594-.183593.183594h-108.632813c-.101563 0-.183594-.082031-.183594-.183594v-15.019531h45.027344c4.140625 0 7.5-3.355469 7.5-7.5 0-4.140625-3.359375-7.5-7.5-7.5h-45.027344v-15.015625c0-.101563.082031-.183594.183594-.183594h108.632813c.101562 0 .183593.082031.183593.183594v15.015625h-35.972656c-4.140625 0-7.5 3.359375-7.5 7.5 0 4.144531 3.359375 7.5 7.5 7.5zm0 0"/><g fill="#efedee"><path d="m117.75 298.257812c0-.234374.109375-.828124.332031-1.773437l32.074219-104.421875c.664062-2.09375 2.296875-3.714844 4.898438-4.863281 2.601562-1.144531 5.5625-1.71875 8.882812-1.71875s6.308594.636719 8.964844 1.910156 4.316406 3.070313 4.980468 5.394531l32.042969 104.429688c.21875.886718.332031 1.4375.332031 1.660156 0 2.4375-1.492187 4.539062-4.484374 6.308594-2.988282 1.769531-6.03125 2.65625-9.128907 2.65625-4.097656 0-6.53125-1.4375-7.304687-4.316406l-6.308594-22.082032h-35.570312l-6.1875 22.09375c-.875 2.871094-3.617188 4.304688-8.230469 4.304688-3.617188 0-7.070313-.914063-10.359375-2.75-3.289063-1.832032-4.933594-4.109375-4.933594-6.832032zm34.449219-33.75h28.710937l-14.445312-50.96875zm0 0"/><path d="m224.242188 301.199219v-107.917969c0-2.097656.941406-3.761719 2.824218-4.980469 1.878906-1.214843 4.09375-1.824219 6.640625-1.824219h32.042969c22.246094 0 33.371094 9.742188 33.371094 29.21875 0 13.503907-4.707032 22.304688-14.113282 26.398438 5.644532 2.214844 9.902344 5.34375 12.785157 9.382812 2.875 4.039063 4.316406 9.933594 4.316406 17.679688v3.488281c0 12.285157-2.988281 21.222657-8.964844 26.8125-5.980469 5.589844-14.058593 8.382813-24.242187 8.382813h-35.195313c-2.769531 0-5.039062-.664063-6.808593-1.992188-1.769532-1.328125-2.65625-2.875-2.65625-4.648437zm21.417968-67.570313h18.59375c4.316406 0 7.609375-1.273437 9.878906-3.820312 2.265626-2.546875 3.402344-6.03125 3.402344-10.460938 0-4.316406-1.1875-7.71875-3.566406-10.207031-2.382812-2.492187-5.675781-3.738281-9.878906-3.738281h-18.429688zm0 55.285156h18.761719c10.734375 0 16.101563-6.03125 16.101563-18.097656v-2.65625c0-6.195312-1.355469-10.679687-4.066407-13.449218-2.714843-2.765626-6.722656-4.148438-12.035156-4.148438h-18.761719zm0 0"/><path d="m316.386719 270.816406v-46.320312c0-13.058594 3.539062-22.660156 10.625-28.804688 7.082031-6.144531 16.324219-9.214844 27.726562-9.214844 11.621094 0 21.109375 2.878907 28.472657 8.632813 7.359374 5.757813 11.042968 13.394531 11.042968 22.914063 0 4.09375-.832031 6.886718-2.492187 8.382812-1.660157 1.492188-4.425781 2.242188-8.300781 2.242188-7.085938 0-10.683594-2.269532-10.792969-6.808594-.109375-1.4375-.246094-2.683594-.414063-3.734375-.164062-1.050781-.609375-2.433594-1.328125-4.152344-.722656-1.714844-1.632812-3.152344-2.738281-4.316406-1.109375-1.160157-2.769531-2.15625-4.980469-2.988281-2.214843-.828126-4.816406-1.246094-7.804687-1.246094-11.621094 0-17.433594 6.367187-17.433594 19.09375v46.320312c0 12.730469 5.921875 19.09375 17.765625 19.09375 3.542969 0 6.5-.550781 8.882813-1.660156 2.378906-1.105469 4.09375-2.683594 5.144531-4.730469s1.769531-3.875 2.160156-5.480469c.386719-1.601562.636719-3.570312.746094-5.894531.332031-4.535156 3.871093-6.804687 10.625-6.804687 3.875 0 6.667969.746094 8.386719 2.238281 1.710937 1.496094 2.570312 4.292969 2.570312 8.386719 0 9.960937-3.679688 17.929687-11.039062 23.90625-7.363282 5.976562-16.910157 8.964844-28.640626 8.964844-11.402343 0-20.617187-3.070313-27.644531-9.214844-7.027343-6.140625-10.539062-15.742188-10.539062-28.804688zm0 0"/></g></svg>