<svg viewBox="-46 0 512 512.001" xmlns="http://www.w3.org/2000/svg"><path d="m82.566406 389.167969c-22.238281 0-40.269531 18.027343-40.269531 40.265625 0 22.242187 18.03125 40.269531 40.269531 40.269531h309.574219v-80.535156zm0 0" fill="#efedee"/><path d="m73.375 429.433594c0-22.238282 18.03125-40.265625 40.269531-40.265625h-31.078125c-22.238281 0-40.269531 18.027343-40.269531 40.265625 0 22.242187 18.03125 40.269531 40.269531 40.269531h31.078125c-22.242187 0-40.269531-18.027344-40.269531-40.269531zm0 0" fill="#d9d7d8"/><path d="m82.566406 469.703125c-22.238281 0-40.269531-18.027344-40.269531-40.269531 0-22.238282 18.03125-40.265625 40.269531-40.265625h312.902344c9.609375 0 17.402344-7.789063 17.402344-17.398438v-346.871093c0-9.609376-7.792969-17.398438-17.402344-17.398438h-318.175781c-38.546875 0-69.792969 31.246094-69.792969 69.792969v357.414062c0 38.546875 31.246094 69.792969 69.792969 69.792969h318.175781c9.609375 0 17.398438-7.789062 17.398438-17.398438 0-9.609374-7.789063-17.398437-17.398438-17.398437zm0 0" fill="#fd6f71"/><path d="m395.46875 469.703125h-312.902344c-22.238281 0-40.269531-18.027344-40.269531-40.269531 0-22.238282 18.03125-40.265625 40.269531-40.265625h20.328125v-381.667969h-25.601562c-38.546875 0-69.792969 31.246094-69.792969 69.792969v357.414062c0 38.546875 31.246094 69.792969 69.792969 69.792969h318.175781c9.609375 0 17.402344-7.789062 17.402344-17.398438 0-9.609374-7.792969-17.398437-17.402344-17.398437zm0 0" fill="#e36465"/><path d="m257.882812 218.648438c-9.5 0-17.199218-7.699219-17.199218-17.199219v-12.898438h34.394531v12.898438c0 9.5-7.699219 17.199219-17.195313 17.199219zm0 0" fill="#464c51"/><path d="m327.246094 218.339844h-11.355469c-4.140625 0-7.5-3.359375-7.5-7.5 0-4.144532 3.359375-7.5 7.5-7.5h11.355469c4.144531 0 7.5 3.355468 7.5 7.5 0 4.140625-3.355469 7.5-7.5 7.5zm0 0" fill="#efedee"/><path d="m199.871094 218.339844h-11.355469c-4.144531 0-7.5-3.359375-7.5-7.5 0-4.144532 3.355469-7.5 7.5-7.5h11.355469c4.140625 0 7.5 3.355468 7.5 7.5 0 4.140625-3.359375 7.5-7.5 7.5zm0 0" fill="#efedee"/><path d="m321.570312 170.515625c-4.140624 0-7.5 3.359375-7.5 7.5v11.355469c0 4.144531 3.359376 7.5 7.5 7.5 4.140626 0 7.5-3.355469 7.5-7.5v-11.355469c0-4.140625-3.359374-7.5-7.5-7.5zm0 0"/><path d="m194.191406 170.515625c-4.140625 0-7.5 3.359375-7.5 7.5v11.355469c0 4.144531 3.359375 7.5 7.5 7.5s7.5-3.355469 7.5-7.5v-11.355469c0-4.140625-3.359375-7.5-7.5-7.5zm0 0"/><path d="m275.078125 181.050781h-34.394531c-4.144532 0-7.5 3.359375-7.5 7.5v12.898438c0 13.621093 11.078125 24.699219 24.695312 24.699219 13.621094 0 24.699219-11.078126 24.699219-24.699219v-12.898438c0-4.140625-3.355469-7.5-7.5-7.5zm-7.5 20.398438c0 5.351562-4.351563 9.699219-9.699219 9.699219s-9.695312-4.347657-9.695312-9.699219v-5.398438h19.394531zm0 0"/><path d="m420.367188 371.769531v-346.871093c0-13.730469-11.167969-24.898438-24.898438-24.898438h-318.175781c-42.621094 0-77.292969 34.671875-77.292969 77.292969v357.417969c0 42.617187 34.671875 77.289062 77.292969 77.289062h318.175781c13.730469 0 24.898438-11.167969 24.898438-24.898438 0-12.304687-8.976563-22.550781-20.726563-24.542968v-66.246094c11.75-1.992188 20.726563-12.238281 20.726563-24.542969zm-79.121094 24.898438h43.394531v65.535156h-302.074219c-18.070312 0-32.769531-14.699219-32.769531-32.769531 0-18.066406 14.699219-32.765625 32.769531-32.765625h230.683594c4.140625 0 7.5-3.359375 7.5-7.5 0-4.144531-3.359375-7.5-7.5-7.5h-202.855469v-274.335938c0-4.140625-3.359375-7.5-7.5-7.5-4.144531 0-7.5 3.359375-7.5 7.5v274.335938h-12.828125c-26.339844 0-47.769531 21.429687-47.769531 47.765625 0 26.339844 21.429687 47.769531 47.769531 47.769531h312.902344c5.460938 0 9.898438 4.441406 9.898438 9.898437 0 5.457032-4.4375 9.898438-9.898438 9.898438h-318.175781c-34.347657 0-62.292969-27.945312-62.292969-62.292969v-357.414062c0-34.347657 27.945312-62.292969 62.292969-62.292969h18.101562v65.347656c0 4.140625 3.355469 7.5 7.5 7.5 4.140625 0 7.5-3.359375 7.5-7.5v-65.347656h285.074219c5.460938 0 9.898438 4.441406 9.898438 9.898438v346.871093c0 5.457031-4.4375 9.898438-9.898438 9.898438h-54.21875c-4.144531 0-7.5 3.355469-7.5 7.5 0 4.140625 3.355469 7.5 7.496094 7.5zm0 0"/></svg>