<svg viewBox="-52 0 511 512" xmlns="http://www.w3.org/2000/svg"><path d="m351.875 186.097656c0 91.285156-74 165.285156-165.285156 165.285156s-165.285156-74-165.285156-165.285156 74-165.285156 165.285156-165.285156 165.285156 74 165.285156 165.285156zm0 0" fill="#85cdea"/><path d="m51.304688 186.097656c0-86.226562 66.03125-157.019531 150.285156-164.601562-4.941406-.441406-9.941406-.683594-15-.683594-91.285156 0-165.285156 74-165.285156 165.285156s74 165.285156 165.285156 165.285156c5.058594 0 10.058594-.238281 15-.683593-84.253906-7.582031-150.285156-78.375-150.285156-164.601563zm0 0" fill="#78b7d2"/><path d="m114.375 100.636719c13.453125 13.457031 35.269531 13.457031 48.722656 0 13.457032-13.453125 13.457032-35.269531 0-48.722657l-24.125-24.125c-23.425781 7.035157-44.660156 19.125-62.441406 35.007813zm0 0" fill="#58b78c"/><path d="m147.226562 36.039062-8.253906-8.253906c-23.425781 7.039063-44.660156 19.128906-62.441406 35.011719l15.105469 15.105469c15.261719-17.613282 34.191406-31.953125 55.589843-41.863282zm0 0" fill="#46926f"/><path d="m301.425781 67.234375c-1.0625.839844-2.09375 1.742187-3.074219 2.722656l-28.199218 28.195313c-13.453125 13.453125-13.453125 35.269531 0 48.722656 13.457031 13.457031 13.457031 35.269531 0 48.726562l-4.261719 4.265626c-13.457031 13.453124-13.457031 35.269531 0 48.722656 13.453125 13.457031 35.269531 13.457031 48.726563 0l34.960937-34.960938c1.503906-8.957031 2.296875-18.152344 2.296875-27.53125 0-46.664062-19.347656-88.808594-50.449219-118.863281zm0 0" fill="#58b78c"/><path d="m170.296875 348.570312c13.453125-13.457031 13.453125-35.269531 0-48.726562-13.457031-13.453125-13.457031-35.269531 0-48.726562l41.78125-41.78125c13.457031-13.457032 13.457031-35.269532 0-48.726563-13.453125-13.453125-35.269531-13.453125-48.722656 0l-10.203125 10.199219c-13.453125 13.457031-35.269532 13.457031-48.722656 0-13.457032-13.453125-35.269532-13.453125-48.726563 0l-33.398437 33.398437c3.957031 36.078125 19.75 71.105469 47.410156 98.765625 27.664062 27.664063 62.6875 43.457032 98.765625 47.410156zm0 0" fill="#58b78c"/><path d="m51.304688 186.097656c0-3.792968.140624-7.550781.390624-11.28125l-29.390624 29.390625c3.953124 36.078125 19.75 71.105469 47.410156 98.765625s62.6875 43.457032 98.765625 47.410156l1.8125-1.816406c.964843-.960937 1.851562-1.972656 2.675781-3.011718-70.117188-19.140626-121.664062-83.273438-121.664062-159.457032zm0 0" fill="#46926f"/><path d="m260.683594 464.589844h-148.1875c-3.140625 0-5.277344-3.183594-4.085938-6.089844l9.558594-23.332031c.972656-2.375 3.285156-3.929688 5.851562-3.929688h125.539063c2.566406 0 4.878906 1.550781 5.851563 3.929688l9.558593 23.332031c1.191407 2.90625-.945312 6.089844-4.085937 6.089844zm0 0" fill="#e6cb59"/><path d="m128.902344 458.5 9.5625-23.332031c.972656-2.375 3.285156-3.929688 5.851562-3.929688h-20.496094c-2.566406 0-4.878906 1.550781-5.851562 3.929688l-9.558594 23.332031c-1.191406 2.90625.945313 6.089844 4.085938 6.089844h20.496094c-3.140626 0-5.277344-3.183594-4.089844-6.089844zm0 0" fill="#d9bd4a"/><path d="m295.097656 504.5h-217.015625c-4.601562 0-7.730469-4.664062-5.988281-8.921875l14-34.167969c1.425781-3.476562 4.8125-5.75 8.570312-5.75h183.847657c3.761719 0 7.148437 2.273438 8.574219 5.75l13.996093 34.167969c1.746094 4.257813-1.386719 8.921875-5.984375 8.921875zm0 0" fill="#fadc60"/><path d="m102.109375 495.578125 14-34.167969c1.425781-3.476562 4.8125-5.75 8.570313-5.75h-30.015626c-3.757812 0-7.144531 2.273438-8.570312 5.75l-14 34.167969c-1.742188 4.257813 1.386719 8.921875 5.988281 8.921875h30.011719c-4.597656 0-7.726562-4.664062-5.984375-8.921875zm0 0" fill="#e6cb59"/><path d="m341.152344 61.566406-30.027344-30.03125c-3.066406-3.066406-3.066406-8.039062 0-11.101562l10.628906-10.632813c3.066406-3.066406 8.039063-3.066406 11.101563 0l30.03125 30.027344c3.066406 3.066406 3.066406 8.039063 0 11.105469l-10.632813 10.632812c-3.0625 3.066406-8.035156 3.066406-11.101562 0zm0 0" fill="#fadc60"/><path d="m331.132812 40.441406 10.632813-10.632812c3.066406-3.066406 8.035156-3.066406 11.101563 0l-20.011719-20.007813c-3.0625-3.066406-8.035157-3.066406-11.101563 0l-10.632812 10.632813c-3.066406 3.0625-3.066406 8.035156 0 11.101562l20.011718 20.011719c-3.066406-3.070313-3.066406-8.039063 0-11.105469zm0 0" fill="#e6cb59"/><path d="m40.320312 362.394531-30.027343-30.027343c-3.066407-3.066407-3.066407-8.039063 0-11.105469l10.628906-10.628907c3.066406-3.066406 8.039063-3.066406 11.105469 0l30.027344 30.027344c3.066406 3.066406 3.066406 8.039063 0 11.105469l-10.628907 10.628906c-3.066406 3.070313-8.039062 3.070313-11.105469 0zm0 0" fill="#fadc60"/><path d="m30.300781 341.273438 10.632813-10.632813c3.066406-3.066406 8.035156-3.066406 11.101562 0l-20.007812-20.007813c-3.066406-3.066406-8.039063-3.066406-11.105469 0l-10.628906 10.628907c-3.066407 3.066406-3.066407 8.039062 0 11.105469l20.007812 20.007812c-3.066406-3.066406-3.066406-8.035156 0-11.101562zm0 0" fill="#e6cb59"/><path d="m342.308594 341.816406c41.59375-41.59375 64.5-96.894531 64.5-155.71875 0-46.402344-14.078125-90.410156-40.765625-127.714844l2.148437-2.148437c2.898438-2.898437 4.496094-6.753906 4.496094-10.851563 0-4.101562-1.597656-7.957031-4.496094-10.855468l-30.03125-30.03125c-2.898437-2.898438-6.753906-4.496094-10.855468-4.496094-4.101563 0-7.957032 1.597656-10.851563 4.496094l-10.636719 10.632812c-2.898437 2.898438-4.496094 6.753906-4.496094 10.855469s1.597657 7.953125 4.496094 10.855469l9.714844 9.710937-12.246094 12.242188c-30.765625-28.226563-71.75-45.480469-116.695312-45.480469-17.097656 0-33.617188 2.507812-49.222656 7.15625-.367188.078125-.726563.1875-1.082032.320312-23.882812 7.28125-45.582031 19.609376-63.859375 35.730469-.421875.277344-.824219.601563-1.199219.972657-.144531.148437-.277343.300781-.40625.453124-34.992187 31.640626-57.015624 77.371094-57.015624 128.152344 0 44.945313 17.253906 85.929688 45.480468 116.699219l-12.246094 12.242187-9.710937-9.710937c-2.898437-2.898437-6.753906-4.496094-10.855469-4.496094-4.097656 0-7.953125 1.597657-10.851562 4.496094l-10.632813 10.632813c-5.984375 5.984374-5.984375 15.722656 0 21.707031l30.03125 30.03125c2.898438 2.898437 6.753907 4.496093 10.851563 4.496093 4.101562 0 7.957031-1.597656 10.855468-4.496093l2.148438-2.144531c35.285156 25.242187 76.578125 39.195312 120.214844 40.628906v17.558594h-55.273438c-5.632812 0-10.652344 3.367187-12.792968 8.582031l-6.484376 15.835937h-9.875c-6.832031 0-12.921874 4.085938-15.511718 10.40625l-14 34.167969c-1.765625 4.316406-1.269532 9.207031 1.328125 13.078125 2.597656 3.875 6.9375 6.1875 11.601562 6.1875h217.015625c4.664063 0 9-2.3125 11.597656-6.183594 2.601563-3.875 3.097657-8.761718 1.328126-13.082031l-14-34.167969c-2.589844-6.320312-8.675782-10.40625-15.511719-10.40625h-9.871094l-6.488281-15.835937c-2.136719-5.214844-7.15625-8.585938-12.792969-8.585938h-55.269531v-17.558593c56.007812-1.863282 108.394531-24.542969 148.21875-64.363282zm-89.878906 106.34375h-16.257813c-4.144531 0-7.5 3.359375-7.5 7.5s3.355469 7.5 7.5 7.5h27.398437c.015626 0 .027344.003906.039063.003906.023437 0 .042969-.003906.0625-.003906h14.84375c.714844 0 1.355469.429688 1.628906 1.09375l13.414063 32.746094h-213.941406l13.417968-32.746094c.269532-.664062.910156-1.09375 1.628906-1.09375h14.953126.058593 98.492188c4.144531 0 7.5-3.359375 7.5-7.5s-3.355469-7.5-7.5-7.5h-87.417969l3.855469-9.421875h123.964843zm63.996093-422.425781 10.632813-10.632813c.03125-.03125.101562-.101562.246094-.101562.148437 0 .21875.070312.25.101562l30.03125 30.03125c.027343.03125.101562.105469.101562.25 0 .144532-.070312.214844-.105469.246094l-10.628906 10.632813c-.03125.03125-.105469.101562-.25.101562s-.21875-.070312-.246094-.101562l-30.03125-30.03125c-.03125-.03125-.105469-.101563-.105469-.25 0-.144531.074219-.214844.105469-.246094zm26.136719 184.304687-33.25 33.25c-5.09375 5.09375-11.859375 7.894532-19.058594 7.894532-7.203125 0-13.96875-2.800782-19.0625-7.894532-5.089844-5.089843-7.894531-11.859374-7.894531-19.058593s2.804687-13.96875 7.894531-19.058594l4.265625-4.265625c16.355469-16.359375 16.355469-42.972656 0-59.332031-10.511719-10.511719-10.511719-27.609375 0-38.121094l25.714844-25.714844c26.765625 28.289063 43.203125 66.4375 43.203125 108.359375 0 8.136719-.621094 16.132813-1.8125 23.941406zm-205.652344-173.707031 20.886719 20.886719c5.089844 5.089844 7.894531 11.855469 7.894531 19.058594 0 7.199218-2.804687 13.964844-7.898437 19.058594-10.507813 10.507812-27.609375 10.507812-38.117188 0l-32.039062-32.039063c14.535156-11.734375 31.179687-20.945313 49.273437-26.964844zm-60.503906 36.945313 32.664062 32.664062c8.179688 8.179688 18.921876 12.269532 29.664063 12.269532s21.488281-4.089844 29.667969-12.269532c7.925781-7.921875 12.289062-18.457031 12.289062-29.664062 0-11.207032-4.363281-21.742188-12.289062-29.667969l-14.8125-14.8125c10.644531-2.277344 21.683594-3.484375 33-3.484375 39.695312 0 76.007812 14.742188 103.769531 39.027344l-25.507813 25.507812c-16.359374 16.359375-16.359374 42.976563 0 59.332032 10.507813 10.511718 10.507813 27.609374 0 38.121093l-4.265624 4.265625c-16.359376 16.355469-16.359376 42.972656 0 59.332032 8.179687 8.175781 18.921874 12.265624 29.664062 12.265624 10.746094 0 21.488281-4.085937 29.667969-12.265624l15.554687-15.554688c-21.609375 61.402344-80.183594 105.539062-148.882812 105.539062-1.191406 0-2.375-.019531-3.5625-.042968 3.175781-5.976563 4.859375-12.675782 4.859375-19.632813 0-11.207031-4.363281-21.742187-12.289063-29.667969-5.089844-5.089843-7.894531-11.859374-7.894531-19.058593s2.804687-13.96875 7.894531-19.058594l10.039063-10.039063c2.929687-2.929687 2.929687-7.679687 0-10.605468-2.929688-2.929688-7.675781-2.929688-10.605469 0l-10.039062 10.039062c-7.925782 7.921875-12.289063 18.457032-12.289063 29.664063s4.363281 21.742187 12.289063 29.667969c10.257812 10.257812 10.496093 26.796874.726562 37.355468-70.351562-9.339844-126.214844-65.207031-135.539062-135.566406l30.824218-30.824219c5.09375-5.089843 11.859375-7.894531 19.058594-7.894531 7.203125 0 13.972656 2.804688 19.0625 7.894531 7.925781 7.921875 18.460938 12.289063 29.667969 12.289063 11.203125 0 21.738281-4.367188 29.664062-12.289063l10.199219-10.199219c10.507812-10.511718 27.609375-10.511718 38.117188 0 10.511718 10.507813 10.511718 27.609376.003906 38.117188l-11.945313 11.945312c-2.933593 2.929688-2.933593 7.679688-.003906 10.609376 1.464844 1.464843 3.386719 2.195312 5.304687 2.195312 1.917969 0 3.839844-.730469 5.304688-2.195312l11.945312-11.949219c7.925782-7.921875 12.289063-18.457031 12.289063-29.664063 0-11.207031-4.367187-21.742187-12.289063-29.667968-16.359374-16.355469-42.972656-16.355469-59.332031 0l-10.199219 10.203124c-10.507812 10.507813-27.609374 10.507813-38.121093 0-7.921875-7.925781-18.457031-12.289062-29.664063-12.289062-11.207031 0-21.742187 4.363281-29.667968 12.289062l-21.582032 21.582032c0-.332032-.011718-.660156-.011718-.992188 0-44.171875 18.25-84.152344 47.601562-112.820312zm-6.515625 240.125c30.765625 28.226562 71.753906 45.480468 116.699219 45.480468 85.371094 0 156.46875-62.238281 170.328125-143.722656.03125-.148437.050781-.300781.074219-.453125 1.558593-9.308593 2.382812-18.863281 2.382812-28.609375 0-44.945312-17.253906-85.929687-45.480469-116.695312l12.242188-12.246094 9.710937 9.710938c2.902344 2.902343 6.753906 4.496093 10.855469 4.496093 3.027344 0 5.917969-.875 8.394531-2.496093 24.042969 34.367187 36.710938 74.71875 36.710938 117.230468 0 54.816406-21.347656 106.351563-60.105469 145.113282-38.765625 38.761718-90.300781 60.105468-145.113281 60.105468-42.511719 0-82.867188-12.664062-117.234375-36.710937 3.886719-5.949219 3.222656-14.027344-1.996094-19.246094l-9.710937-9.710937zm-24.019531 43.792968c-.144532 0-.21875-.070312-.246094-.101562l-30.03125-30.03125c-.136719-.136719-.136719-.359375 0-.496094l10.632812-10.632812c.03125-.03125.101563-.101563.246094-.101563.148438 0 .21875.070313.25.101563l15.007813 15.007812c0 .003906.003906.007813.007812.007813.003907.003906.003907.003906.007813.007812l15.007812 15.007813c.136719.136718.136719.359375 0 .5l-10.632812 10.628906c-.03125.03125-.101563.101562-.25.101562zm0 0"/></svg>