<svg viewBox="0 0 512 512.001" xmlns="http://www.w3.org/2000/svg"><path d="m108.332031 500.824219-97.15625-97.15625c-4.902343-4.902344-4.902343-12.851563 0-17.757813l374.738281-374.734375c4.902344-4.902343 12.851563-4.902343 17.753907 0l97.15625 97.15625c4.902343 4.902344 4.902343 12.851563 0 17.757813l-374.734375 374.734375c-4.90625 4.902343-12.851563 4.902343-17.757813 0zm0 0" fill="#efedee"/><path d="m500.824219 108.332031-28-28-392.492188 392.488281 28 28c4.90625 4.90625 12.855469 4.90625 17.757813 0l374.734375-374.730468c4.902343-4.90625 4.902343-12.855469 0-17.757813zm0 0" fill="#d9d7d8"/><path d="m80.332031 472.820312 392.484375-392.484374 18.289063 18.285156-392.488281 392.488281zm0 0" fill="#bab8b9"/><path d="m29.464844 404.199219 374.734375-374.734375c4.902343-4.902344 12.851562-4.902344 17.757812 0l-18.289062-18.289063c-4.902344-4.902343-12.851563-4.902343-17.757813 0l-374.734375 374.734375c-4.902343 4.90625-4.902343 12.855469 0 17.757813l18.289063 18.289062c-4.902344-4.90625-4.902344-12.855469 0-17.757812zm0 0" fill="#d9d7d8"/><path d="m506.125 103.027344-27.996094-27.996094s0 0-.003906-.003906c0 0 0 0-.003906-.003906l-69.148438-69.148438c-3.789062-3.789062-8.824218-5.875-14.183594-5.875-5.355468 0-10.390624 2.085938-14.179687 5.875l-256.042969 256.042969c-2.929687 2.929687-2.929687 7.679687 0 10.605469 1.464844 1.464843 3.382813 2.199218 5.300782 2.199218 1.921874 0 3.839843-.734375 5.304687-2.199218l11.40625-11.40625 32.800781 32.804687c1.464844 1.464844 3.382813 2.195313 5.304688 2.195313 1.917968 0 3.839844-.730469 5.304687-2.195313 2.929688-2.929687 2.929688-7.679687 0-10.605469l-32.804687-32.804687 41.363281-41.359375 32.800781 32.800781c1.464844 1.464844 3.386719 2.195313 5.304688 2.195313 1.917968 0 3.839844-.730469 5.304687-2.195313 2.929688-2.929687 2.929688-7.679687 0-10.605469l-32.800781-32.804687 41.359375-41.359375 32.800781 32.800781c1.464844 1.464844 3.386719 2.199219 5.304688 2.199219 1.917968 0 3.839844-.734375 5.304687-2.199219 2.929688-2.929687 2.929688-7.675781 0-10.605469l-32.800781-32.804687 41.359375-41.359375 32.800781 32.800781c1.464844 1.464844 3.386719 2.199219 5.304688 2.199219 1.917968 0 3.839844-.734375 5.304687-2.199219 2.929688-2.925781 2.929688-7.675781 0-10.605469l-32.800781-32.800781 41.359375-41.363281 32.796875 32.804687c1.464844 1.464844 3.382812 2.195313 5.304688 2.195313 1.917968 0 3.839843-.730469 5.304687-2.195313 2.929687-2.929687 2.929687-7.679687 0-10.605469l-32.804687-32.804687 26.164062-26.160156c.953125-.957031 2.222656-1.480469 3.574219-1.480469 1.347656 0 2.617187.527344 3.574219 1.480469l63.847656 63.851562-381.882813 381.882813-63.851562-63.851563c-1.972657-1.96875-1.972657-5.175781 0-7.148437l26.160156-26.160156 32.804687 32.804687c1.464844 1.464844 3.382813 2.195313 5.300782 2.195313 1.921875 0 3.839844-.730469 5.304687-2.195313 2.929688-2.929687 2.929688-7.679687 0-10.605469l-32.800781-32.804687 41.359375-41.359375 32.804687 32.800781c1.464844 1.464844 3.382813 2.199219 5.300782 2.199219 1.921875 0 3.839844-.734375 5.304687-2.199219 2.929688-2.929687 2.929688-7.675781 0-10.605469l-32.800781-32.804687 11.457031-11.453125c2.925781-2.929688 2.925781-7.679688 0-10.605469-2.929687-2.929687-7.679687-2.929687-10.609375 0l-100.191406 100.1875c-3.789062 3.785156-5.875 8.824219-5.875 14.179687 0 5.359376 2.085938 10.394532 5.875 14.183594l69.152344 69.152344c.003906 0 .003906 0 .003906.003906l28 28c3.789062 3.785156 8.824219 5.871094 14.179688 5.871094 5.359374 0 10.394531-2.085938 14.183593-5.871094l299.199219-299.199218c2.929688-2.929688 2.929688-7.679688 0-10.609376-2.929688-2.925781-7.679688-2.925781-10.609375 0l-299.199219 299.199219c-.953125.957031-2.226562 1.480469-3.574218 1.480469-1.351563 0-2.621094-.527344-3.574219-1.480469l-22.695313-22.695312 381.882813-381.886719 22.695312 22.699219c1.972657 1.96875 1.972657 5.175781 0 7.148437l-54.566406 54.566406c-2.925781 2.925782-2.925781 7.675782 0 10.605469 2.929687 2.925781 7.679687 2.929688 10.609375 0l54.5625-54.566406c3.789062-3.789063 5.875-8.824219 5.875-14.179687 0-5.359376-2.085938-10.394532-5.875-14.183594zm0 0"/></svg>