<svg viewBox="0 -3 512 512" xmlns="http://www.w3.org/2000/svg"><path d="m495.699219 499.421875h-479.398438c-4.859375 0-8.800781-3.9375-8.800781-8.800781v-24.738282c0-4.859374 3.941406-8.800781 8.800781-8.800781h479.398438c4.859375 0 8.800781 3.941407 8.800781 8.800781v24.738282c0 4.863281-3.941406 8.800781-8.800781 8.800781zm0 0" fill="#58b78c"/><path d="m37.5 490.621094v-24.738282c0-4.859374 3.941406-8.800781 8.800781-8.800781h-30c-4.859375 0-8.800781 3.941407-8.800781 8.800781v24.738282c0 4.863281 3.941406 8.800781 8.800781 8.800781h30c-4.859375 0-8.800781-3.9375-8.800781-8.800781zm0 0" fill="#46926f"/><path d="m31.796875 192.066406h448.40625v264.746094h-448.40625zm0 0" fill="#d9d7d8"/><g fill="#78b7d2"><path d="m387.160156 398.320312h-18.695312c-4.148438 0-7.507813-3.363281-7.507813-7.507812v-160.058594c0-4.144531 3.359375-7.507812 7.507813-7.507812h18.695312c4.144532 0 7.507813 3.363281 7.507813 7.507812v160.058594c0 4.144531-3.363281 7.507812-7.507813 7.507812zm0 0"/><path d="m446.648438 398.320312h-18.695313c-4.144531 0-7.507813-3.363281-7.507813-7.507812v-160.058594c0-4.144531 3.363282-7.507812 7.507813-7.507812h18.695313c4.148437 0 7.507812 3.363281 7.507812 7.507812v160.058594c0 4.144531-3.359375 7.507812-7.507812 7.507812zm0 0"/><path d="m84.042969 398.320312h-18.691407c-4.148437 0-7.507812-3.363281-7.507812-7.507812v-160.058594c0-4.144531 3.359375-7.507812 7.507812-7.507812h18.695313c4.144531 0 7.507813 3.363281 7.507813 7.507812v160.058594c0 4.144531-3.363282 7.507812-7.511719 7.507812zm0 0"/><path d="m143.535156 398.320312h-18.695312c-4.144532 0-7.507813-3.363281-7.507813-7.507812v-160.058594c0-4.144531 3.363281-7.507812 7.507813-7.507812h18.695312c4.148438 0 7.507813 3.363281 7.507813 7.507812v160.058594c0 4.144531-3.359375 7.507812-7.507813 7.507812zm0 0"/></g><path d="m417.554688 129.414062c-1.699219-1.695312-4-2.648437-6.398438-2.648437h-310.3125c-2.398438 0-4.699219.953125-6.398438 2.648437l-62.648437 62.652344h448.40625zm0 0" fill="#fa9f6a"/><path d="m132.640625 126.765625h-31.796875c-2.398438 0-4.699219.953125-6.398438 2.652344l-62.648437 62.648437h31.796875l62.648438-62.648437c1.699218-1.699219 4-2.652344 6.398437-2.652344zm0 0" fill="#eb8f59"/><path d="m177.089844 84.664062h157.820312v372.148438h-157.820312zm0 0" fill="#efedee"/><path d="m256 7.5-78.941406 77.164062h157.882812zm0 0" fill="#fa9f6a"/><path d="m256 7.5-78.941406 77.164062h30l63.941406-62.503906zm0 0" fill="#eb8f59"/><path d="m300.695312 164.484375c0 24.6875-20.011718 44.699219-44.695312 44.699219s-44.695312-20.011719-44.695312-44.699219c0-24.683594 20.011718-44.695313 44.695312-44.695313s44.695312 20.011719 44.695312 44.695313zm0 0" fill="#fadc60"/><path d="m229.5625 164.484375c0-21.554687 15.261719-39.542969 35.566406-43.757813-2.945312-.613281-6-.9375-9.128906-.9375-24.683594 0-44.695312 20.011719-44.695312 44.695313 0 24.6875 20.011718 44.699219 44.695312 44.699219 3.128906 0 6.183594-.324219 9.128906-.9375-20.304687-4.214844-35.566406-22.203125-35.566406-43.761719zm0 0" fill="#e6cb59"/><path d="m256 326.269531c-21.539062 0-39 17.460938-39 39v91.542969h78v-91.542969c0-21.539062-17.460938-39-39-39zm0 0" fill="#596674"/><path d="m495.699219 449.582031h-7.996094v-257.511719c0-.25-.011719-.5-.039063-.746093-.007812-.101563-.027343-.199219-.042968-.300781-.019532-.140626-.035156-.285157-.0625-.425782-.023438-.117187-.054688-.234375-.085938-.351562-.03125-.121094-.058594-.242188-.09375-.359375-.035156-.117188-.078125-.226563-.117187-.339844-.042969-.117187-.082031-.238281-.128907-.351563-.042968-.109374-.097656-.210937-.144531-.3125-.054687-.117187-.109375-.238281-.171875-.355468-.050781-.097656-.113281-.191406-.167968-.285156-.070313-.117188-.132813-.230469-.207032-.34375-.070312-.101563-.148437-.199219-.222656-.300782-.070312-.09375-.136719-.191406-.214844-.285156-.144531-.179688-.300781-.347656-.460937-.511719-.011719-.011719-.023438-.027343-.035157-.039062l-62.648437-62.648438c-3.125-3.125-7.28125-4.847656-11.703125-4.847656h-68.742188v-33.949219c.1875-2.160156-.558593-4.382812-2.230468-6.015625l-78.941406-77.164062c-2.914063-2.847657-7.566407-2.847657-10.484376 0l-78.941406 77.164062c-1.671875 1.632813-2.414062 3.859375-2.226562 6.019531v33.945313h-68.742188c-4.421875 0-8.578125 1.722656-11.703125 4.847656l-62.648437 62.648438c-.175782.175781-.339844.359375-.5.550781-.066406.085938-.128906.175781-.195313.265625-.082031.105469-.164062.210937-.238281.324219-.074219.105468-.136719.21875-.203125.328125-.058594.097656-.121094.195312-.175781.300781-.0625.113281-.113282.226562-.164063.34375-.050781.105469-.105469.210938-.148437.320312-.046875.113282-.085938.226563-.128906.34375-.039063.117188-.085938.230469-.121094.347657-.035156.117187-.058594.234375-.089844.351562-.027344.121094-.0625.238281-.085938.359375-.027343.136719-.042968.273438-.0625.410156-.015624.105469-.035156.210938-.046874.316407-.023438.246093-.035157.496093-.035157.746093v257.511719h-7.996093c-8.992188 0-16.304688 7.3125-16.304688 16.300781v24.738282c0 8.988281 7.3125 16.300781 16.300781 16.300781h479.398438c8.988281 0 16.300781-7.3125 16.300781-16.300781v-24.738282c0-8.988281-7.3125-16.300781-16.300781-16.300781zm-153.289063 0v-168.121093c0-4.140626-3.355468-7.5-7.5-7.5-4.140625 0-7.5 3.359374-7.5 7.5v168.121093h-24.910156v-84.3125c0-25.640625-20.859375-46.5-46.5-46.5s-46.5 20.859375-46.5 46.5v84.3125h-24.910156v-357.417969h142.820312v161.296876c0 4.144531 3.355469 7.5 7.5 7.5 4.144532 0 7.5-3.355469 7.5-7.5v-53.894532h130.292969v250.015625zm-54.910156 0h-63v-84.3125c0-17.367187 14.132812-31.5 31.5-31.5s31.5 14.132813 31.5 31.5zm123.652344-315.316406c.414062 0 .804687.160156 1.097656.453125l49.847656 49.847656h-119.6875v-50.300781zm-155.152344-116.277344 60.539062 59.175781h-121.078124zm-156.25 116.730469c.292969-.292969.679688-.453125 1.09375-.453125h68.746094v50.300781h-119.6875zm397.25 355.902344c0 .71875-.585938 1.300781-1.300781 1.300781h-479.398438c-.714843 0-1.300781-.582031-1.300781-1.300781v-24.738282c0-.714843.585938-1.300781 1.300781-1.300781h73.609375c4.144532 0 7.5-3.355469 7.5-7.5 0-4.140625-3.355468-7.5-7.5-7.5h-50.613281v-250.015625h130.292969v250.015625h-51.148438c-4.140625 0-7.5 3.359375-7.5 7.5s3.359375 7.5 7.5 7.5h377.257813c.714843 0 1.300781.582031 1.300781 1.300781zm0 0"/><path d="m387.15625 215.746094h-18.691406c-8.273438 0-15.007813 6.734375-15.007813 15.007812v160.058594c0 8.273438 6.730469 15.007812 15.007813 15.007812h18.691406c8.277344 0 15.011719-6.734374 15.011719-15.007812v-160.058594c0-8.273437-6.734375-15.007812-15.011719-15.007812zm0 175.074218-18.699219-.007812.007813-160.066406 18.703125.007812v160.066406s-.003907 0-.011719 0zm0 0"/><path d="m446.648438 215.746094h-18.691407c-8.277343 0-15.011719 6.734375-15.011719 15.007812v160.058594c0 8.273438 6.734376 15.007812 15.011719 15.007812h18.691407c8.277343 0 15.007812-6.734374 15.007812-15.007812v-160.058594c0-8.273437-6.730469-15.007812-15.007812-15.007812zm0 175.074218-18.703126-.007812.011719-160.066406 18.699219.007812.003906 160.066406s-.003906 0-.011718 0zm0 0"/><path d="m84.042969 215.746094h-18.691407c-8.277343 0-15.007812 6.734375-15.007812 15.007812v160.058594c0 8.273438 6.730469 15.007812 15.007812 15.007812h18.695313c8.273437 0 15.007813-6.734374 15.007813-15.007812v-160.058594c0-8.273437-6.734376-15.007812-15.011719-15.007812zm0 175.074218-18.703125-.007812.011718-160.066406 18.703126.007812v160.066406s-.003907 0-.011719 0zm0 0"/><path d="m124.839844 405.820312h18.695312c8.277344 0 15.007813-6.734374 15.007813-15.007812v-160.058594c0-8.273437-6.730469-15.007812-15.007813-15.007812h-18.695312c-8.273438 0-15.007813 6.734375-15.007813 15.007812v160.058594c0 8.273438 6.734375 15.007812 15.007813 15.007812zm0-175.074218 18.703125.007812.003906 160.066406s-.003906 0-.011719 0l-18.703125-.007812zm0 0"/><path d="m256 112.289062c-28.78125 0-52.195312 23.414063-52.195312 52.195313s23.414062 52.199219 52.195312 52.199219 52.195312-23.417969 52.195312-52.199219-23.414062-52.195313-52.195312-52.195313zm0 89.394532c-20.511719 0-37.195312-16.6875-37.195312-37.199219 0-20.507813 16.683593-37.195313 37.195312-37.195313s37.195312 16.6875 37.195312 37.195313c0 20.511719-16.683593 37.199219-37.195312 37.199219zm0 0"/><path d="m256 132.035156c-4.140625 0-7.5 3.355469-7.5 7.5v21.84375l-12.3125 12.3125c-2.929688 2.929688-2.929688 7.679688 0 10.605469 1.464844 1.464844 3.382812 2.199219 5.304688 2.199219 1.917968 0 3.835937-.734375 5.300781-2.199219l14.511719-14.507813c1.40625-1.40625 2.195312-3.3125 2.195312-5.304687v-24.953125c0-4.140625-3.355469-7.496094-7.5-7.496094zm0 0"/></svg>