<svg viewBox="-49 1 511 511.999" xmlns="http://www.w3.org/2000/svg"><path d="m333.8125 266.839844h-253.199219s-42.867187 57.480468-19.671875 101.929687c23.195313 44.445313 59.5 55.195313 59.5 55.195313h173.542969s36.304687-10.75 59.5-55.195313c23.195313-44.449219-19.671875-101.929687-19.671875-101.929687zm0 0" fill="#eb8f59"/><path d="m49.039062 504.5c0-87.355469 70.816407-158.171875 158.175782-158.171875 87.355468 0 158.171875 70.816406 158.171875 158.171875zm0 0" fill="#fd6f71"/><path d="m222.214844 347.039062c-4.9375-.464843-9.941406-.710937-15-.710937-87.355469 0-158.175782 70.816406-158.175782 158.171875h30c0-82.296875 62.855469-149.902344 143.175782-157.460938zm0 0" fill="#e36465"/><path d="m406.425781 205.328125c0 18.949219-15.359375 34.308594-34.304687 34.308594-18.949219 0-34.308594-15.359375-34.308594-34.308594 0-18.945313 15.359375-34.308594 34.308594-34.308594 18.945312 0 34.304687 15.363281 34.304687 34.308594zm0 0" fill="#cc9883"/><path d="m76.617188 205.328125c0 18.949219-15.363282 34.308594-34.308594 34.308594-18.949219 0-34.308594-15.359375-34.308594-34.308594 0-18.945313 15.359375-34.308594 34.308594-34.308594 18.945312 0 34.308594 15.363281 34.308594 34.308594zm0 0" fill="#cc9883"/><path d="m265.71875 365.03125c0-54.230469-26.195312-98.191406-58.503906-98.191406-32.3125 0-58.503906 43.960937-58.503906 98.191406s26.191406 98.195312 58.503906 98.195312c32.308594 0 58.503906-43.964843 58.503906-98.195312zm0 0" fill="#efedee"/><path d="m250.082031 358.683594c0 23.675781-19.195312 42.867187-42.867187 42.867187-23.675782 0-42.867188-19.191406-42.867188-42.867187 0-23.675782 19.191406-42.867188 42.867188-42.867188 23.671875 0 42.867187 19.191406 42.867187 42.867188zm0 0" fill="#e3b098"/><path d="m207.214844 315.816406c-23.675782 0-42.867188 19.191406-42.867188 42.867188 0 7.855468 2.121094 15.207031 5.808594 21.539062 11.984375 2.402344 24.375 3.671875 37.058594 3.671875 12.679687 0 25.070312-1.269531 37.054687-3.671875 3.6875-6.332031 5.8125-13.683594 5.8125-21.539062 0-23.675782-19.195312-42.867188-42.867187-42.867188zm0 0" fill="#cc9883"/><path d="m380.285156 195.699219c0 95.582031-77.488281 173.070312-173.070312 173.070312-95.585938 0-173.074219-77.488281-173.074219-173.070312 0-95.585938 77.488281-173.070313 173.074219-173.070313 95.582031 0 173.070312 77.484375 173.070312 173.070313zm0 0" fill="#fbc4ac"/><path d="m207.214844 22.628906c-95.054688 0-172.199219 76.628906-173.050782 171.484375 13.296876-1 34.300782-3.746093 59.28125-11.148437 43-12.746094 81.207032-34.109375 113.769532-63.59375 32.558594 29.480468 70.761718 50.847656 113.761718 63.589844 24.980469 7.40625 45.988282 10.152343 59.285157 11.152343-.851563-94.851562-77.996094-171.484375-173.046875-171.484375zm0 0" fill="#e3b098"/><path d="m64.398438 195.699219c0-90.488281 69.445312-164.742188 157.941406-172.40625-4.984375-.433594-10.027344-.664063-15.125-.664063-95.585938 0-173.074219 77.484375-173.074219 173.070313 0 95.582031 77.488281 173.070312 173.074219 173.070312 5.097656 0 10.140625-.234375 15.125-.667969-88.496094-7.664062-157.941406-81.917968-157.941406-172.402343zm0 0" fill="#e3b098"/><path d="m207.214844 7.5c-98.328125 0-179.285156 75.796875-187.511719 172.027344 0 0 103.589844 2.886718 187.511719-81.03125 83.917968 83.917968 187.507812 81.03125 187.507812 81.03125-8.226562-96.230469-89.183594-172.027344-187.507812-172.027344zm0 0" fill="#fa9f6a"/><path d="m222.339844 8.113281c-4.992188-.398437-10.035156-.613281-15.125-.613281-98.328125 0-179.285156 75.796875-187.511719 172.027344 0 0 11.738281.320312 30.492187-2.441406 8.886719-90.101563 81.578126-161.734376 172.144532-168.972657zm0 0" fill="#eb8f59"/><path d="m277.167969 246.316406h-11.449219c-4.144531 0-7.5-3.355468-7.5-7.5 0-4.140625 3.355469-7.5 7.5-7.5h11.449219c4.144531 0 7.5 3.359375 7.5 7.5 0 4.144532-3.355469 7.5-7.5 7.5zm0 0" fill="#fd6f71"/><path d="m148.710938 246.316406h-11.453126c-4.140624 0-7.5-3.355468-7.5-7.5 0-4.140625 3.359376-7.5 7.5-7.5h11.453126c4.140624 0 7.5 3.359375 7.5 7.5 0 4.144532-3.359376 7.5-7.5 7.5zm0 0" fill="#fd6f71"/><path d="m401.921875 176.03125c-4.023437-40.210938-20.167969-77.628906-46.8125-108.363281-2.714844-3.128907-7.449219-3.46875-10.578125-.753907-3.128906 2.714844-3.46875 7.449219-.753906 10.578126 23.332031 26.917968 37.949218 59.375 42.5625 94.316406-25.601563-1.417969-106.523438-11.316406-173.824219-78.613282-2.929687-2.929687-7.675781-2.929687-10.605469 0-42.003906 42.003907-89.164062 61.195313-121.328125 69.898438-23.257812 6.292969-42.269531 8.171875-52.492187 8.722656 11.804687-88.589844 88.902344-156.816406 179.125-156.816406 42.355468 0 83.566406 15.019531 116.035156 42.285156 3.175781 2.667969 7.90625 2.253906 10.566406-.917968 2.664063-3.171876 2.253906-7.902344-.917968-10.566407-35.167969-29.535156-79.804688-45.800781-125.683594-45.800781-49.261719 0-96.363282 18.4375-132.628906 51.914062-35.347657 32.628907-57.308594 76.609376-62.078126 124.113282-7.660156 7.792968-12.007812 18.289062-12.007812 29.300781 0 20.027344 14.101562 37.015625 33.363281 40.953125 5.109375 17.476562 12.796875 33.863281 22.621094 48.722656-12.398437 29.53125-13.167969 56.203125-2.191406 77.234375 6 11.5 13.351562 21.828125 21.886719 30.769531-22.019532 28.429688-34.636719 63.878907-34.636719 101.492188 0 4.140625 3.355469 7.5 7.5 7.5h316.34375c4.144531 0 7.5-3.359375 7.5-7.5 0-37.628906-12.617188-73.074219-34.632813-101.5 8.53125-8.941406 15.882813-19.261719 21.882813-30.761719 13.707031-26.269531 6.707031-56.023437-2.1875-77.234375 9.820312-14.859375 17.503906-31.246094 22.613281-48.722656 19.269531-3.929688 33.363281-20.90625 33.363281-40.953125 0-10.996094-4.34375-21.503906-12.003906-29.296875zm-386.421875 29.296875c0-6.832031 2.601562-13.355469 7.222656-18.300781 1.109375-.015625 2.503906-.054688 4.136719-.121094-.144531 2.929688-.21875 5.867188-.21875 8.792969 0 11.382812 1.074219 22.523437 3.097656 33.328125-8.535156-4.523438-14.238281-13.496094-14.238281-23.699219zm52.089844 159.96875c-9.398438-18.011719-6.328125-38.941406-.546875-55.902344 16.710937 20.558594 37.835937 37.394531 61.929687 49.027344-16.292968 8.714844-30.757812 19.9375-43.003906 33.074219-7.109375-7.660156-13.285156-16.4375-18.378906-26.199219zm290.113281 131.703125h-300.976563c2.707032-54.984375 35.058594-103.917969 84.542969-127.992188.589844 26.078126 6.96875 50.558594 18.132813 69.296876 12.457031 20.90625 29.4375 32.421874 47.8125 32.421874s35.355468-11.515624 47.8125-32.421874c11.164062-18.742188 17.542968-43.21875 18.132812-69.296876 49.488282 24.074219 81.835938 72.988282 84.542969 127.992188zm-150.488281-87.949219c23.632812 0 44.203125-16.800781 49.195312-39.597656.585938-.164063 1.167969-.34375 1.753906-.515625-1.195312 47.433594-24.039062 86.789062-50.949218 86.789062-26.914063 0-49.757813-39.355468-50.953125-86.789062.585937.171875 1.167969.351562 1.753906.515625 4.992187 22.8125 25.519531 39.597656 49.199219 39.597656zm-32.152344-35.652343c10.4375 1.882812 21.179688 2.871093 32.152344 2.871093 10.96875 0 21.710937-.988281 32.148437-2.871093-5.660156 12.246093-18.136719 20.652343-32.148437 20.652343-14.042969 0-26.503906-8.402343-32.152344-20.652343zm171.773438-8.101563c-5.09375 9.761719-11.269532 18.535156-18.375 26.191406-12.246094-13.132812-26.710938-24.355469-43.003907-33.066406 24.09375-11.632813 45.21875-28.46875 61.925781-49.03125 5.8125 17.03125 8.839844 37.921875-.546874 55.90625zm-139.621094-4.027344c-91.296875 0-165.570313-74.277343-165.570313-165.570312 0-3.316407.109375-6.652344.304688-9.972657 10.980469-1.21875 25.402343-3.550781 41.984375-8 32.734375-8.789062 80.136718-27.824218 123.28125-68.761718 43.144531 40.9375 90.542968 59.972656 123.277344 68.761718 16.582031 4.449219 31.003906 6.78125 41.984374 8 .195313 3.316407.308594 6.652344.308594 9.972657 0 91.292969-74.277344 165.570312-165.570312 165.570312zm177.472656-132.238281c2.023438-10.808594 3.097656-21.945312 3.097656-33.332031 0-2.925781-.074218-5.863281-.214844-8.792969 1.632813.070312 3.019532.105469 4.128907.121094 4.621093 4.945312 7.226562 11.476562 7.226562 18.300781 0 10.214844-5.703125 19.183594-14.238281 23.703125zm0 0"/><path d="m227.851562 230.410156c-3.589843-2.066406-8.175781-.828125-10.238281 2.765625-2.136719 3.714844-6.121093 6.019531-10.398437 6.019531s-8.261719-2.304687-10.398438-6.019531c-2.0625-3.589843-6.648437-4.832031-10.238281-2.765625-3.59375 2.0625-4.828125 6.648438-2.765625 10.238282 4.804688 8.355468 13.769531 13.546874 23.402344 13.546874 9.628906 0 18.601562-5.1875 23.402344-13.546874 2.0625-3.589844.824218-8.175782-2.765626-10.238282zm0 0"/><path d="m271.441406 198.21875c-4.140625 0-7.5 3.359375-7.5 7.5v11.453125c0 4.140625 3.359375 7.5 7.5 7.5 4.144532 0 7.5-3.359375 7.5-7.5v-11.453125c0-4.140625-3.355468-7.5-7.5-7.5zm0 0"/><path d="m142.984375 198.21875c-4.144531 0-7.5 3.359375-7.5 7.5v11.453125c0 4.140625 3.355469 7.5 7.5 7.5s7.5-3.359375 7.5-7.5v-11.453125c0-4.140625-3.359375-7.5-7.5-7.5zm0 0"/></svg>