<svg viewBox="-109 0 512 512" xmlns="http://www.w3.org/2000/svg"><path d="m260.296875 504.5h-227.375c-14.039063 0-25.421875-11.382812-25.421875-25.421875v-351.09375c0-14.039063 11.382812-25.417969 25.421875-25.417969h227.375c14.039063 0 25.421875 11.378906 25.421875 25.417969v351.09375c0 14.039063-11.382812 25.421875-25.421875 25.421875zm0 0" fill="#eb8f59"/><path d="m37.5 479.078125v-351.09375c0-14.039063 11.382812-25.417969 25.421875-25.417969h-30c-14.039063 0-25.421875 11.378906-25.421875 25.417969v351.09375c0 14.039063 11.382812 25.421875 25.421875 25.421875h30c-14.039063 0-25.421875-11.382812-25.421875-25.421875zm0 0" fill="#e0824a"/><path d="m7.5 430.84375h278.21875v37.25h-278.21875zm0 0" fill="#efedee"/><path d="m7.5 430.84375h30v37.25h-30zm0 0" fill="#d9d7d8"/><path d="m260.296875 399.433594h-227.375c-14.039063 0-25.421875-11.378906-25.421875-25.417969v-341.09375c0-14.039063 11.382812-25.421875 25.421875-25.421875h227.375c14.039063 0 25.421875 11.382812 25.421875 25.421875v341.09375c0 14.039063-11.382812 25.417969-25.421875 25.417969zm0 0" fill="#fa9f6a"/><path d="m37.5 374.015625v-341.09375c0-14.039063 11.382812-25.421875 25.421875-25.421875h-30c-14.039063 0-25.421875 11.382812-25.421875 25.421875v341.09375c0 14.039063 11.382812 25.417969 25.421875 25.417969h30c-14.039063 0-25.421875-11.378906-25.421875-25.417969zm0 0" fill="#eb8f59"/><path d="m7.5 32.921875v109.933594h278.21875v-109.933594c0-14.039063-11.382812-25.421875-25.421875-25.421875h-227.375c-14.039063 0-25.421875 11.382812-25.421875 25.421875zm0 0" fill="#85cdea"/><path d="m62.921875 7.5h-30c-14.039063 0-25.421875 11.382812-25.421875 25.421875v109.933594h30v-109.933594c0-14.039063 11.382812-25.421875 25.421875-25.421875zm0 0" fill="#78b7d2"/><path d="m216.835938 283.628906h-11.496094c-4.140625 0-7.5-3.359375-7.5-7.5 0-4.144531 3.359375-7.5 7.5-7.5h11.496094c4.144531 0 7.5 3.355469 7.5 7.5 0 4.140625-3.355469 7.5-7.5 7.5zm0 0" fill="#fd6f71"/><path d="m87.878906 283.628906h-11.496094c-4.144531 0-7.5-3.359375-7.5-7.5 0-4.144531 3.355469-7.5 7.5-7.5h11.496094c4.140625 0 7.5 3.355469 7.5 7.5 0 4.140625-3.359375 7.5-7.5 7.5zm0 0" fill="#fd6f71"/><path d="m167.3125 267.710938c-3.589844-2.0625-8.175781-.828126-10.238281 2.765624-2.148438 3.738282-6.160157 6.058594-10.464844 6.058594s-8.3125-2.320312-10.464844-6.0625c-2.0625-3.589844-6.648437-4.828125-10.238281-2.761718-3.589844 2.0625-4.828125 6.648437-2.765625 10.238281 4.820313 8.378906 13.8125 13.585937 23.46875 13.585937 9.660156 0 18.652344-5.207031 23.46875-13.585937 2.0625-3.589844.824219-8.175781-2.765625-10.238281zm0 0"/><path d="m211.089844 235.398438c-4.144532 0-7.5 3.359374-7.5 7.5v11.496093c0 4.140625 3.355468 7.5 7.5 7.5 4.140625 0 7.5-3.359375 7.5-7.5v-11.496093c0-4.140626-3.359375-7.5-7.5-7.5zm0 0"/><path d="m82.128906 235.398438c-4.140625 0-7.5 3.359374-7.5 7.5v11.496093c0 4.140625 3.359375 7.5 7.5 7.5 4.144532 0 7.5-3.359375 7.5-7.5v-11.496093c0-4.140626-3.355468-7.5-7.5-7.5zm0 0"/><path d="m260.296875 0h-227.375c-18.152344 0-32.921875 14.769531-32.921875 32.921875v446.15625c0 18.152344 14.769531 32.921875 32.921875 32.921875h227.375c18.152344 0 32.921875-14.769531 32.921875-32.921875v-446.15625c0-18.152344-14.769531-32.921875-32.921875-32.921875zm17.921875 479.078125c0 9.882813-8.039062 17.921875-17.921875 17.921875h-227.375c-9.882813 0-17.921875-8.039062-17.921875-17.921875v-3.484375h263.21875zm0-55.734375h-168.089844c-4.140625 0-7.5 3.355469-7.5 7.5 0 4.140625 3.359375 7.5 7.5 7.5h168.089844v22.25h-263.21875v-22.25h67.128906c4.140625 0 7.5-3.359375 7.5-7.5 0-4.144531-3.359375-7.5-7.5-7.5h-67.128906v-21.734375c5.160156 3.363281 11.3125 5.324219 17.921875 5.324219h227.375c6.605469 0 12.761719-1.960938 17.921875-5.324219zm0-287.296875h-47.382812c-4.140626 0-7.5 3.355469-7.5 7.5 0 4.140625 3.359374 7.5 7.5 7.5h47.382812v222.96875c0 9.878906-8.039062 17.917969-17.921875 17.917969h-227.375c-9.882813 0-17.921875-8.039063-17.921875-17.917969v-222.96875h187.835938c4.144531 0 7.5-3.359375 7.5-7.5 0-4.144531-3.355469-7.5-7.5-7.5h-187.835938v-103.125c0-9.882813 8.039062-17.921875 17.921875-17.921875h227.375c9.882813 0 17.921875 8.039062 17.921875 17.921875zm0 0"/></svg>