<svg viewBox="0 0 512.00046 512" xmlns="http://www.w3.org/2000/svg"><path d="m256.347656 376.46875c-11.65625-11.65625-11.65625-30.554688 0-42.210938l154.152344-154.152343c11.660156-11.660157 30.558594-11.660157 42.214844 0 11.65625 11.65625 11.65625 30.554687 0 42.210937l-154.152344 154.152344c-11.65625 11.65625-30.558594 11.65625-42.214844 0zm0 0" fill="#bab8b9"/><path d="m83.878906 326.507812-35.539062 35.539063-40.585938 134.835937c-.628906 2.085938-.058594 4.34375 1.480469 5.882813s3.796875 2.109375 5.882813 1.480469l134.835937-40.585938 35.539063-35.539062zm0 0" fill="#85cdea"/><path d="m70.175781 383.878906 35.539063-35.539062-21.835938-21.832032-35.539062 35.539063-40.585938 134.835937c-.628906 2.085938-.058594 4.34375 1.480469 5.882813s3.796875 2.109375 5.882813 1.480469l20.703124-6.230469zm0 0" fill="#78b7d2"/><path d="m48.339844 362.042969 297.070312-297.066407 101.613282 101.609376-297.070313 297.070312zm0 0" fill="#85cdea"/><path d="m48.339844 362.042969 297.070312-297.066407 21.835938 21.832032-297.070313 297.070312zm0 0" fill="#78b7d2"/><path d="m440.800781 143.699219-72.5-72.5 56.917969-56.917969c9.042969-9.042969 23.703125-9.042969 32.746094 0l39.753906 39.753906c9.042969 9.042969 9.042969 23.707032 0 32.746094zm0 0" fill="#596674"/><path d="m479.796875 36.117188-21.832031-21.835938c-9.042969-9.042969-23.703125-9.042969-32.746094 0l-56.917969 56.917969 21.832031 21.835937 56.917969-56.917968c9.042969-9.042969 23.703125-9.042969 32.746094 0zm0 0" fill="#565c62"/><path d="m417.808594 191.804688-97.613282-97.613282c-4.324218-4.324218-4.324218-11.339844 0-15.664062l30.941407-30.941406c4.324219-4.328126 11.339843-4.328126 15.667969 0l97.609374 97.609374c4.328126 4.328126 4.328126 11.34375 0 15.667969l-30.941406 30.941407c-4.324218 4.328124-11.339844 4.328124-15.664062 0zm0 0" fill="#d9d7d8"/><path d="m342.03125 100.359375 30.941406-30.9375c4.324219-4.328125 11.339844-4.328125 15.664063 0l-21.832031-21.835937c-4.328126-4.324219-11.34375-4.324219-15.667969 0l-30.941407 30.941406c-4.324218 4.324218-4.324218 11.339844 0 15.667968l21.835938 21.832032c-4.328125-4.324219-4.328125-11.339844 0-15.667969zm0 0" fill="#bab8b9"/><path d="m149.117188 462.820312-99.9375-99.9375c-3.683594-3.683593-3.683594-9.65625 0-13.34375l135.878906-135.875c3.683594-3.6875 9.65625-3.6875 13.34375 0l99.933594 99.933594c3.683593 3.6875 3.683593 9.660156 0 13.34375l-135.875 135.878906c-3.6875 3.683594-9.660157 3.683594-13.34375 0zm0 0" fill="#596674"/><path d="m71.015625 371.375 135.875-135.875c3.6875-3.6875 9.660156-3.6875 13.34375 0l-21.832031-21.835938c-3.6875-3.683593-9.660156-3.683593-13.34375 0l-135.878906 135.875c-3.683594 3.6875-3.683594 9.660157 0 13.347657l21.835937 21.832031c-3.683594-3.683594-3.683594-9.660156 0-13.34375zm0 0" fill="#565c62"/><path d="m512 70.410156c0-8.1875-3.1875-15.886718-8.976562-21.675781l-39.753907-39.753906c-5.792969-5.792969-13.492187-8.980469-21.679687-8.980469s-15.886719 3.1875-21.675782 8.980469l-40.554687 40.554687-7.253906-7.253906c-3.507813-3.507812-8.171875-5.441406-13.136719-5.441406-4.960938 0-9.628906 1.933594-13.136719 5.441406l-30.941406 30.941406c-4.542969 4.542969-6.230469 10.871094-5.078125 16.746094l-113.957031 113.957031c-1.335938-.332031-2.714844-.523437-4.125-.523437-4.523438 0-8.777344 1.761718-11.976563 4.960937l-135.875 135.875c-5.019531 5.019531-6.214844 12.421875-3.605468 18.589844l-39.703126 131.894531c-1.425781 4.738282-.136718 9.851563 3.359376 13.347656 2.554687 2.554688 5.972656 3.929688 9.476562 3.929688 1.292969 0 2.597656-.1875 3.871094-.570312l131.878906-39.699219c2.070312.882812 4.3125 1.351562 6.632812 1.351562 4.523438 0 8.777344-1.761719 11.976563-4.957031l25.902344-25.90625c2.925781-2.925781 2.925781-7.675781 0-10.605469-2.929688-2.925781-7.679688-2.929687-10.609375 0l-25.902344 25.902344c-.46875.46875-1.003906.566406-1.367188.566406-.363281 0-.898437-.097656-1.367187-.566406l-99.9375-99.933594c-.753906-.757812-.753906-1.984375 0-2.738281l135.878906-135.875c.753907-.757812 1.980469-.757812 2.734375 0l99.9375 99.933594c.753906.753906.753906 1.984375 0 2.738281l-90.175781 90.175781c-2.929687 2.925782-2.929687 7.675782 0 10.605469 2.929687 2.925781 7.675781 2.925781 10.605469 0l39.164062-39.164063c6.84375 6.109376 15.578125 9.453126 24.824219 9.453126 9.976563 0 19.355469-3.882813 26.410156-10.9375l154.15625-154.152344c14.046875-14.046875 14.539063-36.589844 1.484375-51.238282l10.214844-10.214843c7.242188-7.246094 7.242188-19.03125 0-26.273438l-7.25-7.25 40.554688-40.558593c5.789062-5.789063 8.976562-13.488282 8.976562-21.675782zm-496.210938 425.800782 36.121094-119.992188 83.871094 83.875zm431.621094-279.199219-154.152344 154.15625c-4.222656 4.21875-9.832031 6.542969-15.804687 6.542969-5.238281 0-10.203125-1.792969-14.191406-5.085938l40.378906-40.378906c4.355469-4.355469 5.820313-10.511719 4.425781-16.09375l113.96875-113.964844c1.1875.234375 2.398438.351562 3.605469.351562 4.757813 0 9.515625-1.808593 13.136719-5.429687l10.089844-10.089844c7.222656 8.769531 6.738281 21.796875-1.457032 29.992188zm11.703125-61.449219-30.941406 30.9375c-1.394531 1.398438-3.667969 1.394531-5.0625 0l-51.320313-51.320312c-2.929687-2.929688-7.675781-2.929688-10.605468 0-2.929688 2.929687-2.929688 7.679687 0 10.605468l48.019531 48.019532-110.027344 110.027343-91.007812-91.007812 110.027343-110.023438 22.199219 22.199219c2.929688 2.929688 7.675781 2.929688 10.605469 0s2.929688-7.679688 0-10.605469l-25.5-25.503906c-.078125-.078125-.136719-.167969-.207031-.25-.171875-.371094-.378907-.726563-.617188-1.066406-.457031-1.265625-.1875-2.730469.824219-3.742188l30.941406-30.941406c.910156-.914063 1.976563-1.046875 2.527344-1.046875.554688 0 1.617188.132812 2.53125 1.046875l97.609375 97.609375c1.398437 1.394531 1.398437 3.664062.003906 5.0625zm33.300781-74.082031-40.554687 40.554687-61.894531-61.894531 40.554687-40.554687c2.960938-2.957032 6.890625-4.585938 11.070313-4.585938 4.183594 0 8.113281 1.628906 11.070312 4.585938l39.753906 39.753906c2.957032 2.957031 4.585938 6.886718 4.585938 11.070312s-1.628906 8.113282-4.585938 11.070313zm0 0"/></svg>