<svg viewBox="0 0 512 512.00065" xmlns="http://www.w3.org/2000/svg"><path d="m81.710938 331.566406-34.53125 34.527344-39.433594 131.007812c-.609375 2.023438-.054688 4.21875 1.4375 5.714844 1.496094 1.492188 3.691406 2.046875 5.714844 1.4375l131.007812-39.433594 34.527344-34.53125zm0 0" fill="#fa9f6a"/><path d="m87.167969 337.023438-5.457031-5.457032-34.53125 34.527344-39.433594 131.007812c-.609375 2.023438-.054688 4.21875 1.4375 5.714844 1.496094 1.492188 3.691406 2.046875 5.714844 1.4375l24.449218-7.359375zm0 0" fill="#eb8f59"/><path d="m25.585938 437.832031-17.839844 59.269531c-.609375 2.023438-.054688 4.21875 1.4375 5.714844 1.496094 1.492188 3.691406 2.046875 5.714844 1.4375l59.269531-17.839844zm0 0" fill="#596674"/><path d="m49.863281 462.113281-24.277343-24.28125-17.839844 59.269531c-.609375 2.023438-.054688 4.21875 1.4375 5.714844 1.496094 1.492188 3.691406 2.046875 5.714844 1.4375l24.5-7.375zm0 0" fill="#565c62"/><path d="m145.90625 464.820312-7.589844-43.121093-48.015625-48.015625-43.121093-7.589844 288.628906-288.625 98.722656 98.722656zm0 0" fill="#46926f"/><path d="m361.164062 102.820312 48.015626 48.019532-270.863282 270.859375-41.773437-6.242188-6.242188-41.773437zm0 0" fill="#58b78c"/><path d="m442.625 168.097656-98.722656-98.722656 55.300781-55.300781c8.785156-8.785157 23.027344-8.785157 31.8125 0l66.910156 66.910156c8.785157 8.785156 8.785157 23.03125 0 31.816406zm0 0" fill="#fd6f71"/><path d="m455.292969 38.351562-24.277344-24.277343c-8.785156-8.785157-23.03125-8.785157-31.816406 0l-55.296875 55.300781 24.277344 24.277344 55.296874-55.300782c8.785157-8.785156 23.03125-8.785156 31.816407 0zm0 0" fill="#e36465"/><path d="m401.714844 203.890625-93.605469-93.601563c-4.542969-4.546874-4.542969-11.910156 0-16.457031l36.457031-36.457031c4.542969-4.542969 11.910156-4.542969 16.453125 0l93.605469 93.605469c4.542969 4.542969 4.542969 11.910156 0 16.453125l-36.457031 36.457031c-4.542969 4.542969-11.910157 4.542969-16.453125 0zm0 0" fill="#d9d7d8"/><path d="m332.386719 118.113281 36.457031-36.460937c4.542969-4.542969 11.910156-4.542969 16.453125 0l-24.277344-24.277344c-4.542969-4.542969-11.910156-4.542969-16.453125 0l-36.457031 36.457031c-4.542969 4.546875-4.542969 11.910157 0 16.457031l24.277344 24.277344c-4.542969-4.542968-4.542969-11.910156 0-16.453125zm0 0" fill="#bab8b9"/><path d="m503.230469 75.679688-66.910157-66.90625c-11.695312-11.695313-30.726562-11.699219-42.421874 0l-37.980469 37.976562c-5.882813-.964844-12.128907.792969-16.65625 5.320312l-36.457031 36.460938c-3.613282 3.613281-5.605469 8.417969-5.605469 13.53125 0 1.058594.105469 2.105469.273437 3.132812l-255.550781 255.554688c-.238281.230469-.457031.484375-.664063.753906-.042968.050782-.082031.105469-.121093.164063-.160157.21875-.3125.445312-.449219.683593-.023438.039063-.046875.074219-.066406.109376-.148438.269531-.28125.546874-.394532.835937-.027343.066406-.050781.140625-.074218.210937-.054688.140626-.109375.28125-.152344.425782l-21.597656 71.738281c-.003906.015625-.007813.035156-.015625.050781l-17.820313 59.214844c-1.410156 4.679688-.136718 9.730469 3.3125 13.179688 2.523438 2.527343 5.898438 3.882812 9.359375 3.882812 1.277344 0 2.5625-.183594 3.824219-.5625l59.21875-17.828125c.015625-.003906.027344-.007813.042969-.011719l71.742187-21.59375c.007813-.003906.019532-.007812.027344-.011718.226562-.070313.453125-.148438.675781-.238282.140625-.058594.273438-.128906.410157-.195312.082031-.039063.171874-.074219.253906-.117188.167968-.089844.332031-.191406.492187-.292968.042969-.03125.09375-.054688.136719-.085938.1875-.121094.363281-.253906.535156-.390625.019532-.015625.039063-.03125.058594-.046875.207031-.167969.40625-.347656.59375-.539062l255.558594-255.558594c1.027344.167968 2.070312.273437 3.132812.273437 5.109375 0 9.914063-1.988281 13.527344-5.601562l36.460938-36.460938c4.527343-4.527343 6.289062-10.773437 5.320312-16.65625l37.980469-37.976562c11.695312-11.699219 11.695312-30.730469 0-42.425781zm-197.683594 42.65625 14.75 14.746093-232.539063 232.539063-25.082031-4.414063zm-289.675781 377.792968 13.28125-44.121094 30.839844 30.839844zm60.429687-18.1875-42.238281-42.238281 18.378906-61.066406 31.238282 5.5 5.445312 36.429687c.488281 3.261719 3.050781 5.820313 6.3125 6.308594l36.429688 5.445312 5.496093 31.238282zm74.492188-28.617187-4.414063-25.082031 101.453125-101.453126c2.929688-2.929687 2.929688-7.675781 0-10.605468-2.929687-2.929688-7.679687-2.929688-10.605469 0l-101.539062 101.539062-32.546875-4.863281-4.863281-32.546875 232.625-232.625 37.410156 37.410156-111.285156 111.285156c-2.929688 2.929688-2.929688 7.679688 0 10.609376 1.460937 1.460937 3.382812 2.195312 5.300781 2.195312s3.839844-.730469 5.304687-2.195312l111.285157-111.289063 14.746093 14.75zm341.828125-341.828125-35.4375 35.4375-46.1875-46.1875c-2.929688-2.929688-7.675782-2.929688-10.605469 0-2.929687 2.929687-2.929687 7.679687 0 10.605468l48.929687 48.933594c1.613282 1.609375 1.613282 4.234375 0 5.847656l-36.457031 36.457032c-.78125.78125-1.820312 1.210937-2.921875 1.210937-1.105468 0-2.144531-.429687-2.925781-1.210937l-93.601563-93.605469c-.78125-.78125-1.210937-1.820313-1.210937-2.921875 0-1.105469.429687-2.144531 1.210937-2.925781l36.457032-36.457031c1.613281-1.613282 4.234375-1.613282 5.847656 0l24.871094 24.871093c2.929687 2.929688 7.679687 2.929688 10.605468 0 2.929688-2.929687 2.929688-7.679687 0-10.605469l-22.128906-22.128906 35.4375-35.4375c5.847656-5.847656 15.363282-5.847656 21.207032 0l66.910156 66.910156c5.847656 5.847657 5.847656 15.359376 0 21.207032zm0 0"/></svg>